<svg id="Layer_1" data-name="Layer 1" xmlns="http://www.w3.org/2000/svg" viewBox="0 0 504.53 341.39"><title>antiniebla-delantero01</title><path d="M248.57,423C111,422.56,0,346.39,0,252.43S111,81.17,248.53,81.58h0a581.83,581.83,0,0,1,.24,340.7Z" transform="translate(0 -81.57)"/><path d="M385.07,414a8.42,8.42,0,0,1-2.94-.53,8.53,8.53,0,0,1-5.08-10.94c18.46-50.41.31-95.76.13-96.21-.86-2.12-20.61-51.75.19-108.59,18.28-49.94.56-86.76.38-87.12A8.53,8.53,0,0,1,393,103c.88,1.75,21.34,43.43.4,100.64-18.56,50.72-.62,95.8-.43,96.25.84,2,20.92,51.68.11,108.55a8.52,8.52,0,0,1-8,5.61" transform="translate(0 -81.57)"/><path d="M496,260.43H308.27a8.54,8.54,0,1,1,0-17.07H496a8.54,8.54,0,0,1,0,17.07" transform="translate(0 -81.57)"/><path d="M496,175.09H308.27a8.53,8.53,0,1,1,0-17.06H496a8.53,8.53,0,0,1,0,17.06" transform="translate(0 -81.57)"/><path d="M496,345.76H308.27a8.54,8.54,0,1,1,0-17.07H496a8.54,8.54,0,0,1,0,17.07" transform="translate(0 -81.57)"/></svg>