<?xml version="1.0" encoding="utf-8"?>
<!-- Generator: Adobe Illustrator 22.1.0, SVG Export Plug-In . SVG Version: 6.00 Build 0)  -->
<svg version="1.1" id="Layer_1" xmlns="http://www.w3.org/2000/svg" xmlns:xlink="http://www.w3.org/1999/xlink" x="0px" y="0px"
	 viewBox="0 0 504.5 504.5" style="enable-background:new 0 0 504.5 504.5;" xml:space="preserve">
<style type="text/css">
	.st0{fill:#C6421E;}
</style>
<g>
	<path class="st0" d="M248.6,423C111,422.6,0,346.4,0,252.4c0-94,111-171.3,248.5-170.9l0,0c34.1,111,34.2,229.5,0.2,340.7
		L248.6,423z"/>
	<path class="st0" d="M385.1,414c-1,0-2-0.2-2.9-0.5c-4.4-1.6-6.7-6.5-5.1-10.9c18.5-50.4,0.3-95.8,0.1-96.2
		c-0.9-2.1-20.6-51.7,0.2-108.6c18.3-49.9,0.6-86.8,0.4-87.1c-2.1-4.2-0.4-9.3,3.8-11.4c4.2-2.1,9.3-0.4,11.4,3.8
		c0.9,1.7,21.3,43.4,0.4,100.6c-18.6,50.7-0.6,95.8-0.4,96.2c0.8,2,20.9,51.7,0.1,108.6C391.8,411.9,388.5,414,385.1,414"/>
	<path class="st0" d="M496,260.4H308.3c-4.7,0-8.5-3.8-8.5-8.5c0-4.7,3.8-8.5,8.5-8.5H496c4.7,0,8.5,3.8,8.5,8.5
		C504.5,256.6,500.7,260.4,496,260.4"/>
	<path class="st0" d="M496,175.1H308.3c-4.7,0-8.5-3.8-8.5-8.5s3.8-8.5,8.5-8.5H496c4.7,0,8.5,3.8,8.5,8.5S500.7,175.1,496,175.1"/>
	<path class="st0" d="M496,345.8H308.3c-4.7,0-8.5-3.8-8.5-8.5s3.8-8.5,8.5-8.5H496c4.7,0,8.5,3.8,8.5,8.5S500.7,345.8,496,345.8"/>
</g>
</svg>
