<svg id="Layer_1" data-name="Layer 1" xmlns="http://www.w3.org/2000/svg" viewBox="0 0 504.53 341.39"><title>antiniebla-trasero02</title><path d="M256,81.57C393.5,82,504.53,158.14,504.53,252.1S393.53,423.36,256,423h0a582,582,0,0,1-.24-340.71Z" transform="translate(0 -81.57)" style="fill:#58a50e"/><path d="M119.47,90.5a8.41,8.41,0,0,1,2.93.53A8.53,8.53,0,0,1,127.48,102c-18.46,50.42-.31,95.76-.13,96.22.86,2.11,20.62,51.74-.19,108.58-18.28,50-.56,86.76-.38,87.13a8.53,8.53,0,0,1-15.25,7.65c-.88-1.75-21.33-43.42-.39-100.64,18.56-50.71.61-95.8.42-96.25-.84-2-20.92-51.68-.11-108.55a8.53,8.53,0,0,1,8-5.61" transform="translate(0 -81.57)" style="fill:#58a50e"/><path d="M8.53,244.11H196.27a8.53,8.53,0,1,1,0,17.06H8.53a8.53,8.53,0,1,1,0-17.06" transform="translate(0 -81.57)" style="fill:#58a50e"/><path d="M8.53,329.44H196.27a8.54,8.54,0,0,1,0,17.07H8.53a8.54,8.54,0,0,1,0-17.07" transform="translate(0 -81.57)" style="fill:#58a50e"/><path d="M8.53,158.77H196.27a8.54,8.54,0,0,1,0,17.07H8.53a8.54,8.54,0,0,1,0-17.07" transform="translate(0 -81.57)" style="fill:#58a50e"/></svg>