<?xml version="1.0" encoding="utf-8"?>
<!-- Generator: Adobe Illustrator 21.0.0, SVG Export Plug-In . SVG Version: 6.00 Build 0)  -->
<svg version="1.1" id="Capa_1" xmlns="http://www.w3.org/2000/svg" xmlns:xlink="http://www.w3.org/1999/xlink" x="0px" y="0px"
	 width="822.1px" height="426.4px" viewBox="0 0 822.1 426.4" enable-background="new 0 0 822.1 426.4" xml:space="preserve">
<g>
	<path fill="#FFFFFF" d="M411,426.2c135.3,0,270.6,0,405.8,0c6.1,0,5.3,0.7,5.3-5.4c0-164.9,0-250.3,0-415.2c0-6.4,0.9-5.5-5.6-5.5
		c-85.9,0-171.8,0-257.7,0c-184.1,0-368.1,0-552.2,0c-1.3,0-2.6,0-3.9,0c-1.2,0-1.9,0.5-1.9,1.8c0,1,0,2,0,3.1c0,14.2,0,28.3,0,42.5
		c0,3.3-0.5,6.6-0.7,10c-0.1,0.7,0,1.5,0,2.2c0.2,2.4,0.7,4.9,0.7,7.3c0,144.3,0,209.1,0,353.4c0,6.7-1,5.9,5.7,5.9
		C141.3,426.2,276.2,426.2,411,426.2z"/>
	<path d="M411,426.2c-134.8,0-269.7,0-404.5,0c-6.7,0-5.7,0.8-5.7-5.9c0-144.3,0-209.1,0-353.4c0-2.4-0.5-4.9-0.7-7.3
		c-0.1-0.7-0.1-1.5,0-2.2c0.2-3.3,0.7-6.6,0.7-10c0.1-14.2,0-28.3,0-42.5c0-1,0-2,0-3.1C0.8,0.5,1.5,0,2.7,0C4,0,5.3,0,6.6,0
		c184.1,0,368.1,0,552.2,0c85.9,0,171.8,0,257.7,0c6.4,0,5.6-0.8,5.6,5.5c0,164.9,0,250.3,0,415.2c0,6.1,0.8,5.4-5.3,5.4
		C681.6,426.2,546.3,426.2,411,426.2z M411.2,423.6c134.3,0,268.5,0,402.8,0c6.3,0,5.6,0.6,5.6-5.7c0-116.4,0-232.9,0-349.3
		c0-3,0.5-6.1-0.7-9.1c-0.2-0.5,0-1.2,0-1.7c0.2-2.3,0.7-4.6,0.7-6.9c0.1-14.2,0-28.3,0-42.5c0-5.7,0-5.7-5.9-5.7
		c-268.3,0-536.7,0-805.1,0c-1,0-2,0-3.1,0c-1.4,0-2.2,0.6-2.1,2.1c0,1,0,2,0,3.1c0,14.3,0,28.6,0,43c0,7.2-1,6.3,6.2,6.3
		c198.7,0,397.4,0,596.1,0c68.8,0,137.6,0,206.4,0c1.5,0,2.9-0.1,4.4,0.1c0.5,0.1,0.9,0.9,1.2,1.4c0.1,0.2-0.7,0.9-1.1,1
		c-1.6,0.1-3.2,0.1-4.8,0.1c-267.5,0-535,0-802.5,0c-6.6,0-5.9-0.8-5.9,5.8c0,117.3,0,234.6,0,351.9c0,7-0.9,6.1,5.9,6.1
		C143.3,423.6,277.3,423.6,411.2,423.6z"/>
	<path fill="#FFFFFF" d="M411.2,423.6c-134,0-267.9,0-401.9,0c-6.9,0-5.9,0.9-5.9-6.1c0-117.3,0-234.6,0-351.9
		c0-6.6-0.7-5.8,5.9-5.8c267.5,0,535,0,802.5,0c1.6,0,3.2,0,4.8-0.1c0.4,0,1.2-0.8,1.1-1c-0.2-0.6-0.7-1.3-1.2-1.4
		c-1.4-0.2-2.9-0.1-4.4-0.1c-68.8,0-137.6,0-206.4,0c-198.7,0-397.4,0-596.1,0c-7.2,0-6.2,1-6.2-6.3c0-14.3,0-28.6,0-43
		c0-1,0-2,0-3.1c0-1.5,0.7-2.1,2.1-2.1c1,0,2,0,3.1,0c268.4,0,536.8,0,805.1,0c5.9,0,5.9,0,5.9,5.7c0,14.2,0,28.3,0,42.5
		c0,2.3-0.5,4.6-0.7,6.9c-0.1,0.6-0.2,1.2,0,1.7c1.2,3,0.7,6.1,0.7,9.1c0,116.4,0,232.9,0,349.3c0,6.3,0.8,5.7-5.6,5.7
		C679.8,423.6,545.5,423.6,411.2,423.6z M411.5,242c3.4,0,6.7,0,10.1,0c39.6,0,79.2,0,118.8,0c1.3,0,2.6,0,3.9-0.2
		c0.3,0,0.7-0.8,0.7-1.3c0-0.3-0.4-0.9-0.7-0.9c-1.4-0.1-2.9-0.2-4.4-0.2c-85.3,0-170.6,0-255.9,0c-1,0-2,0-3.1,0
		c-0.4,0-1-0.1-1.3,0.2c-0.4,0.3-0.7,0.9-0.8,1.3c0,0.3,0.4,0.9,0.7,0.9c1.4,0.1,2.9,0.2,4.4,0.2C326.5,242,369,242,411.5,242z
		 M517.9,344.2c0,3.6,0,7.3,0,10.9c0,2.3,0.5,2.7,2.4,2.7c1.8,0,2.2-1,2.1-2.6c0-2.8,0-5.5,0-8.3c0-4.2,0-8.5,0-12.7
		c0-1.9,0.8-2.7,2.6-2.6c1.6,0,3.2,0,4.8,0c5.4,0,10.8,0,16.2-0.1c0.6,0,1.6-0.7,1.8-1.3c0.4-1.1,0.1-2.4-1.3-2.8
		c-1.1-0.3-2.3-0.3-3.5-0.3c-6,0-12,0-17.9,0c-2.6,0-2.7-0.1-2.7-2.7c-0.1-3.5,0-7,0-10.5s0-7,0-10.5c0-1.6-1.1-1.8-2.4-1.8
		c-1.2,0-2,0.3-2.1,1.7c0,1,0,2,0,3.1c0,6.1,0,12.3,0,18.4c0,2.4-0.1,2.4-2.5,2.5c-6.1,0.1-12.3,0-18.4,0c-1.3,0-2.6,0.2-3.9,0.5
		c-1.2,0.3-1.6,1.3-1.3,2.4c0.2,0.6,1,1.3,1.7,1.5c0.9,0.3,2,0.1,3,0.1c6.3,0,12.5,0,18.8,0c2.4,0,2.5,0.1,2.5,2.4
		C518,337.5,517.9,340.8,517.9,344.2z M410.5,156.9c-3.7-0.2-5.9,0.5-7.5,2.8c-1.1,1.5-2.5,2.8-3.8,4.2c-2.2,2.5-4.5,5-6.6,7.5
		c-0.9,1.1-1.6,2.3-1.3,4c1,4.9,5.8,6.8,9.6,3.4c2.4-2.1,4.5-4.6,6.5-7.1c1.9-2.4,4.1-3,6.9-2.2c3.9,1,7.9,2,11.8,2.9
		c1.3,0.3,2.6,0.4,3.9,0.5c2.1,0.2,3.7-0.8,4.7-2.6c2.8-5.1,5.4-10.3,8.2-15.4c0.9-1.8,1-3.6,0.4-5.5c-1-3-3.4-4.3-6.3-4.7
		c-2.9-0.3-5.1,1-6.5,3.5c-1.9,3.1-3.7,6.3-5.5,9.4c-0.8,1.4-1.7,2-3.5,1.5C417.5,158.2,413.5,157.5,410.5,156.9z M317.8,174
		c2.1-0.1,3.9-0.6,4.9-2.4c3-5.6,6-11.3,8.9-17c0.8-1.6,0.5-3.1-0.3-4.6c-2.5-4.9-8.8-6.4-12.3-1c-2,3-3.8,6.2-5.5,9.4
		c-0.9,1.7-1.9,2.3-3.8,1.8c-3.2-0.8-6.5-1.5-9.8-2.2c-3.6-0.8-6.6,0.1-9,3s-5.1,5.6-7.6,8.5c-1,1.1-1.9,2.2-2.7,3.4
		c-1.9,3.3-0.7,6.6,2.9,8.1c2.8,1.2,4.8-0.1,6.6-1.9c2.1-2.2,4.2-4.4,6.1-6.8c1.7-2.2,3.8-2.4,6.2-1.8c2.8,0.7,5.6,1.5,8.4,2.2
		C313.2,173.2,315.5,173.6,317.8,174z M538.5,174.1c2.7-0.1,4.5-1.1,5.7-3.5c0.8-1.6,1.8-3,2.6-4.6c1.9-3.6,3.8-7.2,5.4-11
		c1.4-3.2,0.1-6.5-2.8-8.3c-2.9-1.9-6.1-1.5-8.7,1.2c-0.9,0.9-1.5,2.1-2.2,3.2c-1.4,2.4-2.7,4.8-4.1,7.2c-0.9,1.5-2,2.3-3.9,1.8
		c-2.8-0.8-5.8-0.9-8.5-1.8c-4.5-1.5-7.9-0.1-10.8,3.5c-2.2,2.7-4.7,5.2-7,7.8c-1,1.2-2.1,2.4-2.9,3.8c-1.2,2-1,3.8,0.6,5.6
		c3,3.3,5.9,3.3,9.7-0.4c2.2-2.1,4.2-4.4,6.2-6.8c1.3-1.6,2.9-1.9,4.7-1.5s3.7,0.9,5.5,1.3C531.4,172.4,535,173.3,538.5,174.1z
		 M145.4,97.3c-1.1,0.7-2.9,1.5-4.2,2.8c-3,3-5.7,6.2-8.5,9.4c-6.2,7.1-12.5,14.2-18.7,21.4c-0.7,0.8-1.5,1.5-0.4,2.6
		c1.1,1,1.9,0.9,2.9-0.3c5.9-6.8,11.8-13.7,17.7-20.4c3.1-3.5,6.1-7.1,9.3-10.4c1.9-2,3.4-1.9,5.3,0c1.5,1.5,2.8,3.3,4.3,5
		c7.4,8.4,14.7,16.9,22.1,25.3c0.3,0.3,0.5,0.7,0.8,1c0.9,0.8,1.8,0.7,2.7-0.1c0.8-0.8,0.7-1.5,0-2.3c-0.6-0.6-1.2-1.3-1.8-1.9
		c-5.1-5.9-10.2-11.9-15.4-17.8c-3.4-3.8-6.8-7.6-10.2-11.4C150,98.6,148.3,97.6,145.4,97.3z M678.7,100.7c0.9,0.5,1.6,0.7,2.1,1.2
		c0.7,0.5,1.3,1.2,1.9,1.8c7.5,8.6,14.9,17.1,22.4,25.7c1.2,1.4,2.5,2.9,3.9,4.1c0.4,0.3,1.3,0.3,1.9,0.1c0.4-0.2,0.8-0.9,0.8-1.4
		s-0.5-1-0.9-1.4c-2.6-3.1-5.3-6.2-7.9-9.3c-6.1-7.1-12.1-14.2-18.4-21.1c-3-3.3-6.7-4.5-11-0.3c-2,2.1-3.9,4.4-5.8,6.6
		c-6.6,7.6-13.3,15.1-19.9,22.7c-0.7,0.8-1.3,1.6-1.6,2.6c-0.2,0.5,0.3,1.3,0.8,1.8c0.3,0.3,1.1,0.2,1.5,0c0.5-0.2,0.9-0.7,1.3-1.2
		c2.5-2.8,5-5.7,7.5-8.6c6.1-7.1,12.1-14.1,18.3-21.2C676.3,102,677.6,101.4,678.7,100.7z M678.5,376.8c2.6-0.5,4.8-1.4,6.6-3.4
		c7.5-8.7,15.1-17.4,22.6-26c1.3-1.5,2.6-3.1,3.8-4.8c0.2-0.4-0.1-1.3-0.5-1.8c-0.2-0.3-1.1-0.5-1.5-0.3c-0.6,0.3-1.1,0.9-1.6,1.4
		c-3.4,3.8-6.7,7.6-10.1,11.5c-5.2,5.9-10.3,11.9-15.6,17.7c-2.8,3.1-4.4,3-7.1-0.1c-8.3-9.6-16.6-19.2-24.9-28.7
		c-0.6-0.7-1.2-1.3-1.9-1.7c-0.4-0.2-1.2-0.1-1.5,0.2c-0.4,0.3-0.8,1.1-0.7,1.4c0.5,1,1.1,2.1,1.9,2.9c6,6.9,12,13.8,18.1,20.8
		c2.2,2.5,4.4,5,6.6,7.5C674.3,375.2,676.3,376.3,678.5,376.8z M179.5,341.4c-0.5-0.4-1-1-1.4-1.1c-0.6-0.1-1.5,0.1-1.9,0.5
		c-2.3,2.4-4.5,5-6.6,7.5c-6.5,7.5-12.9,15-19.4,22.5c-2.9,3.3-4.5,3.4-7.5,0.1c-4.7-5.2-9.2-10.5-13.8-15.8
		c-4.1-4.7-8.2-9.4-12.4-14.1c-1-1.1-2.9-0.9-3.1,0.4c-0.1,0.7,0.4,1.6,0.9,2.2c7.7,8.9,15.4,17.8,23.2,26.7c1.3,1.5,2.7,3,4.3,4.4
		c3,2.7,6.3,2.6,9.3-0.1c0.9-0.8,1.7-1.6,2.4-2.5c6.5-7.4,13-14.9,19.6-22.3c1.7-2,3.5-3.9,5.1-6C178.7,343.1,179,342.3,179.5,341.4
		z M302.2,331.7c1.2,0,2.3,0,3.5,0c7.4,0,14.8,0,22.3,0c1.4,0,2.6-0.1,2.6-2c0-1.7-0.9-2.3-2.4-2.5c-0.9-0.1-1.7,0-2.6,0
		c-15.1,0-30.3,0-45.4,0c-0.9,0-1.8-0.1-2.6,0c-2.4,0.3-3.3,1.1-3.1,2.8c0.2,2.3,2,1.7,3.4,1.7C285.9,331.7,294,331.7,302.2,331.7z
		 M676.6,288.9c0,3.8,0,7.6,0,11.4c0,3.5,0,7,0,10.5c0,1.1,0.1,2,1.5,2.2c1.5,0.2,2.7-0.5,2.9-1.9c0.2-1,0.1-2,0.1-3.1
		c0-12.8,0-25.6,0-38.5c0-0.9,0-1.7,0-2.6c0-1.4-0.6-2.1-2.1-2.1c-1.9,0-2.4,0.3-2.4,2.7C676.6,274.6,676.6,281.7,676.6,288.9z
		 M148.3,176.9c0-3.5,0-7,0-10.5c0-3.8,0-7.6,0-11.4c0-1.3-0.3-2.3-1.9-2.4c-1.5,0-2.5,0.6-2.6,2.2c-0.1,1,0,2,0,3.1
		c0,10.9,0,21.9,0,32.8c0,2.6,0,5.2,0,7.9c0,1.7,0.9,2.2,2.4,2.2c1.8,0,2.1-1.1,2.1-2.6C148.3,191.2,148.3,184.1,148.3,176.9z
		 M148.3,289c0-3.2,0-6.4,0-9.6c0-4.1,0-8.2,0-12.3c0-1.3-0.2-2.3-1.9-2.4c-1.6,0-2.5,0.6-2.6,2.2c-0.1,0.9,0,1.8,0,2.6
		c0,12.8,0,25.7,0,38.5c0,0.9-0.2,1.8,0.1,2.6c0.2,0.7,0.8,1.6,1.4,2c1.7,0.8,3-0.1,3-2.3C148.3,303.4,148.3,296.2,148.3,289z
		 M676.6,177.2c0,3.4,0,6.7,0,10.1c0,3.9,0,7.9,0,11.8c0,1.2,0.6,1.8,1.9,1.8c1.2,0,2.4,0,2.5-1.6c0-0.4,0-0.9,0-1.3
		c0-13.9,0-27.7,0-41.6c0-0.7,0.1-1.6-0.2-2.1c-0.4-0.6-1.3-1.4-1.9-1.4c-0.8,0.1-1.8,0.8-2.2,1.6s-0.2,2-0.2,3
		C676.6,164,676.6,170.6,676.6,177.2z M660.6,20.8c-2.8,0-4.2,0.8-3.7,2.5c0.6,2.2-0.2,3.1-1.7,4.3c-1.8,1.4-1.7,2.9,0.1,4.2
		c1.6,1.1,2.3,2.2,1.7,4.3c-0.5,1.8,1.1,3.6,2.8,3.1c1.9-0.5,2.8-0.1,4,1.4c1.6,2.1,3.4,2,4.9-0.1c1-1.3,1.8-1.9,3.6-1.4
		c2.1,0.5,3.5-0.9,3.1-3.1c-0.3-1.8,0.4-2.6,1.5-3.7c2.1-1.9,2.1-3.1,0-4.9c-1.2-1-1.9-1.9-1.5-3.6c0.4-2.2-0.8-3.5-3.1-3.1
		c-1.7,0.3-2.6-0.4-3.6-1.6c-1.8-2.1-3.1-2.1-4.9,0C662.9,20.2,662,20.9,660.6,20.8z M76.4,41.4c0.9,0,1.8,0.1,2.6,0
		c3.5-0.3,5.9-2.4,7.5-5.3c0.5-0.9,0.7-2.2-0.6-2.6c-0.8-0.2-1.8,0.3-2.7,0.6c-0.3,0.1-0.4,0.7-0.6,1.1c-1.4,2.8-3.8,3.6-6.6,3.2
		c-3-0.4-5.1-1.9-6.1-4.9c-0.8-2.3-0.9-4.5-0.2-6.8c0.8-2.7,2.3-4.9,5.1-5.4c2.9-0.6,5.9-0.5,7.6,2.8c0.3,0.5,0.8,1.1,1.2,1.2
		c0.8,0.1,1.7-0.1,2.4-0.5c0.3-0.2,0.3-1.3,0.2-1.9c-0.2-0.7-0.6-1.3-1.1-1.8c-5.3-5.3-14.8-3.5-17.9,1.9c-1.4,2.5-1.8,5.2-1.7,8
		C65.9,37.4,69.9,41.4,76.4,41.4z M503.8,138.2c0.3,0.7,0.4,1.8,0.9,2.3c1.9,1.6,3.8,3.1,5.9,4.5c0.6,0.4,1.8,0.5,2.3,0.2
		c2.2-1.4,4.3-3,6.2-4.7c1-0.9,1-3.8,0.2-3.9c-0.8-0.1-1.7,0.6-2.6,0.9c-0.3,0.1-0.5,0.3-0.8,0.4c-1.2,0.7-1.5,0.1-1.5-1
		c0-2.6,0.1-5.2,0-7.9c-0.1-2.1-1.1-2.9-3-2.7c-1.7,0.2-2.1,1.3-2.1,2.8c0,2.6,0,5.2,0,7.9c0,1.3-0.5,1.5-1.6,0.8
		c-0.5-0.3-0.9-0.7-1.5-0.9s-1.3-0.5-1.9-0.3C504.1,136.6,504,137.5,503.8,138.2z M290.8,145.8c2.3,0.1,2.7-0.3,2.8-2.8
		c0.1-1.6,0-3.2,0-4.8c0-1.4,0.2-2.9,0.3-4.3c1.1,0.7,2.2,1.3,3.4,2c0.4,0.2,0.8,0.3,1.2,0.5c0.2-0.5,0.6-1.1,0.4-1.6
		c-0.3-1.1-0.5-2.3-1.2-3.1c-1.5-1.5-3.4-2.8-5.1-4.1c-1.1-0.8-2.2-0.7-3.2,0.1c-1.6,1.2-3.3,2.4-4.8,3.8c-0.7,0.6-1.2,1.6-1.4,2.5
		c-0.2,0.7,0.3,1.6,0.5,2.4c0.7-0.3,1.4-0.5,2-0.8c0.6-0.4,1.1-0.9,1.7-1.3c0.7-0.5,1-0.1,1,0.6c0,2.8,0,5.5,0.1,8.3
		C288.5,145.4,288.8,145.7,290.8,145.8z M404.8,127.2c-2.2,0-2.6,0.6-1.8,2c0.4,0.6,0.8,1.2,1.2,1.8c0.9,1.6,0.7,2-1.1,2.1
		c-2.8,0.1-5.5,0-8.3,0c-1.4,0-2.1,0.6-2.1,2.1c0,1.6,0.4,2.5,2.2,2.5c2.5,0,5,0,7.4,0c0.8,0,1.6,0.4,2.4,0.6
		c-0.3,0.6-0.6,1.3-0.9,1.9c-0.1,0.2-0.4,0.4-0.6,0.7c-0.2,0.5-0.4,1-0.6,1.6c0.7,0.2,1.4,0.7,2,0.6c0.9-0.1,2.1-0.4,2.7-1.1
		c1.6-1.7,3-3.6,4.4-5.4c0.3-0.4,0.5-1.3,0.3-1.6c-1.7-2.5-3.6-4.9-5.5-7.3C406,127.2,405.1,127.3,404.8,127.2z M43.3,18.4
		L43.3,18.4c-2.3,0.1-4.7,0-7,0.1c-0.4,0-1,0.7-1.1,1.1c-0.1,0.4,0.2,1.3,0.6,1.4c0.9,0.4,1.9,0.7,2.9,0.8c1.4,0.1,2.9,0,4.4,0.1
		c2.4,0.1,2.6,0.4,1.3,2.4c-2.7,4.4-4.8,8.9-5.5,14.1c-0.1,1.1-0.9,2.3,0.7,2.9c1.5,0.6,2.4-0.2,3-2.2c0.1-0.3,0.2-0.6,0.2-0.8
		c0.9-5.9,3.5-11,7-15.8c0.3-0.5,0.7-0.9,0.9-1.5c0.6-1.5-0.1-2.6-1.7-2.6C47.1,18.3,45.2,18.4,43.3,18.4z M547.8,143
		c4.1,0,8-3.7,7.9-7.7s-3.9-7.9-7.8-7.9c-3.9-0.1-7.8,3.8-8,7.8C539.8,139.1,543.7,143,547.8,143z M334.8,135.5
		c0.1-4.2-3.4-7.9-7.6-8.1c-3.8-0.2-8.1,3.8-8.2,7.6c-0.1,4.1,3.5,7.9,7.7,8C330.8,143.1,334.8,139.5,334.8,135.5z M446.3,134.5
		c0-4.2-3.4-8-7.5-8.2c-3.7-0.1-8.1,3.9-8.2,7.7c-0.1,4,4,8.1,8.1,8.1C441.9,142.2,446.8,138.2,446.3,134.5z M28.8,29.9L28.8,29.9
		c0-3.3,0.1-6.7-0.1-10c0-0.7-0.7-1.5-1.4-2c-0.2-0.2-1.2,0.5-1.7,1c-1.5,1.3-3,2.6-4.5,4c-0.5,0.5-1.2,0.9-1.6,1.4
		c-0.2,0.4-0.2,1.2,0,1.6s1,0.6,1.5,0.5c1-0.3,1.8-0.8,2.8-1.3c0.9-0.4,1.3,0,1.4,0.9c0.1,1,0,2,0,3.1c0,3.5,0,7,0,10.5
		c0,1.2,0.4,2,1.7,2s1.8-0.8,1.8-1.9C28.8,36.3,28.8,33.1,28.8,29.9z M57.1,27.1c2.4,0.1,5-2.2,5.1-4.5c0.1-2.4-2.2-4.8-4.7-4.9
		c-2.4-0.1-5,2.2-5.1,4.5C52.4,24.6,54.6,27,57.1,27.1z M359.7,148.3c-1.7,0-3.7,2.1-3.6,3.7c0.1,1.4,2.2,3.2,3.6,3.2
		c1.6,0,3.2-1.8,3.2-3.5C362.9,150,361.2,148.3,359.7,148.3z M467,148.4c-1.7,0.1-3.3,1.8-3.3,3.4c0,1.7,1.7,3.4,3.3,3.4
		c1.8-0.1,3.6-1.6,3.6-3.1C470.6,150.3,468.6,148.3,467,148.4z"/>
	<path d="M411.5,242c-42.5,0-85,0-127.5,0c-1.5,0-2.9,0-4.4-0.2c-0.3,0-0.7-0.6-0.7-0.9c0.1-0.5,0.4-1,0.8-1.3
		c0.3-0.2,0.8-0.2,1.3-0.2c1,0,2,0,3.1,0c85.3,0,170.6,0,255.9,0c1.5,0,2.9,0,4.4,0.2c0.3,0,0.7,0.6,0.7,0.9
		c-0.1,0.5-0.4,1.3-0.7,1.3c-1.3,0.2-2.6,0.2-3.9,0.2c-39.6,0-79.2,0-118.8,0C418.2,242,414.9,242,411.5,242z"/>
	<path d="M517.9,344.2c0-3.4,0-6.7,0-10.1c0-2.3-0.1-2.4-2.5-2.4c-6.3,0-12.5,0-18.8,0c-1,0-2.1,0.2-3-0.1c-0.7-0.2-1.5-0.9-1.7-1.5
		c-0.4-1,0.1-2.1,1.3-2.4c1.3-0.3,2.6-0.5,3.9-0.5c6.1-0.1,12.3,0,18.4,0c2.4,0,2.5-0.1,2.5-2.5c0.1-6.1,0-12.3,0-18.4
		c0-1,0-2,0-3.1c0-1.3,0.9-1.6,2.1-1.7c1.3,0,2.4,0.2,2.4,1.8c0,3.5,0,7,0,10.5s0,7,0,10.5c0,2.6,0.1,2.7,2.7,2.7c6,0.1,12,0,17.9,0
		c1.2,0,2.3,0,3.5,0.3c1.4,0.3,1.7,1.6,1.3,2.8c-0.2,0.6-1.2,1.3-1.8,1.3c-5.4,0.1-10.8,0.1-16.2,0.1c-1.6,0-3.2,0-4.8,0
		c-1.8-0.1-2.7,0.7-2.6,2.6c0,4.2,0,8.5,0,12.7c0,2.8,0,5.5,0,8.3c0,1.5-0.3,2.6-2.1,2.6c-1.9,0-2.3-0.4-2.4-2.7
		C517.9,351.5,517.9,347.8,517.9,344.2z"/>
	<path d="M410.5,156.9c2.9,0.6,7,1.2,10.9,2.2c1.8,0.5,2.7-0.1,3.5-1.5c1.8-3.2,3.6-6.3,5.5-9.4c1.5-2.5,3.7-3.8,6.5-3.5
		c2.9,0.3,5.3,1.6,6.3,4.7c0.6,1.9,0.5,3.7-0.4,5.5c-2.7,5.2-5.4,10.3-8.2,15.4c-1,1.8-2.6,2.8-4.7,2.6c-1.3-0.1-2.6-0.2-3.9-0.5
		c-4-0.9-7.9-1.8-11.8-2.9c-2.9-0.8-5-0.2-6.9,2.2c-2,2.5-4.1,5-6.5,7.1c-3.7,3.3-8.6,1.4-9.6-3.4c-0.3-1.7,0.3-2.9,1.3-4
		c2.2-2.6,4.4-5,6.6-7.5c1.3-1.4,2.7-2.7,3.8-4.2C404.7,157.5,406.8,156.8,410.5,156.9z M440,152.4c0-3.2-1-4.1-3.5-4.2
		c-1.8-0.1-2.9,0.8-3.8,2.4c-1.8,3.3-3.8,6.5-5.7,9.8c-0.8,1.4-2,2.1-3.6,2c-1.2,0-2.3,0-3.5-0.2c-3.1-0.6-6.3-1.1-9.4-2
		c-1.8-0.5-3.1-0.3-4.3,1.1c-3.6,4-7.3,7.9-10.9,11.9c-0.9,1-1.2,2.1-0.2,3.1c1,1.1,2.4,1.1,3.6,0.2c0.8-0.6,1.5-1.4,2.2-2.1
		c2-2.2,3.9-4.4,5.8-6.5c1.8-2,4-2.6,6.7-1.8c4.8,1.3,9.6,2.4,14.4,3.6c2.7,0.7,3.2,0.5,4.5-2c2.3-4.2,4.6-8.5,6.8-12.7
		C439.6,153.9,439.9,152.8,440,152.4z"/>
	<path d="M317.8,174c-2.3-0.5-4.6-0.9-6.8-1.4c-2.8-0.7-5.6-1.5-8.4-2.2c-2.4-0.6-4.5-0.4-6.2,1.8c-1.9,2.4-4,4.6-6.1,6.8
		c-1.8,1.9-3.8,3.1-6.6,1.9c-3.6-1.5-4.8-4.8-2.9-8.1c0.7-1.2,1.7-2.4,2.7-3.4c2.5-2.8,5.1-5.6,7.6-8.5c2.4-2.9,5.4-3.8,9-3
		c3.3,0.7,6.5,1.3,9.8,2.2c1.9,0.5,2.9-0.1,3.8-1.8c1.7-3.2,3.5-6.4,5.5-9.4c3.5-5.4,9.8-3.9,12.3,1c0.8,1.5,1.1,3,0.3,4.6
		c-3,5.7-5.9,11.4-8.9,17C321.7,173.5,319.9,173.9,317.8,174z M299.2,166.4c1.2,0.4,1.9,0.6,2.6,0.8c4.9,1.2,9.9,2.3,14.8,3.6
		c1.9,0.5,3,0,3.9-1.7c1.2-2.3,2.5-4.6,3.7-6.9c1.4-2.6,2.7-5.2,4-7.8c0.7-1.4,0.5-2.8-0.6-4c-1.2-1.2-2.6-1.4-4-0.9
		c-0.8,0.3-1.6,1.2-2.1,2c-1.9,3.1-3.8,6.2-5.5,9.4c-1,2-2.5,2.8-4.6,2.6c-1.3-0.1-2.6-0.1-3.9-0.4c-2.9-0.5-5.8-0.9-8.5-1.7
		c-2.2-0.7-3.6,0-5,1.5c-2.3,2.6-4.7,5.2-7.1,7.8c-1.2,1.3-2.3,2.6-3.2,4.1c-0.4,0.6-0.4,2,0,2.4c0.6,0.6,1.8,0.9,2.7,0.8
		c0.7-0.1,1.4-0.9,2-1.5c2.3-2.4,4.5-5,6.9-7.3C296.4,167.9,298,167.1,299.2,166.4z"/>
	<path d="M538.5,174.1c-3.5-0.8-7.1-1.7-10.6-2.5c-1.8-0.4-3.7-0.9-5.5-1.3c-1.8-0.4-3.4,0-4.7,1.5c-2,2.3-4,4.6-6.2,6.8
		c-3.8,3.7-6.7,3.8-9.7,0.4c-1.6-1.8-1.8-3.6-0.6-5.6c0.8-1.4,1.9-2.6,2.9-3.8c2.3-2.6,4.7-5.2,7-7.8c2.9-3.5,6.3-4.9,10.8-3.5
		c2.7,0.9,5.7,1,8.5,1.8c2,0.5,3.1-0.2,3.9-1.8c1.4-2.4,2.7-4.8,4.1-7.2c0.7-1.1,1.3-2.3,2.2-3.2c2.6-2.7,5.8-3.1,8.7-1.2
		c2.9,1.9,4.2,5.1,2.8,8.3c-1.6,3.7-3.6,7.3-5.4,11c-0.8,1.6-1.8,3-2.6,4.6C543,173,541.2,174,538.5,174.1z M518.7,161
		c-1.8-0.3-3,0.7-4.1,1.9c-2.8,3-5.5,6-8.2,9.1c-0.8,0.9-1.6,1.8-2,2.8c-0.3,0.8,0,2.4,0.5,2.6c0.9,0.4,2.1,0.1,3.2,0
		c0.3,0,0.5-0.7,0.8-1c2.3-2.4,4.7-4.8,7-7.3c2-2,4-2.9,7-2c4.7,1.4,9.6,2.3,14.4,3.5c1.9,0.5,3.2,0,4-1.6c2.6-4.7,5.1-9.5,7.5-14.3
		c1.2-2.4,0.6-4.3-1.3-5.3c-1.8-0.9-3.9-0.4-5.2,1.7c-1.8,2.8-3.7,5.6-5.1,8.6c-1.3,2.8-3.3,3.9-6.2,3.5c-1.1-0.2-2.3-0.4-3.4-0.6
		C524.7,162.1,521.7,161.5,518.7,161z"/>
	<path d="M145.4,97.3c2.8,0.2,4.6,1.2,6,2.8c3.4,3.8,6.9,7.5,10.2,11.4c5.2,5.9,10.3,11.9,15.4,17.8c0.6,0.7,1.2,1.3,1.8,1.9
		c0.7,0.7,0.8,1.5,0,2.3c-0.9,0.8-1.8,0.9-2.7,0.1c-0.3-0.3-0.5-0.7-0.8-1c-7.4-8.4-14.7-16.9-22.1-25.3c-1.4-1.6-2.7-3.4-4.3-5
		c-1.9-1.9-3.4-1.9-5.3,0c-3.2,3.4-6.2,6.9-9.3,10.4c-5.9,6.8-11.9,13.6-17.7,20.4c-1,1.2-1.9,1.3-2.9,0.3c-1.1-1-0.3-1.8,0.4-2.6
		c6.2-7.1,12.4-14.3,18.7-21.4c2.8-3.2,5.5-6.4,8.5-9.4C142.5,98.8,144.3,98.1,145.4,97.3z"/>
	<path d="M678.7,100.7c-1.1,0.7-2.3,1.2-3.2,2.2c-6.1,7-12.2,14.1-18.3,21.2c-2.5,2.9-5,5.7-7.5,8.6c-0.4,0.4-0.8,0.9-1.3,1.2
		c-0.5,0.2-1.3,0.3-1.5,0c-0.4-0.4-0.9-1.3-0.8-1.8c0.3-0.9,1-1.8,1.6-2.6c6.6-7.6,13.3-15.1,19.9-22.7c1.9-2.2,3.7-4.5,5.8-6.6
		c4.2-4.3,8-3,11,0.3c6.3,6.9,12.3,14,18.4,21.1c2.7,3.1,5.3,6.2,7.9,9.3c0.4,0.4,0.8,0.9,0.9,1.4c0,0.5-0.4,1.2-0.8,1.4
		c-0.6,0.2-1.5,0.2-1.9-0.1c-1.4-1.3-2.7-2.7-3.9-4.1c-7.5-8.6-14.9-17.1-22.4-25.7c-0.6-0.7-1.2-1.3-1.9-1.8
		C680.3,101.5,679.6,101.2,678.7,100.7z"/>
	<path d="M678.5,376.8c-2.2-0.5-4.2-1.6-5.8-3.4c-2.2-2.5-4.4-5-6.6-7.5c-6-6.9-12.1-13.8-18.1-20.8c-0.8-0.9-1.4-1.9-1.9-2.9
		c-0.2-0.3,0.3-1.1,0.7-1.4s1.2-0.4,1.5-0.2c0.7,0.4,1.4,1.1,1.9,1.7c8.3,9.6,16.6,19.1,24.9,28.7c2.7,3.1,4.3,3.2,7.1,0.1
		c5.3-5.8,10.4-11.8,15.6-17.7c3.4-3.8,6.7-7.7,10.1-11.5c0.5-0.5,1-1.1,1.6-1.4c0.4-0.2,1.3,0,1.5,0.3c0.4,0.5,0.7,1.5,0.5,1.8
		c-1.1,1.7-2.4,3.3-3.8,4.8c-7.5,8.7-15.1,17.3-22.6,26C683.3,375.4,681.1,376.3,678.5,376.8z"/>
	<path d="M179.5,341.4c-0.5,0.9-0.8,1.7-1.3,2.3c-1.7,2-3.4,4-5.1,6c-6.5,7.5-13,14.9-19.6,22.3c-0.8,0.9-1.6,1.7-2.4,2.5
		c-3,2.7-6.3,2.8-9.3,0.1c-1.5-1.4-2.9-2.9-4.3-4.4c-7.8-8.9-15.5-17.8-23.2-26.7c-0.5-0.6-1-1.5-0.9-2.2c0.2-1.3,2.1-1.5,3.1-0.4
		c4.2,4.7,8.3,9.4,12.4,14.1c4.6,5.3,9.1,10.6,13.8,15.8c3,3.3,4.5,3.3,7.5-0.1c6.5-7.4,12.9-15,19.4-22.5c2.2-2.5,4.4-5.1,6.6-7.5
		c0.4-0.4,1.3-0.6,1.9-0.5C178.5,340.4,178.9,341,179.5,341.4z"/>
	<path d="M302.2,331.7c-8.2,0-16.3,0-24.5,0c-1.3,0-3.1,0.6-3.4-1.7c-0.2-1.7,0.7-2.5,3.1-2.8c0.9-0.1,1.7,0,2.6,0
		c15.1,0,30.3,0,45.4,0c0.9,0,1.8,0,2.6,0c1.5,0.1,2.4,0.8,2.4,2.5c0,1.9-1.2,2-2.6,2c-7.4,0-14.8,0-22.3,0
		C304.5,331.7,303.4,331.7,302.2,331.7z"/>
	<path d="M676.6,288.9c0-7.1,0-14.3,0-21.4c0-2.3,0.5-2.7,2.4-2.7c1.5,0,2.1,0.7,2.1,2.1c0,0.9,0,1.7,0,2.6c0,12.8,0,25.6,0,38.5
		c0,1,0.1,2.1-0.1,3.1c-0.2,1.4-1.4,2.1-2.9,1.9c-1.4-0.2-1.5-1.2-1.5-2.2c0-3.5,0-7,0-10.5C676.6,296.4,676.6,292.6,676.6,288.9z"
		/>
	<path d="M148.3,176.9c0,7.1,0,14.3,0,21.4c0,1.5-0.3,2.6-2.1,2.6c-1.6,0-2.5-0.5-2.4-2.2c0.1-2.6,0-5.2,0-7.9c0-10.9,0-21.9,0-32.8
		c0-1,0-2,0-3.1c0.1-1.6,1.1-2.3,2.6-2.2c1.6,0,1.9,1.1,1.9,2.4c0,3.8,0,7.6,0,11.4C148.3,169.9,148.3,173.4,148.3,176.9z"/>
	<path d="M148.3,289c0,7.2,0,14.3,0,21.5c0,2.1-1.4,3.1-3,2.3c-0.7-0.3-1.2-1.2-1.4-2s-0.1-1.7-0.1-2.6c0-12.8,0-25.7,0-38.5
		c0-0.9,0-1.8,0-2.6c0.1-1.6,1.1-2.3,2.6-2.2c1.6,0,1.9,1.1,1.9,2.4c0,4.1,0,8.2,0,12.3C148.3,282.6,148.3,285.8,148.3,289z"/>
	<path d="M676.6,177.2c0-6.6,0-13.1,0-19.7c0-1-0.2-2.2,0.2-3c0.3-0.7,1.4-1.5,2.2-1.6c0.6-0.1,1.5,0.7,1.9,1.4
		c0.3,0.5,0.2,1.4,0.2,2.1c0,13.9,0,27.7,0,41.6c0,0.4,0,0.9,0,1.3c-0.1,1.6-1.3,1.6-2.5,1.6c-1.3,0-1.9-0.6-1.9-1.8
		c0-3.9,0-7.9,0-11.8C676.6,183.9,676.6,180.5,676.6,177.2z"/>
	<path d="M660.6,20.8c1.4,0.1,2.3-0.6,3.2-1.7c1.7-2.1,3.1-2,4.9,0c1,1.2,1.9,1.8,3.6,1.6c2.3-0.4,3.5,0.9,3.1,3.1
		c-0.3,1.8,0.4,2.6,1.5,3.6c2.1,1.8,2,3.1,0,4.9c-1.2,1-1.9,1.9-1.5,3.7c0.4,2.2-1,3.6-3.1,3.1c-1.8-0.4-2.6,0.1-3.6,1.4
		c-1.5,2-3.3,2.1-4.9,0.1c-1.2-1.5-2.1-1.9-4-1.4c-1.7,0.5-3.3-1.3-2.8-3.1c0.6-2.1-0.1-3.2-1.7-4.3c-1.8-1.2-1.8-2.8-0.1-4.2
		c1.5-1.2,2.4-2.1,1.7-4.3C656.4,21.6,657.8,20.7,660.6,20.8z M666.5,22c-4.6,0-8.1,3.4-8.1,7.8c0,4.2,3.4,7.8,7.6,7.9
		c4.5,0.1,8.1-3.4,8-7.9C674,25.4,670.8,22,666.5,22z"/>
	<path d="M76.4,41.4c-6.5,0-10.6-4-10.9-10.5c-0.1-2.8,0.2-5.4,1.7-8c3.1-5.4,12.5-7.2,17.9-1.9c0.5,0.5,0.9,1.2,1.1,1.8
		c0.2,0.6,0.2,1.6-0.2,1.9c-0.6,0.4-1.6,0.6-2.4,0.5c-0.4,0-0.9-0.7-1.2-1.2c-1.7-3.2-4.7-3.3-7.6-2.8c-2.8,0.5-4.3,2.7-5.1,5.4
		c-0.7,2.3-0.6,4.6,0.2,6.8c1,3,3.1,4.5,6.1,4.9c2.8,0.3,5.2-0.5,6.6-3.2c0.2-0.4,0.3-1,0.6-1.1c0.9-0.3,1.9-0.8,2.7-0.6
		c1.2,0.4,1.1,1.7,0.6,2.6c-1.7,2.9-4,5-7.5,5.3C78.2,41.5,77.3,41.4,76.4,41.4z"/>
	<path d="M503.8,138.2c0.2-0.7,0.3-1.6,0.6-1.7c0.6-0.1,1.3,0.1,1.9,0.3c0.5,0.2,1,0.6,1.5,0.9c1,0.7,1.6,0.5,1.6-0.8
		c0-2.6,0-5.2,0-7.9c0-1.5,0.5-2.6,2.1-2.8c1.9-0.2,3,0.5,3,2.7c0.1,2.6,0,5.2,0,7.9c0,1.1,0.3,1.7,1.5,1c0.2-0.2,0.5-0.3,0.8-0.4
		c0.9-0.4,1.8-1.1,2.6-0.9c0.8,0.2,0.8,3-0.2,3.9c-2,1.7-4.1,3.3-6.2,4.7c-0.5,0.3-1.7,0.2-2.3-0.2c-2-1.4-4-2.9-5.9-4.5
		C504.2,139.9,504.1,138.9,503.8,138.2z"/>
	<path d="M290.8,145.8c-2-0.1-2.4-0.4-2.4-2.7c-0.1-2.8,0-5.5-0.1-8.3c0-0.7-0.3-1.1-1-0.6c-0.6,0.4-1.1,1-1.7,1.3
		c-0.6,0.4-1.3,0.6-2,0.8c-0.2-0.8-0.6-1.7-0.5-2.4c0.2-0.9,0.8-1.9,1.4-2.5c1.5-1.4,3.2-2.6,4.8-3.8c1-0.8,2.2-0.8,3.2-0.1
		c1.7,1.3,3.6,2.6,5.1,4.1c0.7,0.7,1,2,1.2,3.1c0.1,0.5-0.3,1.1-0.4,1.6c-0.4-0.2-0.8-0.3-1.2-0.5c-1.1-0.6-2.2-1.3-3.4-2
		c-0.1,1.4-0.3,2.9-0.3,4.3c-0.1,1.6,0,3.2,0,4.8C293.5,145.5,293.1,145.8,290.8,145.8z"/>
	<path d="M404.8,127.2c0.3,0.1,1.2,0,1.6,0.4c1.9,2.4,3.7,4.8,5.5,7.3c0.2,0.3,0,1.2-0.3,1.6c-1.4,1.9-2.8,3.8-4.4,5.4
		c-0.6,0.6-1.7,0.9-2.7,1.1c-0.6,0.1-1.3-0.4-2-0.6c0.2-0.5,0.4-1.1,0.6-1.6c0.1-0.3,0.4-0.4,0.6-0.7c0.3-0.6,0.6-1.2,0.9-1.9
		c-0.8-0.2-1.6-0.5-2.4-0.6c-2.5-0.1-5-0.1-7.4,0c-1.8,0-2.2-0.9-2.2-2.5c0-1.5,0.7-2.1,2.1-2.1c2.8,0,5.5,0,8.3,0
		c1.8,0,2-0.4,1.1-2.1c-0.4-0.6-0.8-1.2-1.2-1.8C402.2,127.8,402.6,127.2,404.8,127.2z"/>
	<path d="M43.3,18.4c1.9,0,3.8-0.1,5.7,0c1.6,0.1,2.3,1.2,1.7,2.6c-0.2,0.5-0.6,1-0.9,1.5c-3.5,4.7-6.1,9.8-7,15.8
		c0,0.3-0.1,0.6-0.2,0.8c-0.6,2.1-1.5,2.8-3,2.2c-1.6-0.6-0.8-1.8-0.7-2.9c0.7-5.2,2.9-9.7,5.5-14.1c1.2-2,1.1-2.3-1.3-2.4
		c-1.5-0.1-2.9,0.1-4.4-0.1c-1-0.1-2-0.4-2.9-0.8c-0.4-0.2-0.7-1-0.6-1.4c0.1-0.4,0.7-1.1,1.1-1.1C38.6,18.4,41,18.5,43.3,18.4
		L43.3,18.4z"/>
	<path d="M547.8,143c-4.1,0-8-3.9-7.8-7.8c0.1-4,4.1-7.9,8-7.8c3.9,0.1,7.8,3.9,7.8,7.9C555.8,139.3,551.9,143.1,547.8,143z
		 M552.2,135.5c0-2.7-1.6-4.6-4.1-4.7c-2.6-0.1-4.6,1.9-4.6,4.7c0,2.5,1.5,4,4.1,4.1C550.5,139.6,552.2,138.1,552.2,135.5z"/>
	<path d="M334.8,135.5c-0.1,4-4,7.7-8.1,7.5c-4.1-0.1-7.8-3.9-7.7-8c0.1-3.8,4.4-7.8,8.2-7.6C331.4,127.6,334.9,131.3,334.8,135.5z
		 M327.1,139.5c2.8-0.1,4.2-1.5,4.2-4.4c0-2.8-1.6-4.4-4.2-4.4c-2.8,0.1-4.6,1.9-4.5,4.7C322.6,138.1,324.3,139.6,327.1,139.5z"/>
	<path d="M446.3,134.5c0.6,3.7-4.3,7.6-7.5,7.6c-4.1,0-8.3-4.1-8.1-8.1c0.1-3.8,4.4-7.8,8.2-7.7
		C442.8,126.5,446.3,130.3,446.3,134.5z M442.7,134.2c0-2.9-1.6-4.4-4.3-4.3c-2.4,0.1-4.5,2.3-4.4,4.5c0.1,2.7,1.8,4.2,4.5,4.2
		C441.4,138.6,442.8,137.1,442.7,134.2z"/>
	<path d="M28.8,29.9c0,3.2,0,6.4,0,9.6c0,1.2-0.5,1.9-1.8,1.9s-1.7-0.8-1.7-2c0-3.5,0-7,0-10.5c0-1,0-2,0-3.1c0-0.9-0.4-1.4-1.4-0.9
		c-0.9,0.4-1.8,1-2.8,1.3c-0.4,0.1-1.2-0.1-1.5-0.5s-0.3-1.2,0-1.6c0.3-0.6,1-1,1.6-1.4c1.5-1.3,3-2.7,4.5-4c0.5-0.4,1.5-1.1,1.7-1
		c0.6,0.4,1.3,1.3,1.4,2C28.8,23.2,28.8,26.6,28.8,29.9L28.8,29.9z"/>
	<path d="M57.1,27.1c-2.5-0.1-4.8-2.5-4.7-4.9c0.1-2.3,2.7-4.6,5.1-4.5c2.5,0.1,4.8,2.5,4.7,4.9C62.1,25,59.5,27.3,57.1,27.1z
		 M59.5,22.5c0-1.2-1-2.2-2.2-2.1c-1.2,0-2.4,1.2-2,2.2c0.3,0.8,1.2,1.6,1.9,1.8C58.4,24.8,59.5,23.7,59.5,22.5z"/>
	<path d="M359.7,148.3c1.6,0,3.3,1.7,3.3,3.4s-1.6,3.5-3.2,3.5c-1.5,0-3.5-1.8-3.6-3.2C355.9,150.5,358,148.4,359.7,148.3z"/>
	<path d="M467,148.4c1.6-0.1,3.6,1.9,3.6,3.7c0,1.5-1.8,3.1-3.6,3.1c-1.6,0-3.3-1.7-3.3-3.4C463.7,150.2,465.3,148.5,467,148.4z"/>
	<path fill="#FFFFFF" d="M440,152.4c-0.1,0.4-0.4,1.6-0.9,2.6c-2.2,4.3-4.5,8.5-6.8,12.7c-1.4,2.5-1.8,2.7-4.5,2
		c-4.8-1.2-9.6-2.3-14.4-3.6c-2.7-0.8-4.9-0.1-6.7,1.8c-2,2.1-3.9,4.3-5.8,6.5c-0.7,0.8-1.4,1.6-2.2,2.1c-1.2,0.8-2.5,0.9-3.6-0.2
		c-1-1-0.7-2.2,0.2-3.1c3.6-4,7.3-7.9,10.9-11.9c1.2-1.3,2.5-1.6,4.3-1.1c3.1,0.9,6.2,1.4,9.4,2c1.1,0.2,2.3,0.2,3.5,0.2
		c1.6,0.1,2.7-0.6,3.6-2c1.9-3.3,3.9-6.5,5.7-9.8c0.9-1.6,2-2.4,3.8-2.4C439,148.2,440,149.2,440,152.4z"/>
	<path fill="#FFFFFF" d="M299.2,166.4c-1.2,0.8-2.8,1.5-4,2.6c-2.4,2.3-4.6,4.9-6.9,7.3c-0.6,0.6-1.3,1.4-2,1.5
		c-0.9,0.1-2-0.2-2.7-0.8c-0.4-0.4-0.4-1.8,0-2.4c0.9-1.5,2.1-2.8,3.2-4.1c2.3-2.6,4.7-5.2,7.1-7.8c1.4-1.5,2.8-2.2,5-1.5
		c2.8,0.8,5.7,1.2,8.5,1.7c1.3,0.2,2.6,0.3,3.9,0.4c2.1,0.2,3.5-0.6,4.6-2.6c1.7-3.2,3.6-6.3,5.5-9.4c0.5-0.8,1.3-1.7,2.1-2
		c1.4-0.5,2.9-0.3,4,0.9c1.2,1.2,1.3,2.6,0.6,4c-1.2,2.6-2.6,5.2-4,7.8c-1.2,2.3-2.6,4.6-3.7,6.9c-0.9,1.7-2,2.2-3.9,1.7
		c-4.9-1.3-9.9-2.4-14.8-3.6C301.1,167,300.4,166.7,299.2,166.4z"/>
	<path fill="#FFFFFF" d="M518.7,161c3,0.6,6,1.2,9,1.7c1.1,0.2,2.3,0.4,3.4,0.6c3,0.5,4.9-0.6,6.2-3.5c1.4-3,3.3-5.8,5.1-8.6
		c1.3-2,3.4-2.6,5.2-1.7c1.9,1,2.5,2.9,1.3,5.3c-2.4,4.8-5,9.6-7.5,14.3c-0.9,1.6-2.1,2.1-4,1.6c-4.8-1.3-9.7-2.1-14.4-3.5
		c-3-0.9-5.1,0-7,2c-2.3,2.4-4.7,4.8-7,7.3c-0.3,0.3-0.5,1-0.8,1c-1.1,0.2-2.3,0.4-3.2,0c-0.5-0.2-0.8-1.8-0.5-2.6
		c0.3-1.1,1.2-2,2-2.8c2.7-3.1,5.4-6.1,8.2-9.1C515.7,161.6,516.9,160.7,518.7,161z"/>
	<path fill="#FFFFFF" d="M666.5,22c4.3,0,7.5,3.4,7.5,7.8c0,4.5-3.6,8-8,7.9c-4.2-0.1-7.6-3.6-7.6-7.9C658.4,25.4,662,22,666.5,22z
		 M666.4,33.6c2.2-0.1,4-1.8,3.9-3.8s-2.6-4.2-4.4-4c-2.1,0.2-3.5,2-3.4,4.3C662.6,32.5,663.8,33.6,666.4,33.6z"/>
	<path fill="#FFFFFF" d="M552.2,135.5c0,2.7-1.7,4.1-4.6,4c-2.6-0.1-4.1-1.5-4.1-4.1c0-2.8,2-4.8,4.6-4.7
		C550.6,130.9,552.3,132.8,552.2,135.5z"/>
	<path fill="#FFFFFF" d="M327.1,139.5c-2.9,0.1-4.5-1.4-4.6-4c0-2.8,1.7-4.7,4.5-4.7c2.7-0.1,4.2,1.5,4.2,4.4
		C331.3,138,329.9,139.4,327.1,139.5z"/>
	<path fill="#FFFFFF" d="M442.7,134.2c0,2.9-1.3,4.4-4.2,4.4c-2.7,0-4.4-1.6-4.5-4.2c-0.1-2.3,2-4.4,4.4-4.5
		C441.1,129.8,442.7,131.3,442.7,134.2z"/>
	<path fill="#FFFFFF" d="M59.5,22.5c0,1.2-1.1,2.3-2.3,2c-0.8-0.2-1.7-1.1-1.9-1.8c-0.4-1.1,0.8-2.2,2-2.2
		C58.5,20.3,59.5,21.2,59.5,22.5z"/>
	<path d="M666.4,33.6c-2.6,0.1-3.8-1-3.9-3.5c-0.1-2.3,1.3-4.1,3.4-4.3c1.9-0.2,4.3,2.1,4.4,4C670.4,31.8,668.7,33.5,666.4,33.6z"/>
</g>
</svg>
