
<svg version="1.1" id="Capa_1" xmlns="http://www.w3.org/2000/svg" xmlns:xlink="http://www.w3.org/1999/xlink" x="0px" y="0px"
	 viewBox="0 0 841.9 595.3" style="enable-background:new 0 0 841.9 595.3;" xml:space="preserve">
<style type="text/css">
	.st0{fill:#FFFFFF;}
</style>
<g>
	<path class="st0" d="M420.6,551.7c-136.5,0-272.9,0-409.4,0c-1,0-2.1-0.1-3.1,0c-0.8,0.1-1-0.1-0.9-0.9c0.1-1,0-2,0-3.1
		c0-168.3,0-336.6,0-505c0-1.3-0.5-3.1,0.1-3.8s2.5-0.1,3.8-0.1c272.9,0,545.9,0,818.8,0c1.3,0,2.6,0,3.9,0c0,1.3,0,2.6,0,3.9
		c0,168.3,0,336.6,0,505c0,1.3,0,2.6,0,3.9c-1.3,0-2.6,0-3.9,0C693.6,551.7,557.1,551.7,420.6,551.7z M421,548.1
		c135.3,0,270.6,0,405.8,0c6.1,0,5.3,0.7,5.3-5.4c0-164.9,0-329.9,0-494.8c0-6.4,0.9-5.5-5.6-5.5c-85.9,0-171.8,0-257.7,0
		c-184.1,0-368.1,0-552.2,0c-1.3,0-2.6,0-3.9,0c-1.2,0-1.9,0.5-1.9,1.8c0,1,0,2,0,3.1c0,14.2,0,28.3,0,42.5c0,3.3-0.5,6.6-0.7,10
		c-0.1,0.7,0,1.5,0,2.2c0.2,2.4,0.7,4.9,0.7,7.3c0,144.3,0,288.7,0,433c0,6.7-1,5.9,5.7,5.9C151.3,548.1,286.2,548.1,421,548.1z"/>
	<path d="M421,548.1c-134.8,0-269.7,0-404.5,0c-6.7,0-5.7,0.8-5.7-5.9c0-144.3,0-288.7,0-433c0-2.4-0.5-4.9-0.7-7.3
		c-0.1-0.7-0.1-1.5,0-2.2c0.2-3.3,0.7-6.6,0.7-10c0.1-14.2,0-28.3,0-42.5c0-1,0-2,0-3.1c0-1.3,0.7-1.8,1.9-1.8c1.3,0,2.6,0,3.9,0
		c184.1,0,368.1,0,552.2,0c85.9,0,171.8,0,257.7,0c6.4,0,5.6-0.8,5.6,5.5c0,164.9,0,329.9,0,494.8c0,6.1,0.8,5.4-5.3,5.4
		C691.6,548.1,556.3,548.1,421,548.1z M421.2,465.9c134.3,0,268.5,0,402.8,0c6.3,0,5.6,0.6,5.6-5.7c0-116.4,0-232.9,0-349.3
		c0-3,0.5-6.1-0.7-9.1c-0.2-0.5,0-1.2,0-1.7c0.2-2.3,0.7-4.6,0.7-6.9c0.1-14.2,0-28.3,0-42.5c0-5.7,0-5.7-5.9-5.7
		C555.4,45,287,45,18.6,45c-1,0-2,0-3.1,0c-1.4,0-2.2,0.6-2.1,2.1c0,1,0,2,0,3.1c0,14.3,0,28.6,0,43c0,7.2-1,6.3,6.2,6.3
		c198.7,0,397.4,0,596.1,0c68.8,0,137.6,0,206.4,0c1.5,0,2.9-0.1,4.4,0.1c0.5,0.1,0.9,0.9,1.2,1.4c0.1,0.2-0.7,0.9-1.1,1
		c-1.6,0.1-3.2,0.1-4.8,0.1c-267.5,0-535,0-802.5,0c-6.6,0-5.9-0.8-5.9,5.8c0,117.3,0,234.6,0,351.9c0,7-0.9,6.1,5.9,6.1
		C153.3,465.9,287.3,465.9,421.2,465.9z M421.6,544.8c104,0,208,0,312,0c30.7,0,61.4,0,92,0c3.9,0,3.9,0,3.9-3.8
		c0-22.6,0-45.3,0-67.9c0-3.8,0-3.8-3.9-3.8c-11.7,0-23.4,0-35.1,0c-248.6,0-497.3,0-745.9,0c-9.2,0-18.4,0-27.6,0
		c-3.7,0-3.7,0-3.7,3.5c0,0.7,0,1.5,0,2.2c0,21.3,0,42.7,0,64c0,6.6-0.8,5.8,5.9,5.8C153.4,544.8,287.5,544.8,421.6,544.8z"/>
	<path class="st0" d="M421.2,465.9c-134,0-267.9,0-401.9,0c-6.9,0-5.9,0.9-5.9-6.1c0-117.3,0-234.6,0-351.9c0-6.6-0.7-5.8,5.9-5.8
		c267.5,0,535,0,802.5,0c1.6,0,3.2,0,4.8-0.1c0.4,0,1.2-0.8,1.1-1c-0.2-0.6-0.7-1.3-1.2-1.4c-1.4-0.2-2.9-0.1-4.4-0.1
		c-68.8,0-137.6,0-206.4,0c-198.7,0-397.4,0-596.1,0c-7.2,0-6.2,1-6.2-6.3c0-14.3,0-28.6,0-43c0-1,0-2,0-3.1c0-1.5,0.7-2.1,2.1-2.1
		c1,0,2,0,3.1,0c268.4,0,536.8,0,805.1,0c5.9,0,5.9,0,5.9,5.7c0,14.2,0,28.3,0,42.5c0,2.3-0.5,4.6-0.7,6.9c-0.1,0.6-0.2,1.2,0,1.7
		c1.2,3,0.7,6.1,0.7,9.1c0,116.4,0,232.9,0,349.3c0,6.3,0.8,5.7-5.6,5.7C689.8,465.9,555.5,465.9,421.2,465.9z M421.5,284.3
		c3.4,0,6.7,0,10.1,0c39.6,0,79.2,0,118.8,0c1.3,0,2.6,0,3.9-0.2c0.3,0,0.7-0.8,0.7-1.3c0-0.3-0.4-0.9-0.7-0.9
		c-1.4-0.1-2.9-0.2-4.4-0.2c-85.3,0-170.6,0-255.9,0c-1,0-2,0-3.1,0c-0.4,0-1-0.1-1.3,0.2c-0.4,0.3-0.7,0.9-0.8,1.3
		c0,0.3,0.4,0.9,0.7,0.9c1.4,0.1,2.9,0.2,4.4,0.2C336.5,284.3,379,284.3,421.5,284.3z M527.9,386.5c0,3.6,0,7.3,0,10.9
		c0,2.3,0.5,2.7,2.4,2.7c1.8,0,2.2-1,2.1-2.6c0-2.8,0-5.5,0-8.3c0-4.2,0-8.5,0-12.7c0-1.9,0.8-2.7,2.6-2.6c1.6,0,3.2,0,4.8,0
		c5.4,0,10.8,0,16.2-0.1c0.6,0,1.6-0.7,1.8-1.3c0.4-1.1,0.1-2.4-1.3-2.8c-1.1-0.3-2.3-0.3-3.5-0.3c-6,0-12,0-17.9,0
		c-2.6,0-2.7-0.1-2.7-2.7c-0.1-3.5,0-7,0-10.5c0-3.5,0-7,0-10.5c0-1.6-1.1-1.8-2.4-1.8c-1.2,0-2,0.3-2.1,1.7c0,1,0,2,0,3.1
		c0,6.1,0,12.3,0,18.4c0,2.4-0.1,2.4-2.5,2.5c-6.1,0.1-12.3,0-18.4,0c-1.3,0-2.6,0.2-3.9,0.5c-1.2,0.3-1.6,1.3-1.3,2.4
		c0.2,0.6,1,1.3,1.7,1.5c0.9,0.3,2,0.1,3,0.1c6.3,0,12.5,0,18.8,0c2.4,0,2.5,0.1,2.5,2.4C528,379.8,527.9,383.1,527.9,386.5z
		 M420.5,199.2c-3.7-0.2-5.9,0.5-7.5,2.8c-1.1,1.5-2.5,2.8-3.8,4.2c-2.2,2.5-4.5,5-6.6,7.5c-0.9,1.1-1.6,2.3-1.3,4
		c1,4.9,5.8,6.8,9.6,3.4c2.4-2.1,4.5-4.6,6.5-7.1c1.9-2.4,4.1-3,6.9-2.2c3.9,1,7.9,2,11.8,2.9c1.3,0.3,2.6,0.4,3.9,0.5
		c2.1,0.2,3.7-0.8,4.7-2.6c2.8-5.1,5.4-10.3,8.2-15.4c0.9-1.8,1-3.6,0.4-5.5c-1-3-3.4-4.3-6.3-4.7c-2.9-0.3-5.1,1-6.5,3.5
		c-1.9,3.1-3.7,6.3-5.5,9.4c-0.8,1.4-1.7,2-3.5,1.5C427.5,200.5,423.5,199.8,420.5,199.2z M327.8,216.3c2.1-0.1,3.9-0.6,4.9-2.4
		c3-5.6,6-11.3,8.9-17c0.8-1.6,0.5-3.1-0.3-4.6c-2.5-4.9-8.8-6.4-12.3-1c-2,3-3.8,6.2-5.5,9.4c-0.9,1.7-1.9,2.3-3.8,1.8
		c-3.2-0.8-6.5-1.5-9.8-2.2c-3.6-0.8-6.6,0.1-9,3c-2.4,2.9-5.1,5.6-7.6,8.5c-1,1.1-1.9,2.2-2.7,3.4c-1.9,3.3-0.7,6.6,2.9,8.1
		c2.8,1.2,4.8-0.1,6.6-1.9c2.1-2.2,4.2-4.4,6.1-6.8c1.7-2.2,3.8-2.4,6.2-1.8c2.8,0.7,5.6,1.5,8.4,2.2
		C323.2,215.5,325.5,215.9,327.8,216.3z M548.5,216.4c2.7-0.1,4.5-1.1,5.7-3.5c0.8-1.6,1.8-3,2.6-4.6c1.9-3.6,3.8-7.2,5.4-11
		c1.4-3.2,0.1-6.5-2.8-8.3c-2.9-1.9-6.1-1.5-8.7,1.2c-0.9,0.9-1.5,2.1-2.2,3.2c-1.4,2.4-2.7,4.8-4.1,7.2c-0.9,1.5-2,2.3-3.9,1.8
		c-2.8-0.8-5.8-0.9-8.5-1.8c-4.5-1.5-7.9-0.1-10.8,3.5c-2.2,2.7-4.7,5.2-7,7.8c-1,1.2-2.1,2.4-2.9,3.8c-1.2,2-1,3.8,0.6,5.6
		c3,3.3,5.9,3.3,9.7-0.4c2.2-2.1,4.2-4.4,6.2-6.8c1.3-1.6,2.9-1.9,4.7-1.5c1.8,0.4,3.7,0.9,5.5,1.3
		C541.4,214.7,545,215.6,548.5,216.4z M155.4,139.6c-1.1,0.7-2.9,1.5-4.2,2.8c-3,3-5.7,6.2-8.5,9.4c-6.2,7.1-12.5,14.2-18.7,21.4
		c-0.7,0.8-1.5,1.5-0.4,2.6c1.1,1,1.9,0.9,2.9-0.3c5.9-6.8,11.8-13.7,17.7-20.4c3.1-3.5,6.1-7.1,9.3-10.4c1.9-2,3.4-1.9,5.3,0
		c1.5,1.5,2.8,3.3,4.3,5c7.4,8.4,14.7,16.9,22.1,25.3c0.3,0.3,0.5,0.7,0.8,1c0.9,0.8,1.8,0.7,2.7-0.1c0.8-0.8,0.7-1.5,0-2.3
		c-0.6-0.6-1.2-1.3-1.8-1.9c-5.1-5.9-10.2-11.9-15.4-17.8c-3.4-3.8-6.8-7.6-10.2-11.4C160,140.9,158.3,139.9,155.4,139.6z
		 M688.7,143c0.9,0.5,1.6,0.7,2.1,1.2c0.7,0.5,1.3,1.2,1.9,1.8c7.5,8.6,14.9,17.1,22.4,25.7c1.2,1.4,2.5,2.9,3.9,4.1
		c0.4,0.3,1.3,0.3,1.9,0.1c0.4-0.2,0.8-0.9,0.8-1.4c0-0.5-0.5-1-0.9-1.4c-2.6-3.1-5.3-6.2-7.9-9.3c-6.1-7.1-12.1-14.2-18.4-21.1
		c-3-3.3-6.7-4.5-11-0.3c-2,2.1-3.9,4.4-5.8,6.6c-6.6,7.6-13.3,15.1-19.9,22.7c-0.7,0.8-1.3,1.6-1.6,2.6c-0.2,0.5,0.3,1.3,0.8,1.8
		c0.3,0.3,1.1,0.2,1.5,0c0.5-0.2,0.9-0.7,1.3-1.2c2.5-2.8,5-5.7,7.5-8.6c6.1-7.1,12.1-14.1,18.3-21.2
		C686.3,144.3,687.6,143.7,688.7,143z M688.5,419.1c2.6-0.5,4.8-1.4,6.6-3.4c7.5-8.7,15.1-17.4,22.6-26c1.3-1.5,2.6-3.1,3.8-4.8
		c0.2-0.4-0.1-1.3-0.5-1.8c-0.2-0.3-1.1-0.5-1.5-0.3c-0.6,0.3-1.1,0.9-1.6,1.4c-3.4,3.8-6.7,7.6-10.1,11.5
		c-5.2,5.9-10.3,11.9-15.6,17.7c-2.8,3.1-4.4,3-7.1-0.1c-8.3-9.6-16.6-19.2-24.9-28.7c-0.6-0.7-1.2-1.3-1.9-1.7
		c-0.4-0.2-1.2-0.1-1.5,0.2c-0.4,0.3-0.8,1.1-0.7,1.4c0.5,1,1.1,2.1,1.9,2.9c6,6.9,12,13.8,18.1,20.8c2.2,2.5,4.4,5,6.6,7.5
		C684.3,417.5,686.3,418.6,688.5,419.1z M189.5,383.7c-0.5-0.4-1-1-1.4-1.1c-0.6-0.1-1.5,0.1-1.9,0.5c-2.3,2.4-4.5,5-6.6,7.5
		c-6.5,7.5-12.9,15-19.4,22.5c-2.9,3.3-4.5,3.4-7.5,0.1c-4.7-5.2-9.2-10.5-13.8-15.8c-4.1-4.7-8.2-9.4-12.4-14.1
		c-1-1.1-2.9-0.9-3.1,0.4c-0.1,0.7,0.4,1.6,0.9,2.2c7.7,8.9,15.4,17.8,23.2,26.7c1.3,1.5,2.7,3,4.3,4.4c3,2.7,6.3,2.6,9.3-0.1
		c0.9-0.8,1.7-1.6,2.4-2.5c6.5-7.4,13-14.9,19.6-22.3c1.7-2,3.5-3.9,5.1-6C188.7,385.4,189,384.6,189.5,383.7z M312.2,374
		c1.2,0,2.3,0,3.5,0c7.4,0,14.8,0,22.3,0c1.4,0,2.6-0.1,2.6-2c0-1.7-0.9-2.3-2.4-2.5c-0.9-0.1-1.7,0-2.6,0c-15.1,0-30.3,0-45.4,0
		c-0.9,0-1.8-0.1-2.6,0c-2.4,0.3-3.3,1.1-3.1,2.8c0.2,2.3,2,1.7,3.4,1.7C295.9,374,304,374,312.2,374z M686.6,331.2
		c0,3.8,0,7.6,0,11.4c0,3.5,0,7,0,10.5c0,1.1,0.1,2,1.5,2.2c1.5,0.2,2.7-0.5,2.9-1.9c0.2-1,0.1-2,0.1-3.1c0-12.8,0-25.6,0-38.5
		c0-0.9,0-1.7,0-2.6c0-1.4-0.6-2.1-2.1-2.1c-1.9,0-2.4,0.3-2.4,2.7C686.6,316.9,686.6,324,686.6,331.2z M158.3,219.2
		c0-3.5,0-7,0-10.5c0-3.8,0-7.6,0-11.4c0-1.3-0.3-2.3-1.9-2.4c-1.5,0-2.5,0.6-2.6,2.2c-0.1,1,0,2,0,3.1c0,10.9,0,21.9,0,32.8
		c0,2.6,0,5.2,0,7.9c0,1.7,0.9,2.2,2.4,2.2c1.8,0,2.1-1.1,2.1-2.6C158.3,233.5,158.3,226.4,158.3,219.2z M158.3,331.3
		c0-3.2,0-6.4,0-9.6c0-4.1,0-8.2,0-12.3c0-1.3-0.2-2.3-1.9-2.4c-1.6,0-2.5,0.6-2.6,2.2c-0.1,0.9,0,1.8,0,2.6c0,12.8,0,25.7,0,38.5
		c0,0.9-0.2,1.8,0.1,2.6c0.2,0.7,0.8,1.6,1.4,2c1.7,0.8,3-0.1,3-2.3C158.3,345.7,158.3,338.5,158.3,331.3z M686.6,219.5
		c0,3.4,0,6.7,0,10.1c0,3.9,0,7.9,0,11.8c0,1.2,0.6,1.8,1.9,1.8c1.2,0,2.4,0,2.5-1.6c0-0.4,0-0.9,0-1.3c0-13.9,0-27.7,0-41.6
		c0-0.7,0.1-1.6-0.2-2.1c-0.4-0.6-1.3-1.4-1.9-1.4c-0.8,0.1-1.8,0.8-2.2,1.6c-0.4,0.8-0.2,2-0.2,3
		C686.6,206.3,686.6,212.9,686.6,219.5z M670.6,63.1c-2.8,0-4.2,0.8-3.7,2.5c0.6,2.2-0.2,3.1-1.7,4.3c-1.8,1.4-1.7,2.9,0.1,4.2
		c1.6,1.1,2.3,2.2,1.7,4.3c-0.5,1.8,1.1,3.6,2.8,3.1c1.9-0.5,2.8-0.1,4,1.4c1.6,2.1,3.4,2,4.9-0.1c1-1.3,1.8-1.9,3.6-1.4
		c2.1,0.5,3.5-0.9,3.1-3.1c-0.3-1.8,0.4-2.6,1.5-3.7c2.1-1.9,2.1-3.1,0-4.9c-1.2-1-1.9-1.9-1.5-3.6c0.4-2.2-0.8-3.5-3.1-3.1
		c-1.7,0.3-2.6-0.4-3.6-1.6c-1.8-2.1-3.1-2.1-4.9,0C672.9,62.5,672,63.2,670.6,63.1z M86.4,83.7c0.9,0,1.8,0.1,2.6,0
		c3.5-0.3,5.9-2.4,7.5-5.3c0.5-0.9,0.7-2.2-0.6-2.6c-0.8-0.2-1.8,0.3-2.7,0.6c-0.3,0.1-0.4,0.7-0.6,1.1c-1.4,2.8-3.8,3.6-6.6,3.2
		c-3-0.4-5.1-1.9-6.1-4.9c-0.8-2.3-0.9-4.5-0.2-6.8c0.8-2.7,2.3-4.9,5.1-5.4c2.9-0.6,5.9-0.5,7.6,2.8c0.3,0.5,0.8,1.1,1.2,1.2
		c0.8,0.1,1.7-0.1,2.4-0.5c0.3-0.2,0.3-1.3,0.2-1.9c-0.2-0.7-0.6-1.3-1.1-1.8c-5.3-5.3-14.8-3.5-17.9,1.9c-1.4,2.5-1.8,5.2-1.7,8
		C75.9,79.7,79.9,83.7,86.4,83.7z M513.8,180.5c0.3,0.7,0.4,1.8,0.9,2.3c1.9,1.6,3.8,3.1,5.9,4.5c0.6,0.4,1.8,0.5,2.3,0.2
		c2.2-1.4,4.3-3,6.2-4.7c1-0.9,1-3.8,0.2-3.9c-0.8-0.1-1.7,0.6-2.6,0.9c-0.3,0.1-0.5,0.3-0.8,0.4c-1.2,0.7-1.5,0.1-1.5-1
		c0-2.6,0.1-5.2,0-7.9c-0.1-2.1-1.1-2.9-3-2.7c-1.7,0.2-2.1,1.3-2.1,2.8c0,2.6,0,5.2,0,7.9c0,1.3-0.5,1.5-1.6,0.8
		c-0.5-0.3-0.9-0.7-1.5-0.9c-0.6-0.2-1.3-0.5-1.9-0.3C514.1,178.9,514,179.8,513.8,180.5z M300.8,188.1c2.3,0.1,2.7-0.3,2.8-2.8
		c0.1-1.6,0-3.2,0-4.8c0-1.4,0.2-2.9,0.3-4.3c1.1,0.7,2.2,1.3,3.4,2c0.4,0.2,0.8,0.3,1.2,0.5c0.2-0.5,0.6-1.1,0.4-1.6
		c-0.3-1.1-0.5-2.3-1.2-3.1c-1.5-1.5-3.4-2.8-5.1-4.1c-1.1-0.8-2.2-0.7-3.2,0.1c-1.6,1.2-3.3,2.4-4.8,3.8c-0.7,0.6-1.2,1.6-1.4,2.5
		c-0.2,0.7,0.3,1.6,0.5,2.4c0.7-0.3,1.4-0.5,2-0.8c0.6-0.4,1.1-0.9,1.7-1.3c0.7-0.5,1-0.1,1,0.6c0,2.8,0,5.5,0.1,8.3
		C298.5,187.7,298.8,188,300.8,188.1z M414.8,169.5c-2.2,0-2.6,0.6-1.8,2c0.4,0.6,0.8,1.2,1.2,1.8c0.9,1.6,0.7,2-1.1,2.1
		c-2.8,0.1-5.5,0-8.3,0c-1.4,0-2.1,0.6-2.1,2.1c0,1.6,0.4,2.5,2.2,2.5c2.5,0,5,0,7.4,0c0.8,0,1.6,0.4,2.4,0.6
		c-0.3,0.6-0.6,1.3-0.9,1.9c-0.1,0.2-0.4,0.4-0.6,0.7c-0.2,0.5-0.4,1-0.6,1.6c0.7,0.2,1.4,0.7,2,0.6c0.9-0.1,2.1-0.4,2.7-1.1
		c1.6-1.7,3-3.6,4.4-5.4c0.3-0.4,0.5-1.3,0.3-1.6c-1.7-2.5-3.6-4.9-5.5-7.3C416,169.5,415.1,169.6,414.8,169.5z M53.3,60.7
		C53.3,60.7,53.3,60.7,53.3,60.7c-2.3,0.1-4.7,0-7,0.1c-0.4,0-1,0.7-1.1,1.1c-0.1,0.4,0.2,1.3,0.6,1.4c0.9,0.4,1.9,0.7,2.9,0.8
		c1.4,0.1,2.9,0,4.4,0.1c2.4,0.1,2.6,0.4,1.3,2.4c-2.7,4.4-4.8,8.9-5.5,14.1c-0.1,1.1-0.9,2.3,0.7,2.9c1.5,0.6,2.4-0.2,3-2.2
		c0.1-0.3,0.2-0.6,0.2-0.8c0.9-5.9,3.5-11,7-15.8c0.3-0.5,0.7-0.9,0.9-1.5c0.6-1.5-0.1-2.6-1.7-2.6C57.1,60.6,55.2,60.7,53.3,60.7z
		 M557.8,185.3c4.1,0,8-3.7,7.9-7.7c-0.1-4-3.9-7.9-7.8-7.9c-3.9-0.1-7.8,3.8-8,7.8C549.8,181.4,553.7,185.3,557.8,185.3z
		 M344.8,177.8c0.1-4.2-3.4-7.9-7.6-8.1c-3.8-0.2-8.1,3.8-8.2,7.6c-0.1,4.1,3.5,7.9,7.7,8C340.8,185.4,344.8,181.8,344.8,177.8z
		 M456.3,176.8c0-4.2-3.4-8-7.5-8.2c-3.7-0.1-8.1,3.9-8.2,7.7c-0.1,4,4,8.1,8.1,8.1C451.9,184.5,456.8,180.5,456.3,176.8z
		 M38.8,72.2C38.8,72.2,38.8,72.2,38.8,72.2c0-3.3,0.1-6.7-0.1-10c0-0.7-0.7-1.5-1.4-2c-0.2-0.2-1.2,0.5-1.7,1c-1.5,1.3-3,2.6-4.5,4
		c-0.5,0.5-1.2,0.9-1.6,1.4c-0.2,0.4-0.2,1.2,0,1.6c0.2,0.4,1,0.6,1.5,0.5c1-0.3,1.8-0.8,2.8-1.3c0.9-0.4,1.3,0,1.4,0.9
		c0.1,1,0,2,0,3.1c0,3.5,0,7,0,10.5c0,1.2,0.4,2,1.7,2c1.3,0,1.8-0.8,1.8-1.9C38.8,78.6,38.8,75.4,38.8,72.2z M67.1,69.4
		c2.4,0.1,5-2.2,5.1-4.5c0.1-2.4-2.2-4.8-4.7-4.9c-2.4-0.1-5,2.2-5.1,4.5C62.4,66.9,64.6,69.3,67.1,69.4z M369.7,190.6
		c-1.7,0-3.7,2.1-3.6,3.7c0.1,1.4,2.2,3.2,3.6,3.2c1.6,0,3.2-1.8,3.2-3.5C372.9,192.3,371.2,190.6,369.7,190.6z M477,190.7
		c-1.7,0.1-3.3,1.8-3.3,3.4c0,1.7,1.7,3.4,3.3,3.4c1.8-0.1,3.6-1.6,3.6-3.1C480.6,192.6,478.6,190.6,477,190.7z"/>
	<path class="st0" d="M421.6,544.8c-134.1,0-268.2,0-402.3,0c-6.6,0-5.9,0.8-5.9-5.8c0-21.3,0-42.7,0-64c0-0.7,0-1.5,0-2.2
		c0.1-3.5,0.1-3.5,3.7-3.5c9.2,0,18.4,0,27.6,0c248.6,0,497.3,0,745.9,0c11.7,0,23.4,0,35.1,0c3.9,0,3.9,0,3.9,3.8
		c0,22.6,0,45.3,0,67.9c0,3.7,0,3.8-3.9,3.8c-30.7,0-61.4,0-92,0C629.6,544.8,525.6,544.8,421.6,544.8z"/>
	<path d="M421.5,284.3c-42.5,0-85,0-127.5,0c-1.5,0-2.9,0-4.4-0.2c-0.3,0-0.7-0.6-0.7-0.9c0.1-0.5,0.4-1,0.8-1.3
		c0.3-0.2,0.8-0.2,1.3-0.2c1,0,2,0,3.1,0c85.3,0,170.6,0,255.9,0c1.5,0,2.9,0,4.4,0.2c0.3,0,0.7,0.6,0.7,0.9
		c-0.1,0.5-0.4,1.3-0.7,1.3c-1.3,0.2-2.6,0.2-3.9,0.2c-39.6,0-79.2,0-118.8,0C428.2,284.3,424.9,284.3,421.5,284.3z"/>
	<path d="M527.9,386.5c0-3.4,0-6.7,0-10.1c0-2.3-0.1-2.4-2.5-2.4c-6.3,0-12.5,0-18.8,0c-1,0-2.1,0.2-3-0.1c-0.7-0.2-1.5-0.9-1.7-1.5
		c-0.4-1,0.1-2.1,1.3-2.4c1.3-0.3,2.6-0.5,3.9-0.5c6.1-0.1,12.3,0,18.4,0c2.4,0,2.5-0.1,2.5-2.5c0.1-6.1,0-12.3,0-18.4
		c0-1,0-2,0-3.1c0-1.3,0.9-1.6,2.1-1.7c1.3,0,2.4,0.2,2.4,1.8c0,3.5,0,7,0,10.5c0,3.5,0,7,0,10.5c0,2.6,0.1,2.7,2.7,2.7
		c6,0.1,12,0,17.9,0c1.2,0,2.3,0,3.5,0.3c1.4,0.3,1.7,1.6,1.3,2.8c-0.2,0.6-1.2,1.3-1.8,1.3c-5.4,0.1-10.8,0.1-16.2,0.1
		c-1.6,0-3.2,0-4.8,0c-1.8-0.1-2.7,0.7-2.6,2.6c0,4.2,0,8.5,0,12.7c0,2.8,0,5.5,0,8.3c0,1.5-0.3,2.6-2.1,2.6c-1.9,0-2.3-0.4-2.4-2.7
		C527.9,393.8,527.9,390.1,527.9,386.5z"/>
	<path d="M420.5,199.2c2.9,0.6,7,1.2,10.9,2.2c1.8,0.5,2.7-0.1,3.5-1.5c1.8-3.2,3.6-6.3,5.5-9.4c1.5-2.5,3.7-3.8,6.5-3.5
		c2.9,0.3,5.3,1.6,6.3,4.7c0.6,1.9,0.5,3.7-0.4,5.5c-2.7,5.2-5.4,10.3-8.2,15.4c-1,1.8-2.6,2.8-4.7,2.6c-1.3-0.1-2.6-0.2-3.9-0.5
		c-4-0.9-7.9-1.8-11.8-2.9c-2.9-0.8-5-0.2-6.9,2.2c-2,2.5-4.1,5-6.5,7.1c-3.7,3.3-8.6,1.4-9.6-3.4c-0.3-1.7,0.3-2.9,1.3-4
		c2.2-2.6,4.4-5,6.6-7.5c1.3-1.4,2.7-2.7,3.8-4.2C414.7,199.8,416.8,199.1,420.5,199.2z M450,194.7c0-3.2-1-4.1-3.5-4.2
		c-1.8-0.1-2.9,0.8-3.8,2.4c-1.8,3.3-3.8,6.5-5.7,9.8c-0.8,1.4-2,2.1-3.6,2c-1.2,0-2.3,0-3.5-0.2c-3.1-0.6-6.3-1.1-9.4-2
		c-1.8-0.5-3.1-0.3-4.3,1.1c-3.6,4-7.3,7.9-10.9,11.9c-0.9,1-1.2,2.1-0.2,3.1c1,1.1,2.4,1.1,3.6,0.2c0.8-0.6,1.5-1.4,2.2-2.1
		c2-2.2,3.9-4.4,5.8-6.5c1.8-2,4-2.6,6.7-1.8c4.8,1.3,9.6,2.4,14.4,3.6c2.7,0.7,3.2,0.5,4.5-2c2.3-4.2,4.6-8.5,6.8-12.7
		C449.6,196.2,449.9,195.1,450,194.7z"/>
	<path d="M327.8,216.3c-2.3-0.5-4.6-0.9-6.8-1.4c-2.8-0.7-5.6-1.5-8.4-2.2c-2.4-0.6-4.5-0.4-6.2,1.8c-1.9,2.4-4,4.6-6.1,6.8
		c-1.8,1.9-3.8,3.1-6.6,1.9c-3.6-1.5-4.8-4.8-2.9-8.1c0.7-1.2,1.7-2.4,2.7-3.4c2.5-2.8,5.1-5.6,7.6-8.5c2.4-2.9,5.4-3.8,9-3
		c3.3,0.7,6.5,1.3,9.8,2.2c1.9,0.5,2.9-0.1,3.8-1.8c1.7-3.2,3.5-6.4,5.5-9.4c3.5-5.4,9.8-3.9,12.3,1c0.8,1.5,1.1,3,0.3,4.6
		c-3,5.7-5.9,11.4-8.9,17C331.7,215.8,329.9,216.2,327.8,216.3z M309.2,208.7c1.2,0.4,1.9,0.6,2.6,0.8c4.9,1.2,9.9,2.3,14.8,3.6
		c1.9,0.5,3,0,3.9-1.7c1.2-2.3,2.5-4.6,3.7-6.9c1.4-2.6,2.7-5.2,4-7.8c0.7-1.4,0.5-2.8-0.6-4c-1.2-1.2-2.6-1.4-4-0.9
		c-0.8,0.3-1.6,1.2-2.1,2c-1.9,3.1-3.8,6.2-5.5,9.4c-1,2-2.5,2.8-4.6,2.6c-1.3-0.1-2.6-0.1-3.9-0.4c-2.9-0.5-5.8-0.9-8.5-1.7
		c-2.2-0.7-3.6,0-5,1.5c-2.3,2.6-4.7,5.2-7.1,7.8c-1.2,1.3-2.3,2.6-3.2,4.1c-0.4,0.6-0.4,2,0,2.4c0.6,0.6,1.8,0.9,2.7,0.8
		c0.7-0.1,1.4-0.9,2-1.5c2.3-2.4,4.5-5,6.9-7.3C306.4,210.2,308,209.4,309.2,208.7z"/>
	<path d="M548.5,216.4c-3.5-0.8-7.1-1.7-10.6-2.5c-1.8-0.4-3.7-0.9-5.5-1.3c-1.8-0.4-3.4,0-4.7,1.5c-2,2.3-4,4.6-6.2,6.8
		c-3.8,3.7-6.7,3.8-9.7,0.4c-1.6-1.8-1.8-3.6-0.6-5.6c0.8-1.4,1.9-2.6,2.9-3.8c2.3-2.6,4.7-5.2,7-7.8c2.9-3.5,6.3-4.9,10.8-3.5
		c2.7,0.9,5.7,1,8.5,1.8c2,0.5,3.1-0.2,3.9-1.8c1.4-2.4,2.7-4.8,4.1-7.2c0.7-1.1,1.3-2.3,2.2-3.2c2.6-2.7,5.8-3.1,8.7-1.2
		c2.9,1.9,4.2,5.1,2.8,8.3c-1.6,3.7-3.6,7.3-5.4,11c-0.8,1.6-1.8,3-2.6,4.6C553,215.3,551.2,216.3,548.5,216.4z M528.7,203.3
		c-1.8-0.3-3,0.7-4.1,1.9c-2.8,3-5.5,6-8.2,9.1c-0.8,0.9-1.6,1.8-2,2.8c-0.3,0.8,0,2.4,0.5,2.6c0.9,0.4,2.1,0.1,3.2,0
		c0.3,0,0.5-0.7,0.8-1c2.3-2.4,4.7-4.8,7-7.3c2-2,4-2.9,7-2c4.7,1.4,9.6,2.3,14.4,3.5c1.9,0.5,3.2,0,4-1.6c2.6-4.7,5.1-9.5,7.5-14.3
		c1.2-2.4,0.6-4.3-1.3-5.3c-1.8-0.9-3.9-0.4-5.2,1.7c-1.8,2.8-3.7,5.6-5.1,8.6c-1.3,2.8-3.3,3.9-6.2,3.5c-1.1-0.2-2.3-0.4-3.4-0.6
		C534.7,204.4,531.7,203.8,528.7,203.3z"/>
	<path d="M155.4,139.6c2.8,0.2,4.6,1.2,6,2.8c3.4,3.8,6.9,7.5,10.2,11.4c5.2,5.9,10.3,11.9,15.4,17.8c0.6,0.7,1.2,1.3,1.8,1.9
		c0.7,0.7,0.8,1.5,0,2.3c-0.9,0.8-1.8,0.9-2.7,0.1c-0.3-0.3-0.5-0.7-0.8-1c-7.4-8.4-14.7-16.9-22.1-25.3c-1.4-1.6-2.7-3.4-4.3-5
		c-1.9-1.9-3.4-1.9-5.3,0c-3.2,3.4-6.2,6.9-9.3,10.4c-5.9,6.8-11.9,13.6-17.7,20.4c-1,1.2-1.9,1.3-2.9,0.3c-1.1-1-0.3-1.8,0.4-2.6
		c6.2-7.1,12.4-14.3,18.7-21.4c2.8-3.2,5.5-6.4,8.5-9.4C152.5,141.1,154.3,140.4,155.4,139.6z"/>
	<path d="M688.7,143c-1.1,0.7-2.3,1.2-3.2,2.2c-6.1,7-12.2,14.1-18.3,21.2c-2.5,2.9-5,5.7-7.5,8.6c-0.4,0.4-0.8,0.9-1.3,1.2
		c-0.5,0.2-1.3,0.3-1.5,0c-0.4-0.4-0.9-1.3-0.8-1.8c0.3-0.9,1-1.8,1.6-2.6c6.6-7.6,13.3-15.1,19.9-22.7c1.9-2.2,3.7-4.5,5.8-6.6
		c4.2-4.3,8-3,11,0.3c6.3,6.9,12.3,14,18.4,21.1c2.7,3.1,5.3,6.2,7.9,9.3c0.4,0.4,0.8,0.9,0.9,1.4c0,0.5-0.4,1.2-0.8,1.4
		c-0.6,0.2-1.5,0.2-1.9-0.1c-1.4-1.3-2.7-2.7-3.9-4.1c-7.5-8.6-14.9-17.1-22.4-25.7c-0.6-0.7-1.2-1.3-1.9-1.8
		C690.3,143.8,689.6,143.5,688.7,143z"/>
	<path d="M688.5,419.1c-2.2-0.5-4.2-1.6-5.8-3.4c-2.2-2.5-4.4-5-6.6-7.5c-6-6.9-12.1-13.8-18.1-20.8c-0.8-0.9-1.4-1.9-1.9-2.9
		c-0.2-0.3,0.3-1.1,0.7-1.4c0.4-0.3,1.2-0.4,1.5-0.2c0.7,0.4,1.4,1.1,1.9,1.7c8.3,9.6,16.6,19.1,24.9,28.7c2.7,3.1,4.3,3.2,7.1,0.1
		c5.3-5.8,10.4-11.8,15.6-17.7c3.4-3.8,6.7-7.7,10.1-11.5c0.5-0.5,1-1.1,1.6-1.4c0.4-0.2,1.3,0,1.5,0.3c0.4,0.5,0.7,1.5,0.5,1.8
		c-1.1,1.7-2.4,3.3-3.8,4.8c-7.5,8.7-15.1,17.3-22.6,26C693.3,417.7,691.1,418.6,688.5,419.1z"/>
	<path d="M189.5,383.7c-0.5,0.9-0.8,1.7-1.3,2.3c-1.7,2-3.4,4-5.1,6c-6.5,7.5-13,14.9-19.6,22.3c-0.8,0.9-1.6,1.7-2.4,2.5
		c-3,2.7-6.3,2.8-9.3,0.1c-1.5-1.4-2.9-2.9-4.3-4.4c-7.8-8.9-15.5-17.8-23.2-26.7c-0.5-0.6-1-1.5-0.9-2.2c0.2-1.3,2.1-1.5,3.1-0.4
		c4.2,4.7,8.3,9.4,12.4,14.1c4.6,5.3,9.1,10.6,13.8,15.8c3,3.3,4.5,3.3,7.5-0.1c6.5-7.4,12.9-15,19.4-22.5c2.2-2.5,4.4-5.1,6.6-7.5
		c0.4-0.4,1.3-0.6,1.9-0.5C188.5,382.7,188.9,383.3,189.5,383.7z"/>
	<path d="M312.2,374c-8.2,0-16.3,0-24.5,0c-1.3,0-3.1,0.6-3.4-1.7c-0.2-1.7,0.7-2.5,3.1-2.8c0.9-0.1,1.7,0,2.6,0
		c15.1,0,30.3,0,45.4,0c0.9,0,1.8,0,2.6,0c1.5,0.1,2.4,0.8,2.4,2.5c0,1.9-1.2,2-2.6,2c-7.4,0-14.8,0-22.3,0
		C314.5,374,313.4,374,312.2,374z"/>
	<path d="M686.6,331.2c0-7.1,0-14.3,0-21.4c0-2.3,0.5-2.7,2.4-2.7c1.5,0,2.1,0.7,2.1,2.1c0,0.9,0,1.7,0,2.6c0,12.8,0,25.6,0,38.5
		c0,1,0.1,2.1-0.1,3.1c-0.2,1.4-1.4,2.1-2.9,1.9c-1.4-0.2-1.5-1.2-1.5-2.2c0-3.5,0-7,0-10.5C686.6,338.7,686.6,334.9,686.6,331.2z"
		/>
	<path d="M158.3,219.2c0,7.1,0,14.3,0,21.4c0,1.5-0.3,2.6-2.1,2.6c-1.6,0-2.5-0.5-2.4-2.2c0.1-2.6,0-5.2,0-7.9c0-10.9,0-21.9,0-32.8
		c0-1,0-2,0-3.1c0.1-1.6,1.1-2.3,2.6-2.2c1.6,0,1.9,1.1,1.9,2.4c0,3.8,0,7.6,0,11.4C158.3,212.2,158.3,215.7,158.3,219.2z"/>
	<path d="M158.3,331.3c0,7.2,0,14.3,0,21.5c0,2.1-1.4,3.1-3,2.3c-0.7-0.3-1.2-1.2-1.4-2c-0.2-0.8-0.1-1.7-0.1-2.6
		c0-12.8,0-25.7,0-38.5c0-0.9,0-1.8,0-2.6c0.1-1.6,1.1-2.3,2.6-2.2c1.6,0,1.9,1.1,1.9,2.4c0,4.1,0,8.2,0,12.3
		C158.3,324.9,158.3,328.1,158.3,331.3z"/>
	<path d="M686.6,219.5c0-6.6,0-13.1,0-19.7c0-1-0.2-2.2,0.2-3c0.3-0.7,1.4-1.5,2.2-1.6c0.6-0.1,1.5,0.7,1.9,1.4
		c0.3,0.5,0.2,1.4,0.2,2.1c0,13.9,0,27.7,0,41.6c0,0.4,0,0.9,0,1.3c-0.1,1.6-1.3,1.6-2.5,1.6c-1.3,0-1.9-0.6-1.9-1.8
		c0-3.9,0-7.9,0-11.8C686.6,226.2,686.6,222.8,686.6,219.5z"/>
	<path d="M670.6,63.1c1.4,0.1,2.3-0.6,3.2-1.7c1.7-2.1,3.1-2,4.9,0c1,1.2,1.9,1.8,3.6,1.6c2.3-0.4,3.5,0.9,3.1,3.1
		c-0.3,1.8,0.4,2.6,1.5,3.6c2.1,1.8,2,3.1,0,4.9c-1.2,1-1.9,1.9-1.5,3.7c0.4,2.2-1,3.6-3.1,3.1c-1.8-0.4-2.6,0.1-3.6,1.4
		c-1.5,2-3.3,2.1-4.9,0.1c-1.2-1.5-2.1-1.9-4-1.4c-1.7,0.5-3.3-1.3-2.8-3.1c0.6-2.1-0.1-3.2-1.7-4.3c-1.8-1.2-1.8-2.8-0.1-4.2
		c1.5-1.2,2.4-2.1,1.7-4.3C666.4,63.9,667.8,63,670.6,63.1z M676.5,64.3c-4.6,0-8.1,3.4-8.1,7.8c0,4.2,3.4,7.8,7.6,7.9
		c4.5,0.1,8.1-3.4,8-7.9C684,67.7,680.8,64.3,676.5,64.3z"/>
	<path d="M86.4,83.7c-6.5,0-10.6-4-10.9-10.5c-0.1-2.8,0.2-5.4,1.7-8c3.1-5.4,12.5-7.2,17.9-1.9c0.5,0.5,0.9,1.2,1.1,1.8
		c0.2,0.6,0.2,1.6-0.2,1.9c-0.6,0.4-1.6,0.6-2.4,0.5c-0.4,0-0.9-0.7-1.2-1.2c-1.7-3.2-4.7-3.3-7.6-2.8c-2.8,0.5-4.3,2.7-5.1,5.4
		c-0.7,2.3-0.6,4.6,0.2,6.8c1,3,3.1,4.5,6.1,4.9c2.8,0.3,5.2-0.5,6.6-3.2c0.2-0.4,0.3-1,0.6-1.1c0.9-0.3,1.9-0.8,2.7-0.6
		c1.2,0.4,1.1,1.7,0.6,2.6c-1.7,2.9-4,5-7.5,5.3C88.2,83.8,87.3,83.7,86.4,83.7z"/>
	<path d="M513.8,180.5c0.2-0.7,0.3-1.6,0.6-1.7c0.6-0.1,1.3,0.1,1.9,0.3c0.5,0.2,1,0.6,1.5,0.9c1,0.7,1.6,0.5,1.6-0.8
		c0-2.6,0-5.2,0-7.9c0-1.5,0.5-2.6,2.1-2.8c1.9-0.2,3,0.5,3,2.7c0.1,2.6,0,5.2,0,7.9c0,1.1,0.3,1.7,1.5,1c0.2-0.2,0.5-0.3,0.8-0.4
		c0.9-0.4,1.8-1.1,2.6-0.9c0.8,0.2,0.8,3-0.2,3.9c-2,1.7-4.1,3.3-6.2,4.7c-0.5,0.3-1.7,0.2-2.3-0.2c-2-1.4-4-2.9-5.9-4.5
		C514.2,182.2,514.1,181.2,513.8,180.5z"/>
	<path d="M300.8,188.1c-2-0.1-2.4-0.4-2.4-2.7c-0.1-2.8,0-5.5-0.1-8.3c0-0.7-0.3-1.1-1-0.6c-0.6,0.4-1.1,1-1.7,1.3
		c-0.6,0.4-1.3,0.6-2,0.8c-0.2-0.8-0.6-1.7-0.5-2.4c0.2-0.9,0.8-1.9,1.4-2.5c1.5-1.4,3.2-2.6,4.8-3.8c1-0.8,2.2-0.8,3.2-0.1
		c1.7,1.3,3.6,2.6,5.1,4.1c0.7,0.7,1,2,1.2,3.1c0.1,0.5-0.3,1.1-0.4,1.6c-0.4-0.2-0.8-0.3-1.2-0.5c-1.1-0.6-2.2-1.3-3.4-2
		c-0.1,1.4-0.3,2.9-0.3,4.3c-0.1,1.6,0,3.2,0,4.8C303.5,187.8,303.1,188.1,300.8,188.1z"/>
	<path d="M414.8,169.5c0.3,0.1,1.2,0,1.6,0.4c1.9,2.4,3.7,4.8,5.5,7.3c0.2,0.3,0,1.2-0.3,1.6c-1.4,1.9-2.8,3.8-4.4,5.4
		c-0.6,0.6-1.7,0.9-2.7,1.1c-0.6,0.1-1.3-0.4-2-0.6c0.2-0.5,0.4-1.1,0.6-1.6c0.1-0.3,0.4-0.4,0.6-0.7c0.3-0.6,0.6-1.2,0.9-1.9
		c-0.8-0.2-1.6-0.5-2.4-0.6c-2.5-0.1-5-0.1-7.4,0c-1.8,0-2.2-0.9-2.2-2.5c0-1.5,0.7-2.1,2.1-2.1c2.8,0,5.5,0,8.3,0
		c1.8,0,2-0.4,1.1-2.1c-0.4-0.6-0.8-1.2-1.2-1.8C412.2,170.1,412.6,169.5,414.8,169.5z"/>
	<path d="M53.3,60.7c1.9,0,3.8-0.1,5.7,0c1.6,0.1,2.3,1.2,1.7,2.6c-0.2,0.5-0.6,1-0.9,1.5c-3.5,4.7-6.1,9.8-7,15.8
		c0,0.3-0.1,0.6-0.2,0.8c-0.6,2.1-1.5,2.8-3,2.2c-1.6-0.6-0.8-1.8-0.7-2.9c0.7-5.2,2.9-9.7,5.5-14.1c1.2-2,1.1-2.3-1.3-2.4
		c-1.5-0.1-2.9,0.1-4.4-0.1c-1-0.1-2-0.4-2.9-0.8c-0.4-0.2-0.7-1-0.6-1.4c0.1-0.4,0.7-1.1,1.1-1.1C48.6,60.7,51,60.8,53.3,60.7
		C53.3,60.7,53.3,60.7,53.3,60.7z"/>
	<path d="M557.8,185.3c-4.1,0-8-3.9-7.8-7.8c0.1-4,4.1-7.9,8-7.8c3.9,0.1,7.8,3.9,7.8,7.9C565.8,181.6,561.9,185.4,557.8,185.3z
		 M562.2,177.8c0-2.7-1.6-4.6-4.1-4.7c-2.6-0.1-4.6,1.9-4.6,4.7c0,2.5,1.5,4,4.1,4.1C560.5,181.9,562.2,180.4,562.2,177.8z"/>
	<path d="M344.8,177.8c-0.1,4-4,7.7-8.1,7.5c-4.1-0.1-7.8-3.9-7.7-8c0.1-3.8,4.4-7.8,8.2-7.6C341.4,169.9,344.9,173.6,344.8,177.8z
		 M337.1,181.8c2.8-0.1,4.2-1.5,4.2-4.4c0-2.8-1.6-4.4-4.2-4.4c-2.8,0.1-4.6,1.9-4.5,4.7C332.6,180.4,334.3,181.9,337.1,181.8z"/>
	<path d="M456.3,176.8c0.6,3.7-4.3,7.6-7.5,7.6c-4.1,0-8.3-4.1-8.1-8.1c0.1-3.8,4.4-7.8,8.2-7.7
		C452.8,168.8,456.3,172.6,456.3,176.8z M452.7,176.5c0-2.9-1.6-4.4-4.3-4.3c-2.4,0.1-4.5,2.3-4.4,4.5c0.1,2.7,1.8,4.2,4.5,4.2
		C451.4,180.9,452.8,179.4,452.7,176.5z"/>
	<path d="M38.8,72.2c0,3.2,0,6.4,0,9.6c0,1.2-0.5,1.9-1.8,1.9c-1.3,0-1.7-0.8-1.7-2c0-3.5,0-7,0-10.5c0-1,0-2,0-3.1
		c0-0.9-0.4-1.4-1.4-0.9c-0.9,0.4-1.8,1-2.8,1.3c-0.4,0.1-1.2-0.1-1.5-0.5c-0.3-0.4-0.3-1.2,0-1.6c0.3-0.6,1-1,1.6-1.4
		c1.5-1.3,3-2.7,4.5-4c0.5-0.4,1.5-1.1,1.7-1c0.6,0.4,1.3,1.3,1.4,2C38.8,65.5,38.8,68.9,38.8,72.2C38.8,72.2,38.8,72.2,38.8,72.2z"
		/>
	<path d="M67.1,69.4c-2.5-0.1-4.8-2.5-4.7-4.9c0.1-2.3,2.7-4.6,5.1-4.5c2.5,0.1,4.8,2.5,4.7,4.9C72.1,67.3,69.5,69.6,67.1,69.4z
		 M69.5,64.8c0-1.2-1-2.2-2.2-2.1c-1.2,0-2.4,1.2-2,2.2c0.3,0.8,1.2,1.6,1.9,1.8C68.4,67.1,69.5,66,69.5,64.8z"/>
	<path d="M369.7,190.6c1.6,0,3.3,1.7,3.3,3.4c0,1.7-1.6,3.5-3.2,3.5c-1.5,0-3.5-1.8-3.6-3.2C365.9,192.8,368,190.7,369.7,190.6z"/>
	<path d="M477,190.7c1.6-0.1,3.6,1.9,3.6,3.7c0,1.5-1.8,3.1-3.6,3.1c-1.6,0-3.3-1.7-3.3-3.4C473.7,192.5,475.3,190.8,477,190.7z"/>
	<path class="st0" d="M450,194.7c-0.1,0.4-0.4,1.6-0.9,2.6c-2.2,4.3-4.5,8.5-6.8,12.7c-1.4,2.5-1.8,2.7-4.5,2
		c-4.8-1.2-9.6-2.3-14.4-3.6c-2.7-0.8-4.9-0.1-6.7,1.8c-2,2.1-3.9,4.3-5.8,6.5c-0.7,0.8-1.4,1.6-2.2,2.1c-1.2,0.8-2.5,0.9-3.6-0.2
		c-1-1-0.7-2.2,0.2-3.1c3.6-4,7.3-7.9,10.9-11.9c1.2-1.3,2.5-1.6,4.3-1.1c3.1,0.9,6.2,1.4,9.4,2c1.1,0.2,2.3,0.2,3.5,0.2
		c1.6,0.1,2.7-0.6,3.6-2c1.9-3.3,3.9-6.5,5.7-9.8c0.9-1.6,2-2.4,3.8-2.4C449,190.5,450,191.5,450,194.7z"/>
	<path class="st0" d="M309.2,208.7c-1.2,0.8-2.8,1.5-4,2.6c-2.4,2.3-4.6,4.9-6.9,7.3c-0.6,0.6-1.3,1.4-2,1.5c-0.9,0.1-2-0.2-2.7-0.8
		c-0.4-0.4-0.4-1.8,0-2.4c0.9-1.5,2.1-2.8,3.2-4.1c2.3-2.6,4.7-5.2,7.1-7.8c1.4-1.5,2.8-2.2,5-1.5c2.8,0.8,5.7,1.2,8.5,1.7
		c1.3,0.2,2.6,0.3,3.9,0.4c2.1,0.2,3.5-0.6,4.6-2.6c1.7-3.2,3.6-6.3,5.5-9.4c0.5-0.8,1.3-1.7,2.1-2c1.4-0.5,2.9-0.3,4,0.9
		c1.2,1.2,1.3,2.6,0.6,4c-1.2,2.6-2.6,5.2-4,7.8c-1.2,2.3-2.6,4.6-3.7,6.9c-0.9,1.7-2,2.2-3.9,1.7c-4.9-1.3-9.9-2.4-14.8-3.6
		C311.1,209.3,310.4,209,309.2,208.7z"/>
	<path class="st0" d="M528.7,203.3c3,0.6,6,1.2,9,1.7c1.1,0.2,2.3,0.4,3.4,0.6c3,0.5,4.9-0.6,6.2-3.5c1.4-3,3.3-5.8,5.1-8.6
		c1.3-2,3.4-2.6,5.2-1.7c1.9,1,2.5,2.9,1.3,5.3c-2.4,4.8-5,9.6-7.5,14.3c-0.9,1.6-2.1,2.1-4,1.6c-4.8-1.3-9.7-2.1-14.4-3.5
		c-3-0.9-5.1,0-7,2c-2.3,2.4-4.7,4.8-7,7.3c-0.3,0.3-0.5,1-0.8,1c-1.1,0.2-2.3,0.4-3.2,0c-0.5-0.2-0.8-1.8-0.5-2.6
		c0.3-1.1,1.2-2,2-2.8c2.7-3.1,5.4-6.1,8.2-9.1C525.7,203.9,526.9,203,528.7,203.3z"/>
	<path class="st0" d="M676.5,64.3c4.3,0,7.5,3.4,7.5,7.8c0,4.5-3.6,8-8,7.9c-4.2-0.1-7.6-3.6-7.6-7.9
		C668.4,67.7,672,64.3,676.5,64.3z M676.4,75.9c2.2-0.1,4-1.8,3.9-3.8c-0.1-2-2.6-4.2-4.4-4c-2.1,0.2-3.5,2-3.4,4.3
		C672.6,74.8,673.8,75.9,676.4,75.9z"/>
	<path class="st0" d="M562.2,177.8c0,2.7-1.7,4.1-4.6,4c-2.6-0.1-4.1-1.5-4.1-4.1c0-2.8,2-4.8,4.6-4.7
		C560.6,173.2,562.3,175.1,562.2,177.8z"/>
	<path class="st0" d="M337.1,181.8c-2.9,0.1-4.5-1.4-4.6-4c0-2.8,1.7-4.7,4.5-4.7c2.7-0.1,4.2,1.5,4.2,4.4
		C341.3,180.3,339.9,181.7,337.1,181.8z"/>
	<path class="st0" d="M452.7,176.5c0,2.9-1.3,4.4-4.2,4.4c-2.7,0-4.4-1.6-4.5-4.2c-0.1-2.3,2-4.4,4.4-4.5
		C451.1,172.1,452.7,173.6,452.7,176.5z"/>
	<path class="st0" d="M69.5,64.8c0,1.2-1.1,2.3-2.3,2c-0.8-0.2-1.7-1.1-1.9-1.8c-0.4-1.1,0.8-2.2,2-2.2
		C68.5,62.6,69.5,63.5,69.5,64.8z"/>
	<path d="M676.4,75.9c-2.6,0.1-3.8-1-3.9-3.5c-0.1-2.3,1.3-4.1,3.4-4.3c1.9-0.2,4.3,2.1,4.4,4C680.4,74.1,678.7,75.8,676.4,75.9z"/>
</g>
</svg>
