<svg id="interior" xmlns="http://www.w3.org/2000/svg" viewBox="0 0 812.76 334.83"><defs><style>.cls-1{fill:#020202;}</style></defs><title>interior-coche2</title><path class="cls-1" d="M745.38,306.07a101.81,101.81,0,0,0-9.2-5.38q-8.91-4.53-18-8.73a12.94,12.94,0,0,0-5.37-1.3c-4.18,0-8.35.11-12.45,1.42-2.07.68-4.17.9-5.71,3.28.77.91,1.44,1.84,2.25,2.66A74.46,74.46,0,0,0,713,309.64a40.13,40.13,0,0,0,22.44,5,28.52,28.52,0,0,0,9.59-2.16,4.32,4.32,0,0,0,2.17-1.71C748.13,309.29,747.49,307.45,745.38,306.07Zm-5.48,6.14a116.27,116.27,0,0,1-15.61-.47c-4.41-.5-8.52-2.49-12.3-4.83-4.53-2.8-9.06-5.68-12.81-9.56l-1.83-2L697,295c3.81-.87,7.06-1.79,10.37-2.31a31.89,31.89,0,0,1,6.48,0,8.49,8.49,0,0,1,3.1.78q10.83,5.32,21.57,10.81a41.54,41.54,0,0,1,5.38,3.48,10.48,10.48,0,0,1,1.65,2.44l0,0C743.34,311,741.63,312.13,739.9,312.21Z" transform="translate(1.33 -0.4)"/><path class="cls-1" d="M284.83,235.37a84.22,84.22,0,0,0,3.64-9.48C290.42,220,292.6,214.08,294,208s1.63-12.11-.88-18a5.3,5.3,0,0,1,0-1.54c4.47,1.65,8.68,3.26,12.91,4.76,3.27,1.17,6.39,2.52,10.1,2.45,2.09,0,3.32-.39,4-1.45a7.63,7.63,0,0,0,.75-4c0-3.07-1.7-5.41-2.84-8-2.42-5.45-5.11-10.77-7.59-16.19-1.93-4.22-3.51-8.64-7-11.91a59,59,0,0,0-25-14.5,64,64,0,0,0-16.75-2.3c-3.75,0-7.51.67-11.27,1A56.61,56.61,0,0,0,232.91,143c-.86.36-1.71.73-2.56,1.11q-4.5,2.2-8.81,4.75c-1.3.76-2.6,1.55-3.88,2.36a4.05,4.05,0,0,1-.35.21c-1,.6-1.91,1.23-2.8,1.91a19.81,19.81,0,0,0-6.34,7.75c-2.26,5.12-4.63,10.19-6.74,15.37-2.49,6.11-4.81,12.29-7.06,18.49a5.31,5.31,0,0,0-.41,2.36,5.18,5.18,0,0,0,5.48,4.87c1.12-.06,2.25,0,3.37,0a3.5,3.5,0,0,1-.38.39,4.3,4.3,0,0,1-1.47.84c-2.65,1.43-5.36,2.78-7.9,4.4-1.34.86-2.61,2.26-2.07,4v0h0a5,5,0,0,0,3.7,3.22,1.32,1.32,0,0,0,.26,0c1.84.44,3.71.78,5.58,1,.22,0,.44.08.65.1h.09c3.76.29,7.54.43,11.31.43a3.34,3.34,0,0,0,3.5-3.1c.08-3.78,0-7.56,0-11.78l-6.13-2,9.48-4a18,18,0,0,0-.92,13.63c2.53,7.69,6.44,14.69,10.31,21.69,2.48,4.54,4.94,9.09,7.61,13.53.35.58.53,1.41.94,2s.58,1.11.9,1.64c.58.84.91,1.77,1.5,2.62l.1.11c.87,1.76,1.91,3.45,2.88,5.17,2.42,4.34,5,8.57,9.2,11.34,2.25,1.46,4.69,3,7.47,2.28q.29-.07.57-.18a18.68,18.68,0,0,0,9.52-7.16c2.66-4,5.45-7.91,7.8-12.07C280.05,245.5,282.48,240.45,284.83,235.37Zm33.28-45.45.12.57-9.62,1.89-.1-.52Zm-14.42-32a8.57,8.57,0,0,1,2.09,3.07c1.51,3.42,3.09,6.82,4.69,10.2,2.17,4.59,4.39,9.16,6.54,13.75a25,25,0,0,1,.95,3l-5.15.93c-2.71.49-5.33,1-7.95,1.36a5.58,5.58,0,0,1-2.34-.48c-5.22-1.58-10.4-3.26-15.64-4.76-10.16-2.92-20.59-3-31-2.68a49.22,49.22,0,0,0-7.42,1.29c-3.59.72-7.16,2-10.75,2.11-5.33.09-10.82.29-15.86-2a2.06,2.06,0,0,1-.37-.23,8.12,8.12,0,0,1-1.78-2.4c-2.73-4.52-1.26-8.76,1-12.93,2.9-5.4,7.76-8.19,13.35-10,6.38-2.07,13-2.89,19.6-3.88,10.27-1.55,20.49-.7,30.72-.74,4.19,0,8.38,1.49,12.56,2.3,1.15.22,2.27.55,3.43.67A5.83,5.83,0,0,1,303.69,157.91Zm-9.4-8.65c.46.31.92.64,1.35,1a18.22,18.22,0,0,1,3.78,3.71c-2-.33-3.95-.53-5.87-1-6.54-1.65-13.19-1.65-19.86-1.55-3.7.06-7.41.13-11.1,0-4.73-.19-9.31.7-13.92,1.49-3.53.6-7.11,1-10.57,1.85-8,2-15.27,5.22-19.5,12.87-2.81,5.09-3.35,10.35-.22,15.6a6.12,6.12,0,0,0,2.07,2.1,15.43,15.43,0,0,0,4.73,1.63,55.39,55.39,0,0,0,6.54.71l.29,0c-3.66,1.69-7.35,1.14-11,.16a25.59,25.59,0,0,1-4.07-1.36,7.47,7.47,0,0,1-1.33-.77c-2.68-1.9-3.4-5.06-3.75-8.13-.55-4.87,1.29-9.32,3.73-13.45,3.28-5.56,8.27-9.09,14.18-11.34a99.77,99.77,0,0,1,10.11-3.22c3.94-1,7.93-1.94,12-2.6a59.81,59.81,0,0,1,8.86-.63c7.58-.08,15.17.13,22.74-.09A18,18,0,0,1,294.29,149.26Zm-84.15,56c.15,2.48.66,4.86-.65,7-.55.09-1.12.14-1.7.18a22.9,22.9,0,0,1-2.62,0c-.59,0-1.16-.07-1.73-.14A22.12,22.12,0,0,1,201,212a13.73,13.73,0,0,1-2.7-.92,7,7,0,0,1-1-.59C199.26,207.23,206,204.38,210.14,205.27Zm3.94.44c0,.71,0,1.41-.06,2.12,0,.49-.07,1-.11,1.47,0,.24,0,.48-.06.72v.06c-.13,1.43-.28,2.9-.4,4.43v0c-4.19.29-8.17.59-12.16-.13v0l-.07,0c-2-.43-3.94-.75-5.85-1.32-1.14-.34-1.75-.86-1.84-1.51s.33-1.4,1.25-2.23c0,.06,0,.13.07.18.26.67.44,1.41.72,2a2.63,2.63,0,0,0,.63.94c.78.71,2.15.68,3.24,1a17.44,17.44,0,0,1,1.74.84h0l.09,0,0,0h.28c2.52.07,5.05.21,7.55.09a2.87,2.87,0,0,0,2.32-1.35h0a29.82,29.82,0,0,0,1-6.58c.08-1.95-1-3.37-3.27-3.85l.1,0C212.49,201.58,214.16,202.59,214.08,205.71Zm2-10.69c-3.2,1.37-6.42,2.71-9.71,3.83a32.07,32.07,0,0,1-6,1.21c-1.47.2-3,.06-3.59-1.66a4.15,4.15,0,0,1,1.14-4.65,23.42,23.42,0,0,0,4.16-5.24,18.06,18.06,0,0,0,1.49-5.35,8.82,8.82,0,0,0,0-3.24c-.63-3.2.75-6,1.84-8.76a107.37,107.37,0,0,1,4.83-9.88,20.52,20.52,0,0,1,5.72-6.56c.78-.61,1.59-1.2,2.41-1.77a78.76,78.76,0,0,1,18-9.24c2.92-1.05,6.08-1.4,9-2.37,7.47-2.43,15.15-1.44,22.75-1.52,4.49,0,8.77,1.35,13,2.87,1.07.43,2.19.74,3.44,1.12h0c-4.51,0-8.89-.14-13.26,0-8.79.38-17.56.77-26.28,2.4a79.5,79.5,0,0,0-14.24,3.7,40.84,40.84,0,0,0-9.64,5.24,28.37,28.37,0,0,0-9.86,13.09,21.67,21.67,0,0,0-.95,12.64c.89,3.91,3,6.79,7.08,7.89,2.49.66,5,1.42,7.58,2.19l-.07,0C222,192.37,219.06,193.78,216.11,195Zm10.2,26.74c-2.16-4.48-4.06-9.08-6.05-13.65-1.59-3.67,0-11.22,3.09-13.79l0,0a13.41,13.41,0,0,1,3.51-1.85c5.34-2.2,10.63-4.43,16.36-5.67,3.07-.66,6.23-.75,9.16-1.57,5.81-1.61,11.66-1,17.43-.79,5,.17,10,1.53,15,2.36.53.09,1.07.17,1.6.21,2.63.25,4,1.75,4.92,4.19,1.72,4.44,1.45,9,1.18,13.54a33.39,33.39,0,0,1-1.69,7.53c-1.38,4.5-3,8.94-4.43,13.42a6.47,6.47,0,0,1-2.13,3.06,13,13,0,0,1-3.24,1.84,41.05,41.05,0,0,1-15.2,3.82l-.31,0c-3.74.12-8.23.5-12.33.91a50.5,50.5,0,0,1-5.21-.38,3.78,3.78,0,0,0-.83-.24,4,4,0,0,0-.86-.08,25.52,25.52,0,0,1-6-1,39.11,39.11,0,0,1-9-3.86C228.44,228,227.71,224.57,226.31,221.76ZM261,267c-3.54,1.86-6.08.24-8.62-1.49-3.09-2.1-4.89-5.37-6.73-8.53-1.53-2.62-2.93-5.32-4.51-7.9-.05-.06-.12-.1-.17-.16a11,11,0,0,0-.88-1.57,17.47,17.47,0,0,1-1.31-2.5,2.73,2.73,0,0,0-.43-.91c-2.37-3-3.36-6.81-5.58-9.91a8.65,8.65,0,0,1-.52-1.34l.1.06c4.82,2.83,9.83,3.28,15,3.95a1,1,0,0,0,.56.25c1.44.19,2.89.29,4.34.35a6.75,6.75,0,0,0,1.19.09c3.85-.1,7.74.41,11.55-.79,1.25-.39,2.69-.14,4-.34A53.11,53.11,0,0,0,282,232.49a23.45,23.45,0,0,0,2.56-1.5l0,0c-1.86,4.07-3.29,7.71-5.14,11.11-3,5.62-6.18,11.22-9.67,16.57A23.49,23.49,0,0,1,261,267Z" transform="translate(1.33 -0.4)"/><path class="cls-1" d="M430.63,206.92c-2.08-1.9-2.11-2-4.92-1.94-13.41.11-26.84-.61-40.2,1.1a22.35,22.35,0,0,0-2.77.78h0l-.3.82v0a10.35,10.35,0,0,0,2.13,2,46.45,46.45,0,0,0,15.16,4.89c8.58,1.21,17,.87,24.85-3.23,2.24-1.17,4.71-2,6.05-4.42h0S430.63,206.93,430.63,206.92Zm-23.51,6.26h0c-6.39.15-12.31-1.4-18.27-3.7-.85-.33-1.7-.67-2.56-1,.81-.14,1.61-.26,2.41-.38a131.42,131.42,0,0,1,19-1.12h2.35c4.71,0,9.4.11,14.08,0h3.15C423.3,210.81,415.46,213,407.12,213.18Z" transform="translate(1.33 -0.4)"/><path class="cls-1" d="M360.73,160.6a4,4,0,0,0-3.63-4.26c-3.58-.22-7.2-.47-10.55,1.43a9.92,9.92,0,0,0-1.63,1.16,5.23,5.23,0,0,0-1.5,2l-.09.2c0,.06,0,.11,0,.17a5.27,5.27,0,0,0-.14.6V162a4.59,4.59,0,0,0,0,.75h0l0,.71c.18,6.54-.57,13,1.17,19.51.05.21.1.42.16.63a22.59,22.59,0,0,0,2.79,6.3c.07.11.13.22.2.32l.14.2a22.27,22.27,0,0,0,8.91,7.62,3.07,3.07,0,0,0,2.73.27c.93-.42,1.49-1.51,1.49-3.1v-4.33c0-4.33,0-8.66,0-13,0-5.78,0-11.55,0-17.31Zm-3.36-2.35h0c.45,1.06.9,2.15,1.51,3.59a15.56,15.56,0,0,1-2.22.25c-3.58.16-6.91-.77-10.29-.77C349.22,157.5,353.27,158.32,357.37,158.25Zm-11.29,7.61c1.62-.15,3.2-.22,4.67-.23,4,0,7.19.44,7.9,1.24a11.28,11.28,0,0,1-4.92.86c-3.48.05-7.56-.57-8.87-1.76Zm-1.61,5.81c.49-.3,1-.88,1.45-.87h0c3.94.1,7.88.31,11.82.5a3,3,0,0,1,.77.29c.33,1,.13,1.61-.52,1.84l-.24.05-.13,0h-.45c-4.16-.35-8.31-.81-12.47-1.22Zm14,24.79h0c-.61-.23-1.21-.48-1.79-.74a16.67,16.67,0,0,1-8.72-8.27l10.51,1.4Zm-.07-11.92h0c-3.56-.23-7.13-.42-10.68-.74-.46-.05-.86-.78-1.28-1.19l.3-.52h0c3.66.19,7.32.33,11,.61.44,0,.82.75,1.23,1.16Zm-.14-5.94a1,1,0,0,1-.53.32,32,32,0,0,1-4.59,0c-2.54-.13-5-.43-7.79-.71a3.49,3.49,0,0,1-.26-.79,6.12,6.12,0,0,1,.16-1v-.06l14,1.25C358.81,178,358.51,178.35,358.26,178.6Z" transform="translate(1.33 -0.4)"/><path class="cls-1" d="M243.63,267.16l-.11-.2c-.29-.55-.54-1-.79-1.47l-.18-.33c-3.12-5.56-6.21-11.14-9.41-16.65l-.06-.07c-.73-1.16-1.54-2.28-2.38-3.38a2.54,2.54,0,0,0-.13-.91c-3.26-4.81-6.62-9.56-9.8-14.43-3.41-5.22-8.53-6.77-14.29-6.76-2.68,0-5.34.77-8,.95a7.44,7.44,0,0,0-4.21,1.32c-1.25,1-1.82,2.55-1.88,4.94-.09,4,1.51,7.54,3.43,10.84a72.09,72.09,0,0,0,14,16.88c.88.8,4,2.88,5.08,3.7h0a13.39,13.39,0,0,0,2,1.7,15.66,15.66,0,0,1,1.35,1,21.13,21.13,0,0,0,11.59,5.49,74,74,0,0,0,9.18.07,5.63,5.63,0,0,0,4.63-2.61l0-.07Zm-48.12-40a3.74,3.74,0,0,1,2.6-1.2,55.45,55.45,0,0,0,6.69-.62c3.14-.57,6.08.21,9,1,1.32.38,2.42,1.57,3.62,2.38l0,0-.44.5-21.61,2.34A3.71,3.71,0,0,1,195.51,227.15Zm44.85,40.41c-10.53,2.46-18.68-2.24-26.53-9,0,.06,0,.11,0,.17a12.16,12.16,0,0,0-.95-1,2.31,2.31,0,0,0-.77-.85c-5.34-5-10.51-10.21-14.15-16.69-1.06-1.87-2.46-3.66-2.37-6.52L219,231.1c3.11,4.46,6.15,8.7,9.06,13l.19.26a5.25,5.25,0,0,0,.46.62l1.22,1.79h0c.67,1,1.37,2,2,3s1.14,1.73,1.58,2.45c.13.2.26.41.38.62l.19.34c2.06,3.81,3.93,7.75,6,11.58l.2.37C240.73,266,241,266.74,240.36,267.56Z" transform="translate(1.33 -0.4)"/><path class="cls-1" d="M811.29,196.61v.46a2.82,2.82,0,0,1-.19-.51c-.42-5.54-.8-11.09-1.26-16.63s-1-11.08-1.49-16.62c-.12-1.44,0-2.9-.15-4.32-.42-3.64-1-7.27-1.43-10.9-.24-1.87-.37-3.75-.63-5.61-.55-4.07-1-8.16-1.77-12.2s-1.69-8-2.48-12c-.26-1.32-.24-2.69-.48-4-1.15-6.41-2.28-12.83-3.54-19.22-.72-3.67-1.77-7.27-2.5-10.93-.87-4.38-1.48-8.8-2.34-13.18-.73-3.75-1.69-7.46-2.47-11.2-.27-1.31-.25-2.68-.48-4-.61-3.43-1.11-6.89-2-10.26-1.23-4.92-2.64-9.79-4.11-14.64-1-3.39-2.32-6.7-3.45-10.07a19.46,19.46,0,0,0-8.28-10.51c-1.13-.71-2.37-1.25-3.44-2-2.18-1.63-4.56-1.48-6.92-.78-7,2.08-14,4.12-21,6.45-6.74,2.28-13.36,5-20.06,7.35A135.62,135.62,0,0,0,691.7,36.42a113.4,113.4,0,0,0-18.61,15.31c-2.36,2.42-4.94,2.53-8.42.06a29.44,29.44,0,0,1-9.42-11.22c-2-4.1-4.44-8-8.78-10.15a28,28,0,0,0-6.05-2.16c-5.74-1.31-11.51-2.46-17.29-3.59-5.52-1.08-11-2.23-16.61-3S595,20.45,589.16,19.83c-3.92-.42-7.84-.91-11.76-1.37-.27,0-.52-.15-.79-.17-5.1-.39-10.2-.73-15.3-1.17s-10-1.07-15-1.42-10.25-.41-15.36-.76c-5.64-.39-11.26-1.06-16.9-1.43-3.87-.26-7.79.1-11.62-.38-11-1.38-22.06-1.32-33.11-1.46a4.88,4.88,0,0,1-.91-.18,4.22,4.22,0,0,1-.58-1.09c-.9-4.84-4.78-6-8.7-6.74-5.34-1-10.74-1.83-16.13-2.6-1.86-.27-3.78-.1-5.67-.2-1.07,0-2.12-.23-3.18-.35h1L434.24.4H370.85A7,7,0,0,1,369,.74c-5.8-.39-11.44.92-17.09,1.78-2.19.34-4.52.89-6.17,2.44A6.44,6.44,0,0,0,344,7.67a26.1,26.1,0,0,0-.67,4l-.18.2a.29.29,0,0,1-.2.12c-5.55.43-11.1.86-16.65,1.26-3.5.26-7,.48-10.51.72-4.42.3-8.84.55-13.25.93-5,.43-10,1-15,1.48-.89.09-1.79.11-2.69.12-5.67.11-11.33.18-16.88,1.53a6.73,6.73,0,0,1-1.62.1,85.76,85.76,0,0,0-16.61,1.5c-2.78.57-5.73.32-8.6.55-4.56.36-9.12.74-13.67,1.22-3.75.39-7.46,1-11.21,1.38-3.48.35-7,.47-10.48.79-4,.38-8,.86-12,1.31s-7.83.87-11.73,1.4c-2.83.38-5.64,1-8.46,1.39-1.34.07-2.67.2-4,.4-3.61,1-7.22,2-10.75,3.21a10.25,10.25,0,0,0-1,.41,13.85,13.85,0,0,0-4.86,4.59c-2.67,3.8-5.25,7.69-8.15,11.31-.41.52-.84,1-1.29,1.48a25,25,0,0,1-4.39,3.7c-3.07,2.09-5.52,1.63-7.91-1.33-8.23-10.19-18.54-17.91-29.65-24.54A202.53,202.53,0,0,0,79.6,15.39C70.33,11.3,60.73,8,51.25,4.33a4.19,4.19,0,0,0-2.38-.18c-3.64,1-7.35,2.12-9.94,4.89h0a23.75,23.75,0,0,0-4.13,7.08A114.39,114.39,0,0,0,31,27.22c-1.6,5.27-3.16,10.57-4.47,15.92-1.38,5.71-2.43,11.49-3.65,17.24-1.07,5.06-2.19,10.11-3.25,15.17-1.11,5.31-2.15,10.63-3.29,15.94-.93,4.35-2,8.67-2.9,13-.74,3.76-1.2,7.57-1.92,11.33s-1.63,7.49-2.42,11.24c-.24,1.13-.38,2.3-.54,3.45-.63,4.51-1.23,9-1.89,13.52-.35,2.38-.89,4.74-1.21,7.12-.72,5.32-1.34,10.65-2,16-.33,2.57-.82,5.12-1.13,7.69C1.55,181,.92,187.1.16,193.21c-.36,2.92-.94,5.82-1.42,8.72v-.4c0,.13,0,.27-.07.4v19.51a2.68,2.68,0,0,1,.28.76c.4,6.36.69,12.74,1.21,19.09.24,3,.91,6,1.35,9,.24,1.6.37,3.21.62,4.8.59,3.7,1.15,7.41,1.84,11.09.91,4.9,2,9.78,2.91,14.69.7,3.77,1.21,7.57,1.93,11.34.74,3.93,1.66,7.83,2.44,11.75.23,1.14.18,2.33.38,3.48.67,4,1.31,7.92,2.1,11.85.76,3.75,1.71,7.47,2.53,11.21.34,1.55.56,3.13.83,4.7h0v0h2.18v0h0c-.47-2.07-1-4.13-1.41-6.21-.9-4.27-1.8-8.54-2.64-12.82a7,7,0,0,1-.09-1.29c0-.42,0-.85,0-1.28a3.34,3.34,0,0,0-.05-.43c-.7-4.14-1.38-8.28-2.21-12.4-.75-3.75-1.8-7.45-2.49-11.21C9.45,284.82,8.85,280,8,275.26c-.65-3.87-1.44-7.71-2.23-11.87,2.2-1,4.42-2,6.73-2.91,5-1.87,10.14-3.39,15-5.51a156.34,156.34,0,0,1,18.7-6.44c4-1.15,7.84-2.86,11.84-4,3.61-1,7.35-1.58,11-2.35,4-.84,8-1.69,12-2.51.79-.16,1.62-.12,2.41-.25,3.7-.59,7.39-1.28,11.1-1.8,5.22-.72,10.46-1.3,15.69-2,2.48-.32,4.94-.72,7.4-1.12,14.37-2.31,28.85-2.29,43.34-2.1.35,0,.71.08,1.25.14,1.7,3.85,3.41,7.74,5.12,11.63,2.15,4.89,4.34,9.76,6.43,14.67.05.12.09.23.14.34.29.7.58,1.4.86,2.1,1.32,3.31,2.55,6.67,4.12,9.86,3.23,6.55,6.8,12.93,10.18,19.41,1.77,3.38,5,3.71,8.2,4.12s6.22.83,9.78,1.31v0c.34,2.54.66,5.08,1,7.61l.12.83c.23,1.7.46,3.4.7,5.1s.44,3.17.62,4.75c.32,2.76.45,5.55.72,8.32.4,4.19.85,8.37,1.28,12.55h1.62A49.9,49.9,0,0,0,212,321c-.59-3-.52-6.11-.83-9.11-.36-4.18-.91-8.34-1.36-12.52-.11-1.05-.16-2.1-.25-3.43,1.09-.1,2-.24,2.82-.24,20.86,0,41.71-.09,62.56.15,8.72.11,17.43,1.08,26.16,1.41,6.76.23,13.54-.11,20.3.23,4.82.23,9.7,0,14.45,1.39,2.12.63,4.51.39,6.59,1.1a11,11,0,0,1,5.2,4.05,31.39,31.39,0,0,1,2.18,3.42,44.74,44.74,0,0,1,4.13,9.21,36.71,36.71,0,0,1,1,8.54c.19,3.32.15,6.64.21,9.95h2.13c-.2-4.39-.32-8.79-.62-13.18-.2-3.38-.47-6.76-2-9.92-.25-.58-.52-1.15-.8-1.72a41.4,41.4,0,0,0-6.59-9.59,12.77,12.77,0,0,0-8.14-3.64l-2-.2c-.09-.88-.17-1.65-.26-2.58h0l0-.12c3.16-.61,5.69,1.08,8.16,2.25a16.81,16.81,0,0,1,8.29,9.09c1.85,4.34,3.83,8.62,4.76,13.25.8,4,1.14,8.15,1.8,12.21a31.71,31.71,0,0,0,1.24,4.06h1.6a4.83,4.83,0,0,0,0-1.47c-1.32-4.31-1.57-8.76-2.19-13.18-.54-3.92-2.09-7.75-3.5-11.5a63.91,63.91,0,0,0-3.8-7.64c-1.92-3.56-5.18-5.63-8.72-7.21-2.33-1-4.84-1.66-7.55-2.56-.2-2.2-.55-4.5-.61-6.82-.42-15.59-.77-31.18-1.17-46.77-.05-2-.38-3.94-.44-5.92a14.2,14.2,0,0,1,.44-2.66h0a22.1,22.1,0,0,1,7.83,1c7.82,2.15,14.38,7.05,21.86,9.9a59.86,59.86,0,0,0,6.91,2c2.67.69,5.38,1.26,8.45,2,0,.85.15,1.88.15,2.92v37.64a31.83,31.83,0,0,0,1.48,10.26c.88,2.6,1.16,5.4,1.79,8.09a45.42,45.42,0,0,0,8.12,17.93c3.45,4.4,7.77,7.46,13.52,7.69a17.47,17.47,0,0,0,14.08-6.09,39.08,39.08,0,0,0,7.93-14.12c1.32-3.87,2.36-7.85,3.29-11.84a35.56,35.56,0,0,0,.76-4.56,114,114,0,0,0,.38-11.7v0c.05-7.74.3-15.48.53-23.22.11-3.77.39-7.54.5-11.31.05-1.86.61-2.93,2.65-3.38,4.77-1.06,9.53-2.22,14.19-3.68,5.53-1.73,10.93-3.87,16.42-5.71,4.29-1.43,8.64-2.68,13-4,.58-.17,1.13-.46,2.22-.91h0c-.13,1.81-.21,3.35-.37,4.88-.2,1.87-.6,3.73-.7,5.61,0,.74-.06,1.48-.08,2.22-.1,3.27-.05,6.57-.38,9.8-.06.57-.13,1.15-.22,1.71-1.14,7.33-1.18,14.69-1.61,22.05-.39,6.8-1.32,13.57-2.06,20.79-1.93,1-4.36,2.18-6.76,3.45A24,24,0,0,0,457.18,313c-1.4,4.31-2.38,8.76-3.66,13.12-.89,3.06-2,6.05-3,9.07h1.59a75.92,75.92,0,0,0,2.87-7.34c1.5-5.3,2.68-10.67,4.76-15.81q.48-1.15,1.05-2.22a24.9,24.9,0,0,1,11.54-10.64c1.11-.55,2.3-.92,3.68-1.46.28,1.47.52,2.72.75,3.91v0c-3.08,2-6,3.87-9,5.75a5.06,5.06,0,0,0-2.28,4.21c-.52,5-1.19,9.89-1.83,14.89-.38,2.9-.81,5.8-1.21,8.69h2.12c1.17-8.48,2.34-17,3.53-25.61l.05,0v0a73,73,0,0,1,9.81-5.76c5.87-2.82,12.2-3.37,18.38-4.55,5.17-1,10.49-1.19,15.74-1.8,2.3-.27,4.59-.76,6.9-1.05,4.36-.54,8.72-1.08,13.09-1.49,3.5-.33,7-.56,10.5-.66,13.69-.42,27.38-.76,41.07-1.18,2.25-.06,4.46-.36,7-.57,0,2.47.08,4.48,0,6.55s-.27,4.13-.46,6.18c-.45,5-1,10-1.45,15-.08.9-.09,1.8-.18,2.69-.29,3.12-.63,6.24-.89,9.36-.08,1,0,2,0,3h2.06c.23-3.92.4-7.86.73-11.79.37-4.65.88-9.28,1.33-13.92.07-.62.21-1.24.26-1.87.38-4.82.74-9.65,1.13-14.68l.12,0a20.39,20.39,0,0,1,2.06-.28c2.79,0,5.6-.15,8.39,0a10.46,10.46,0,0,0,4-.61c3.91-1.35,7.64-4.72,8.8-8.61,1.49-4.91,3.84-9.54,5.71-14.34,1.44-3.72,2.66-7.54,4.09-11.27,1.5-3.9,3.16-7.74,4.72-11.63,1.13-2.81,2.19-5.66,3.32-8.48s2.27-5.44,3.46-8.26H638v0a98.68,98.68,0,0,1,31.39-.36,21.7,21.7,0,0,0,3.51.14,36.07,36.07,0,0,1,11.41,1.45c1.23.39,2.67.18,4,.39,4,.61,7.92,1.22,11.85,2,3.58.72,7.1,1.75,10.67,2.48,4.2.87,8.44,1.49,12.64,2.36,3.3.68,6.54,1.62,9.82,2.39,1,.25,2.17.29,3.17.52q8.09,1.78,16.15,3.61c4.66,1.07,9.37,2,14,3.29,4.41,1.19,8.67,2.74,13,4.07,2.13.65,4.3,1.16,6.45,1.74,4.73,1.29,9.46,2.56,14.17,3.9a16.16,16.16,0,0,1,2.42,1.13c-.39,3.33-.63,6.52-1.16,9.66-.7,4.12-1.64,8.19-2.44,12.29-.27,1.4-.41,2.83-.61,4.26-.6,4.32-1.1,8.7-1.82,13s-1.66,8.57-2.46,12.86c-.31,1.68-.46,3.38-.74,5.06-.58,3.35-1.12,6.8-1.81,10s-1.57,6.36-2.36,9.53h2c.78-3.9,1.52-7.83,2.37-11.73.78-3.55,1.72-7.06,2.52-10.6.29-1.31.36-2.67.54-4,.59-4.33,1.09-8.68,1.81-13S800.2,287.24,801,283c.27-1.41.43-2.84.62-4.26.58-4.24,1.06-8.51,1.75-12.73s1.64-8.42,2.43-12.63c.18-1,.13-2,.26-3,.72-5.21,1.44-10.43,2.2-15.64.51-3.53,1-7.07,1.61-10.59.39-2.37.93-4.71,1.4-7.06v.61c.05-.22.1-.45.14-.68V197A2,2,0,0,1,811.29,196.61ZM772.42,14.78a5.33,5.33,0,0,1,4.84,3.6,123.39,123.39,0,0,1,6.93,20.19c1.25,5.11,2.42,10.21,3.22,15.42.57,3.68,1.68,7.27,2.48,10.91.28,1.31.27,2.68.52,4q1.68,9.19,3.45,18.39c1.07,5.61,2.13,11.22,3.28,16.8.76,3.66,1.84,7.26,2.51,10.93.89,4.93,1.48,9.91,2.29,14.84.74,4.5,1.65,9,2.42,13.45.3,1.76.44,3.55.63,5.33q.66,6.12,1.27,12.25.75,7.11,1.46,14.19c0,.54.13,1.08.15,1.61.21,5.4.32,10.8.62,16.2.19,3.39.68,6.77,1,10.16.06.6,0,1.22,0,2.3v.06L735,192.14v-.28c2.6-.61,5.22-1.14,7.79-1.85s5.4-1.67,8.1-2.51c4.09-1.27,8.22-2.42,12.25-3.83,2.66-.93,4.34-3.19,5.45-5.6,1.78-3.89,3.28-7.93,3.43-12.29.06-1.86,0-3.73,0-5.59,0-2.54-1.57-4.19-3.44-5.41q-.9-.57-1.83-1.11a50.38,50.38,0,0,0-14.47-5.6c-3.31-.77-6.55-1.9-9.87-2.64-3.84-.85-7.74-1.44-11.61-2.14-.8-.14-1.6-.24-2.38-.44-5.71-1.5-11.61-1.43-17.41-1.56-8.18-.18-16.34.71-24.08,3.68-4,1.54-8.09,3.1-11,6.46a11.09,11.09,0,0,0-2.91,6.12.07.07,0,0,1,0,0c-.05.5-.13,1-.21,1.49a50.49,50.49,0,0,0-.77,5.42,1.64,1.64,0,0,1,0,.23,9.8,9.8,0,0,0,.1,1.33.13.13,0,0,0,0,.06c.19,1.45.61,2.91.72,4.37a34.19,34.19,0,0,1-.06,5.9v0a26.75,26.75,0,0,1-1.25,4.41l-7.59-.64c-.23-1.59-.47-2.9-.61-4.22-.46-4.27-.84-8.56-1.33-12.82-.15-1.29-.32-2.58-.49-3.88s-.32-2.49-.49-3.74-.34-2.53-.5-3.81c-.27-2.32-.31-4.66-.57-7-.54-4.8-1-9.61-1.78-14.38-.66-4.22-1.68-8.39-2.47-12.59-.33-1.76-.12-3.71-.79-5.3a7.91,7.91,0,0,1,0-6.52,20,20,0,0,1,2-3.48c3.67-5.36,7-10.94,10.59-16.37s7.06-10.88,10.81-16.16c5.81-8.16,12.17-15.87,19.86-22.38,4.37-3.69,8.71-7.42,13.08-11.11a38.48,38.48,0,0,1,11.29-6.6c6.83-2.58,13.59-5.36,20.46-7.82,4-1.44,8.18-2.47,12.29-3.62s8.21-2.32,12.36-3.31A17.74,17.74,0,0,1,772.42,14.78Zm-78,147.5c-.15-3.39.75-6.53,1.49-9.75a4.92,4.92,0,0,1,4.67-4.06c4.88-.55,9.76-1.48,14.65-1.5h0A62.86,62.86,0,0,1,733,149.39c3.33,1,6.81,1.4,10.14,2.35,6.61,1.89,13.28,3.79,20.14,7.15-.2,2.93-.31,5.83-.52,8.7-.12,1.6-.25,3.2-.48,4.78a8.08,8.08,0,0,1-1,2.94,9.74,9.74,0,0,1-5.45,4.23c-.57.2-1.15.38-1.76.53-5,1.26-10,2.57-15,3.88-3.54.92-7,2-10.6,2.82a48,48,0,0,1-12.38,1.56c-1.39,0-2.78-.07-4.17-.2-4.15-.46-8.23-1.54-12.35-2.33-1.14-.21-2.29-.35-3.68-.56a83.07,83.07,0,0,1-1.35-8.9C694.3,171.66,694.63,167,694.42,162.28Zm29.06,27.9a6.12,6.12,0,0,1,1.5-.78c3.73-.83,7.5-1.5,11.2-2.43,5.07-1.27,10.09-2.7,15.12-4.11.93-.26,1.85-.59,2.78-.91l.25-.08a27.22,27.22,0,0,1,3.08-.91,8.61,8.61,0,0,0,1.27-.39,7.71,7.71,0,0,0,4.13-3.68,14.3,14.3,0,0,0,1.33-3.76,42.53,42.53,0,0,0,1.34-12h0c-.15-2.55-1-4.3-3.45-5.12q-9.64-3.18-19.3-6.4a111.41,111.41,0,0,0-21.84-4.54,58,58,0,0,0-18.81,1.07,32.84,32.84,0,0,0-3.92.81c-3.63,1.34-4.7,4.63-5.06,7.91a136.08,136.08,0,0,0-.59,14.27c0,4.59.33,9.17.51,13.75v2l-10.13-2c2.44-2.23,1.64-4.84,1.64-7.34,0-6.55-.13-13.12.27-19.66a14.79,14.79,0,0,1,4-8.63c1.34-1.52,3.35-1.8,5.28-2.21a78.78,78.78,0,0,1,17.58-1.92c2.57,0,5.14.1,7.69.33.85.08,1.7.17,2.54.27,4.3.61,8.53,1.66,12.8,2.5,3.93.77,7.92,1.32,11.8,2.3,6.95,1.76,13.91,3.55,20,7.52a7.78,7.78,0,0,1,3.54,9c-.78,3-1.55,6-2.2,9.1-1.27,6-5.76,8.24-11,9.71-2.49.7-5,1.25-7.51,1.91q-5.67,1.53-11.37,3.08c-2.81.82-5.69,1.68-8.16,2.39h0l-6.26-1ZM682.2,173.71a31.53,31.53,0,0,1-.57,6.14c-.25,1.34-1.8,2.3-3.36,2.4a3.56,3.56,0,0,1-1.49-.18,11.35,11.35,0,0,1-1.82-.89c-.15-4.94-.36-9.7-.46-14.42,0-1.57,0-3.14,0-4.71a15.56,15.56,0,0,1,1.36-6.4c2-4.24,4.63-6.14,9.14-7.52l0,0c-1,3.38-2,6.84-3,10.31a7.78,7.78,0,0,0-.29,2.4C681.85,165.12,682.14,169.41,682.2,173.71Zm-29.74-61.54c.47,1.8.81,3.64,1.12,5.48.73,4.31,1.38,8.63,2.1,12.94.84,5,1.79,10,2.55,15,.36,2.39.33,4.84.55,7.26.37,4.19.73,8.38,1.2,12.56.4,3.55,1,7.09,1.41,10.64.17,1.43.15,2.77.21,4.11l-4.4,1.71h-.05c-.22-2.16-.4-4.17-.62-6.18-.44-4-.86-8-1.35-12-.6-4.78-1.21-9.57-1.94-14.33-.75-4.93-1.72-9.83-2.47-14.76-.39-2.57-.48-5.18-.74-7.77-.39-3.82-.61-7.68-1.28-11.46a18.14,18.14,0,0,1,2.56-13.31c5.15-8.5,10.8-16.64,16.46-24.8a168.23,168.23,0,0,1,25.52-29.52c1.92-1.72,4-3.2,5.88-5-.39.42-.79.83-1.19,1.25-3.63,3.78-7.35,7.49-10.81,11.43-3.83,4.38-7.42,9-10.84,13.64-3.74,5.12-7.22,10.44-10.7,15.75s-6.81,10.69-10.2,16a7.45,7.45,0,0,1-.88,1.35C651.75,105.07,651.5,108.46,652.46,112.17ZM692,38.78a176.74,176.74,0,0,1,24.21-13.57c4.92-2.28,10.17-3.86,15.28-5.69,5.45-1.95,10.91-3.87,16.39-5.72,2.19-.74,4.46-1.25,6.69-1.89,3.5-1,7-2,10.81-3.13l5.64,3,0,0-15.86,4.51c-3.94,1.13-7.93,2.15-11.8,3.49-6.69,2.29-13.4,4.63-19.9,7.29a111.59,111.59,0,0,0-14.64,7.3A178.33,178.33,0,0,0,693.6,44.9a91.49,91.49,0,0,0-16.08,16.17c-3.66,4.62-7.32,9.26-10.76,14.05C662.55,81,658.4,86.88,654.53,93q-4.47,7.16-8.21,14.72a5.28,5.28,0,0,0-.42,2.42c0,.87.12,1.77.2,2.58,0,.21,0,.42.07.63.23,2.24.52,4.48.83,6.72.17,1.28.34,2.57.5,3.85.44,3.55.85,7.1,1.3,10.65.64,5,1.24,9.94,2,14.88s1.74,9.67,2.47,14.53c.41,2.75.46,5.55.76,8.31.25,2.41.66,4.79.93,7.19a31.76,31.76,0,0,1,0,3.38l-8.13,3.35v0l-1.44-6q-.6-2.52-1.18-5-.71-3-1.38-6a20.08,20.08,0,0,1-.34-3.2c-.21-3.94-.25-7.87-1.44-11.72-.57-1.84-.39-3.91-.66-5.87-.54-4-1.1-7.95-1.75-11.92-.79-4.84-2-9.64-2.45-14.52a58.53,58.53,0,0,1,0-13.23c.38-2.79,2.06-5.52,3.59-8,3.76-6.15,7.55-12.3,11.73-18.17,5.65-7.91,11.35-15.81,17.62-23.22A113,113,0,0,1,692,38.78ZM472.83,162.48c0-3.56-2.27-6-5.26-7.88-3.29-2-7-2.42-10.63-2.42H366.23l-3.66,0c-2,0-4,0-5.95,0h-.68a20.68,20.68,0,0,0-11.66,3.5,9.57,9.57,0,0,0-4.43,8.42h0a2.26,2.26,0,0,1,0,.26c.09,5.41,0,10.86.57,16.21,0,.09,0,.17,0,.25.94,8.16,4.93,14.69,11.54,19.79a65.35,65.35,0,0,0,15,8.7c3.12,1.29,6.12,2.55,8.19,5.25a27,27,0,0,1,2.3,4.39h0c-5.55,2-28.56-4-38.1-9.71h0a28,28,0,0,0,.26-3.64c.06-5.24-1.18-10.47-1.65-15.76a16.46,16.46,0,0,0-1.07-4.12,9.28,9.28,0,0,1-.51-3.4c0-1.89.44-3.78.59-5.66,0-.31.05-.62.05-.93.09-4.55-1.95-8.12-4.85-11.47a153.28,153.28,0,0,0-17.87-17.34l-1.21-1c-1-.86-2-1.74-3.05-2.66l-2-1.74h0c7.94-.4,15.41-.6,22.85-1.19a158,158,0,0,0,17.49-2.23c4.32-.83,8.45-2.65,12.72-3.81,3.68-1,7.47-1.63,11.18-2.57,5-1.26,10.16-1,15.14-1.83,10.17-1.7,20.34-.69,30.48-.7,5,0,10,1.53,15,2.45,3.68.68,7.38,1.32,11,2.26,4.62,1.2,9.13,2.88,13.76,4s9.14,2.4,13.93,2.51c13.06.3,26.12.71,39.18,1.08,6.67.18,13.34.33,20,.53,9.5.3,19,1.6,28.5,1.13,2.58-.13,5.19.3,7.8.43,1.08,0,2.16,0,3.24,0,3.15-.14,6.32-.11,9.43-.52,4-.53,7.31,1.25,10.77,2.6,3.64,1.43,7.18,3.14,10.88,4.4,10.29,3.51,20.32,7.58,29.51,13.48,2.31,1.49,4.68,2.91,6.9,4.53a6.85,6.85,0,0,1,2.39,2.81c1.81,4.85,3.59,9.72,4.07,15,.18,2,.81,3.86,1,5.81.62,6.27-1.31,12.16-2.91,18.42l0,.07c-2.23-.31-4.42-.61-6.6-.93a90.23,90.23,0,0,1-10.07-1.5c-6.84-1.76-13.84-.41-20.7-1.43a35.93,35.93,0,0,0-4.87-.12H560.08c-10.55-.06-21.1-.33-31.66-.36-6,0-12.07.42-18.1.35-4.86-.06-9.7-.65-14.55-.87a45,45,0,0,0-6.46.26c-2.95.26-5.89.67-8.8,1.22a78.35,78.35,0,0,0-7.95,2.28c-4.23,1.37-8.43,2.84-12.65,4.24-2.54.84-5.06,1.72-7.64,2.41-3.36.91-6.77,1.62-10.15,2.44-1.6.39-3.18.84-4.76,1.26l-.52-.59a75.79,75.79,0,0,1,3-7.65,6.88,6.88,0,0,1,2.28-2.21,8.1,8.1,0,0,1,.93-.47c5.2-2.31,10.56-4.26,15.71-6.65h0c5.64-2.62,9.11-7.34,11.41-13C473.64,180.27,473,171.33,472.83,162.48ZM335.09,175.19a11.11,11.11,0,0,1-.24,2.38l-7.06-15.19c.47.55.95,1.1,1.43,1.64,1,1.1,1.93,2.19,2.8,3.34l.63.87a17.73,17.73,0,0,1,1.09,1.81,11.75,11.75,0,0,1,.82,1.94,10.18,10.18,0,0,1,.49,2.37C335.07,174.62,335.09,174.9,335.09,175.19Zm-30.75-36.38c-.89,0-1.78-.76-2.66-1.17l.1-.73h40.76C331.8,138.54,318.09,139.1,304.34,138.81Zm250.36,1H555c10.24-.14,20.49-.59,30.72-1l1.67-.08c.16,0,.32,0,.48-.06A66.78,66.78,0,0,0,595,137.5c-2.11,1.13-4.14,2.42-6.8,2.57-4.84.27-9.65,1.1-14.49,1.39-.9.06-1.8.08-2.7.08-2.68,0-5.38-.17-8.08-.23h-.12c-.46,0-.92-.15-1.39-.18h-.1c-7.38-.16-14.76-.26-22.15-.48-9.3-.27-18.61-.64-24.18-.83C525.71,139.81,540.2,140,554.7,139.82Zm-28.11-2.23,0-.52c1,0,2,0,3.08.05,1.56,0,3.12.08,4.68.07a37.81,37.81,0,0,0,4-.22c3.51-.39,7.22.4,10.57-1.35a2.44,2.44,0,0,1,1.07-.09l38.15-.53a6,6,0,0,1,3.18,1l-.11,0c-1.3.24-2.61.48-3.89.7a9.73,9.73,0,0,1-1.08,0c-11.36.24-22.72.45-34.08.76-4.76.13-9.51.59-14.26.71-3.39.09-6.79-.12-10.18-.23A4.25,4.25,0,0,1,526.59,137.59ZM648.94,37.44c.18-.46.39-.92.59-1.38l.66-.19.06,0c1.65,2.94,3.12,6,5,8.79,2.83,4.14,6,8.11,10.85,10,1,.38,2,.6,3.26,1h0c-1.68,2.09-3.41,4.16-5.06,6.3-4.73,6.15-9.56,12.22-14.08,18.51-3.65,5.08-7,10.38-10.31,15.7a107,107,0,0,0-5.29,9.91,7.92,7.92,0,0,0-.65,2.47c0,.31,0,.63,0,.94.12,5.76.09,11.54.64,17.27.43,4.5,1.66,8.93,2.48,13.4.29,1.58.41,3.2.61,4.8.57,4.61,1.1,9.22,1.73,13.82.37,2.69.89,5.35,1.39,8.33a.43.43,0,0,1,0,.11c-5.19-3.12-9.76-6.06-14.51-8.68a143.14,143.14,0,0,0-13.92-6.93c-4.85-2-10-3.38-14.91-5.2-3.15-1.16-6.17-2.64-9.76-4.2l.19,0c6.33-.63,10.68-4.25,15.11-7.49a30,30,0,0,0,9.11-9.69c1.55-2.88,2.66-6,3.94-9,2.07-4.84,4.15-9.68,6.16-14.55,1.73-4.19,3.32-8.44,5.06-12.64,2.08-5,4.28-10,6.36-15,1.87-4.54,3.55-9.15,5.49-13.66,2.32-5.39,4.87-10.67,7.22-16C647.4,42,648.1,39.69,648.94,37.44ZM463.66,7.3a3,3,0,0,1,1.84,3h0A21.42,21.42,0,0,1,462.78,20a22.86,22.86,0,0,1-3.15,4.58,10.74,10.74,0,0,1-8.32,3.89,13.17,13.17,0,0,0,1.79-.95c3.88-2.43,5.79-6.23,7.21-10.36a20,20,0,0,0,1.14-5.41h0c.19-3.23-1.27-5.11-4.36-6.14a5.16,5.16,0,0,1-2.13-1l0,0C457.83,5.44,460.79,6.25,463.66,7.3Zm-89-3.41c3.52-.12,7.06-.14,10.6-.14h5.24c1.76,0,3.52,0,5.27,0,3.6-.05,7.2-.44,10.79-.4h0c8.82.09,17.65.22,26.46.56.75,0,1.5.1,2.25.17,2.85.29,5.7.83,8.55,1.09l.42,0A47.74,47.74,0,0,1,454,7l.7.22,1,.34c1,.35,2,.72,3,1a17.56,17.56,0,0,1-5.11,16,12.71,12.71,0,0,1-7,3.16l-1.41.22a104.9,104.9,0,0,1-18.08,1.65h0s0,0,0,0c-1.26,0-2.52,0-3.79,0-7.63,0-15.27.43-22.9.39-1.28,0-2.56,0-3.85-.07-6.62-.18-13.31.21-19.88-1.35-2.42-.58-5.05-.25-7.49-.76-3.66-.76-7.47-1.2-10.76-3.2-2.74-1.66-4-4.5-5.26-7.26a29.08,29.08,0,0,1-1.58-5.11,4.76,4.76,0,0,1,3-5.37,41.28,41.28,0,0,1,6.74-1.6Q368,4.25,374.7,3.89ZM346,9.46a5.56,5.56,0,0,1,.37-1.77,3.26,3.26,0,0,1,.55-.92,3.32,3.32,0,0,1,.38-.37,3.56,3.56,0,0,1,1-.55c.65-.22,1.31-.43,2-.62,1.31-.4,2.64-.76,4-1.07.67-.16,1.34-.3,2-.44h0a22.27,22.27,0,0,0-4.45,2.16,5.66,5.66,0,0,0-1,.94A5,5,0,0,0,350.1,8a5.34,5.34,0,0,0-.24.74,12.73,12.73,0,0,0,.22,5.4h0c.89,4.25,2.54,8.21,5.92,11.16h0c.59.47,1.19.91,1.81,1.33s1.25.82,1.89,1.19a12.65,12.65,0,0,1-1.74-.3A14.55,14.55,0,0,1,351.35,24a14.61,14.61,0,0,1-2.79-3.66,20.41,20.41,0,0,1-1.2-2.55A20,20,0,0,1,346,9.46Zm-181,22c5.15-1,10.49-2.14,15.75-3.09,2.11-.37,4.29-.37,6.43-.57,3.92-.38,7.84-.72,11.75-1.19,3.46-.41,6.89-1.08,10.36-1.44s6.81-.41,10.21-.72c4.46-.4,8.9-.91,13.35-1.38.17,0,.34-.13.51-.14,4.74-.4,9.48-.73,14.21-1.19,4.1-.4,8.19-.94,12.28-1.42.45-.06.89-.15,1.34-.17,4.31-.2,8.64-.27,12.94-.6,4.73-.36,9.44-.94,14.16-1.43.18,0,.36-.09.53-.1,6.27-.42,12.54-.78,18.79-1.28,4.46-.36,8.91-.91,13.36-1.38.27,0,.53-.07.8-.08l21.61-.76a3.4,3.4,0,0,1,1,.33h0l-.43.27c1.22,2.38,2.39,4.77,3.65,7.11.16.3.31.6.47.89a11.78,11.78,0,0,0,3.17,3.68,16.78,16.78,0,0,0,7.1,2.94c3.92.78,8,.92,11.88,1.83,7.63,1.77,15.4,1,23.07,1.7a162.07,162.07,0,0,0,20.78.74c7.2-.29,14.41-.42,21.59-1a140.77,140.77,0,0,0,16.76-2.21c4.93-1,9.19-3.37,11.33-8.42,1.2-2.82,2.59-5.55,3.9-8.34v0l-.42-.26-.08-.06a4.18,4.18,0,0,1,1.22-.41c4.15.07,8.3.08,12.44.32,7.36.43,14.7,1,22.05,1.53h.54c7.28.37,14.59.36,21.8,1.24,5.27.65,10.6-.26,15.85,1.28,2.77.82,5.89.46,8.85.67,5.28.38,10.56.73,15.84,1.19,4.64.41,9.26,1,13.9,1.43,2.5.24,5,.35,7.52.59,4,.38,8,.75,12,1.24,3.1.37,6.18.94,9.27,1.39,1.34.19,2.69.23,4,.43,4.15.63,8.31,1.18,12.42,2s8.32,1.91,12.46,3c2.33.58,4.64,1.25,6.93,1.94a2.07,2.07,0,0,1,1.06.59,2,2,0,0,1,.51,1.77,2.29,2.29,0,0,1-.12.37c-.62,1.94-1.25,3.89-2,5.79-1.62,4.15-3.23,8.3-5,12.38-2.33,5.38-4.88,10.67-7.22,16-2,4.49-3.71,9.07-5.64,13.58s-4,8.75-5.82,13.18c-2.46,5.83-4.67,11.78-7.21,17.57a107.4,107.4,0,0,1-6.85,14c-2.25,3.63-5.88,5.87-9,7.41-.47.23-.93.44-1.37.64-3.11-.77-5.2-1.69-7.3-1.73-7.49-.17-15-.1-22.48,0-5,.06-10.09.24-15.12.48-2.06.1-4.1.53-6.16.72-3.57.34-7.15.57-10.72.9-2.22.21-4.42.61-6.64.79-1.14.09-2.31-.24-3.44-.16-3.51.22-7,.56-10.5.83-.9.07-1.8.11-2.7.14-4.77.19-9.54.46-14.31.51-2.87,0-5.75-.39-8.63-.43-7-.08-14.09-.27-21.12,0-4.46.18-8.48-1.18-12.6-2.4-2.66-.78-5.28-1.75-8-2.41-4.18-1-8.37-2.09-12.61-2.74-6.21-.94-12.45-1.82-18.71-2.2a182.34,182.34,0,0,0-18.41,0c-5.38.23-10.74.89-16.09,1.5-4.1.47-8.19,1-12.24,1.77a42.68,42.68,0,0,0-7.28,1.93,34.6,34.6,0,0,1-11.9,1.79q-16.92.26-33.84.6c-5.4.11-10.8.35-16.21.42a8,8,0,0,1-3.64-.74,65.37,65.37,0,0,0-21.44-6.63c-.61-.07-1.23-.12-1.85-.18-3.51-.31-7.06-.41-10.61-.45-2.32,0-4.64,0-7-.06-7.55-.1-14.73,1.8-21.78,4.39a130.67,130.67,0,0,0-16.92,8c-1.47.79-3.69.49-5.51.29-4.41-.48-7.89-3.1-11.56-5.3a20,20,0,0,1-4.14-3.28c-3.56-3.67-5.54-8.42-7.28-13.35-3-8.66-6-17.36-9-26q-1.08-3.11-2.19-6.21c-.36-1-.73-2-1.1-3.07-.7-1.94-1.4-3.88-2.13-5.82-1.94-5.17-4-10.28-6-15.45-.48-1.27-.94-2.54-1.39-3.82-.15-.41-.29-.81-.43-1.22-.47-1.33-.92-2.67-1.36-4-1.33-4.08-2.54-8.2-3.8-12.3l-.09-.26C158.4,34.49,159.86,32.37,165,31.41Zm-8.41,3.84c.08.67.16,1.32.26,2s.2,1.21.32,1.82c0,.14.06.29.09.43.09.46.18.92.28,1.37,0,.13.07.26.1.4.11.47.22.93.34,1.4a1.46,1.46,0,0,0,0,.2c2,7.56,5.24,14.75,7.47,22.27l.09.32c-.56-1.53-1.1-3.08-1.7-4.59s-1.43-3.26-2-4.92C160,50.75,158,45.58,156.18,40.36,155.54,38.62,155.09,36.72,156.6,35.25ZM141.81,53.79a26.57,26.57,0,0,0,4.81-4.95c2.37-2.89,4.43-6,6.78-9.28.9,2.26,1.82,4.42,2.64,6.62,1.81,4.84,3.49,9.74,5.39,14.55,2.43,6.11,5.09,12.12,7.53,18.23,1.84,4.61,3.5,9.29,5.24,14,1.5,4,3.12,7.94,4.47,12s2.23,8,3.62,12c1.74,4.93,3.11,10.06,6.34,14.36,2.86,3.8,6.73,6.43,10.66,8.85,2.64,1.64,5.79,2.47,8.86,3.71h0c-.1.13-.3.7-.67.84-6,2.3-12.07,4.36-18,6.85-10.18,4.29-20,9.17-27.66,17.51-.83.91-1.57,1.91-2.35,2.86l-.64-.14c.57-3.82,1.16-7.63,1.72-11.45.23-1.6.41-3.2.61-4.8.6-4.79,1.16-9.59,1.81-14.37.33-2.38.83-4.74,1.21-7.12a21.18,21.18,0,0,0,.38-3.47c0-6.74-.16-13.49.08-20.22a22,22,0,0,0-2.22-10.33,207.76,207.76,0,0,0-15.31-27.47c-.71-1.09-1.44-2.17-2.18-3.25-3.09-4.45-6.4-8.75-9.79-13.39A10.94,10.94,0,0,0,141.81,53.79ZM53.94,7.4c2.87,1,5.76,1.9,8.58,3,4.14,1.62,8.27,3.26,12.3,5.11C80,17.86,85.06,20.27,90,23c5.79,3.14,11.51,6.45,17.07,10a90.88,90.88,0,0,1,18.17,15,218.32,218.32,0,0,1,16.9,21.12,231.28,231.28,0,0,1,17,28.76c1.23,2.36,2.25,4.82,3.25,7.29a6.5,6.5,0,0,1,.19,2.4c0,6.12-.19,12.24.08,18.34.2,4.56-.84,8.91-1.36,13.35-.59,5.07-1.27,10.12-2,15.17-.33,2.29-.95,4.54-1.22,6.83-.73,6.14-1.25,12.3-2.05,18.42-.38,3-1.21,5.85-2,9.2l0,.09-9.79-5.33c.5-4.26,1-8.42,1.48-12.57.32-2.76.6-5.53.92-8.29.42-3.64.84-7.28,1.3-10.91q1-7.73,2-15.43c.32-2.39.74-4.77,1.1-7.15.5-3.45,1.25-6.89,1.42-10.36.29-5.88.83-11.74-2.2-17.35-3.59-6.62-6.58-13.56-10-20.3A109.87,109.87,0,0,0,123,56.36c-7.6-8.33-15.25-16.64-24.12-23.64a91.29,91.29,0,0,0-12.25-7.6c-4.92-2.74-9.91-5.39-15-7.71-2.85-1.35-5.81-2.51-8.79-3.63C61,13.06,59,12.34,57.08,11.6c-2.23-.85-4.47-1.71-6.76-2.37a58.93,58.93,0,0,0-5.91-1.16C47.54,6.07,50.71,6.31,53.94,7.4Zm87,92.23a42.66,42.66,0,0,1-1.87-3.92l-.06-.13c.79,1.35,1.62,2.68,2.35,4.06,1.1,2,2.1,4.14,3.18,6.19,1.55,2.92.23,5.82-.07,8.7-.14,1.31-.78,2.56-1,3.86-.71,4-1.32,8.1-2,12.15-.84,5.11-1.73,10.2-2.54,15.31-.28,1.76-.39,3.56-.56,5.35-.59,6.14-1.12,12.29-1.77,18.43-.37,3.47-.9,6.92-1.45,10.37-.11.64-.72,1.2-1.1,1.81l-.2-.08-.54-.24c0-.68-.05-1.36,0-2s.29-1,.33-1.58c.58-7.23,1.08-14.48,1.74-21.7.25-2.67.91-5.29,1.29-8,.68-4.77,1.24-9.56,1.94-14.33.33-2.19.91-4.35,1.27-6.54.7-4.13,1.29-8.28,2-12.4a26.71,26.71,0,0,1,1.13-5.22C144.51,105.89,142.45,102.83,141,99.63ZM138,177c.26-1.87.38-3.75.56-5.63.57-6.24,1.1-12.49,1.75-18.72.31-2.93.91-5.82,1.3-8.74.67-5.05,1.17-10.13,2-15.16.59-3.69,1.55-7.31,2.32-11,.33-1.57.6-3.16.87-4.75.08-.44-.1-1,.13-1.33,1.92-2.65.47-5-.71-7.27-3-5.86-6-11.75-9.36-17.45-4-6.85-8.37-13.47-12.47-20.25a101.84,101.84,0,0,0-13.56-18.24c-5.65-5.85-11.77-11.24-17.7-16.81-.47-.43-1.09-.73-1.61-1.16l0,0c2.83.94,5.68,3,8.82,5.78a285.28,285.28,0,0,1,21.94,22,89.66,89.66,0,0,1,12.88,17.61c4.3,8,8.75,15.92,12.59,24.14,2,4.28,3.71,8.83,2.74,14-.72,3.86-.43,7.89-.78,11.83-.24,2.75-.84,5.46-1.2,8.2-.7,5.31-1.33,10.64-2,16-.33,2.48-.86,4.93-1.13,7.41-.75,6.67-1.37,13.36-2.14,20a36.09,36.09,0,0,1-1.25,4.94l-2.75-.14-1.43-.1h0c-.14,0-.29-.17-.68-.4C137.38,180.21,137.78,178.59,138,177ZM.66,202.08c.2-1.86.62-3.7.87-5.55.67-5,1.34-9.93,1.94-14.91.66-5.5,1.2-11,1.87-16.53.3-2.57.8-5.12,1.16-7.68.71-5.23,1.28-10.48,2.11-15.69.66-4.12,1.65-8.18,2.45-12.28.29-1.49.48-3,.72-4.52.57-3.7,1-7.43,1.75-11.11.25-1.26.51-2.52.79-3.77.53-2.44,1.1-4.87,1.66-7.32.19-.81.37-1.63.55-2.46.76-3.85,1.23-7.76,2-11.6.74-3.66,1.78-7.25,2.54-10.9,1.35-6.47,2.49-13,3.92-19.43.53-2.37,1.1-4.73,1.67-7.1.95-3.87,1.94-7.73,2.92-11.58,1.59-6.2,3.28-12.58,5.27-18.75,1-3,2.74-5.79,4.21-8.64a3.6,3.6,0,0,1,2.78-2l.48,0c4.17-.32,7.89,1.17,11.68,2.49,3.28,1.14,6.52,2.4,9.83,3.48A59.14,59.14,0,0,1,78,23.6a144.06,144.06,0,0,1,27.56,23.76,113.67,113.67,0,0,1,8.47,11.34c3,4.24,5.75,8.59,8.5,13,2.61,4.15,5.17,8.33,7.59,12.6,3.17,5.58,6.26,11.2,9.2,16.9,1.08,2.08,2.74,4.08,2.11,6.74-.43,1.82-1,3.61-1.27,5.45-.71,4.14-1.23,8.31-1.95,12.45s-1.65,8.41-2.44,12.62c-.26,1.41-.39,2.84-.55,4.27-.62,5.78-1.22,11.57-1.86,17.35-.36,3.2-.81,6.39-1.17,9.59-.2,1.87-.26,3.76-.46,5.64s-.54,4-.82,6.08l-5,.92h-.07c-.29-2.34-.69-4.44-.76-6.55a98,98,0,0,1,0-11.37c.63-7.24-2.45-12.28-8.23-16.32a51.17,51.17,0,0,0-13.56-6.28,4.25,4.25,0,0,0-1.33-.15c-7.93,0-15.84-.29-23.69,1.42-4.37,1-8.89,1.16-13.32,1.86a58.21,58.21,0,0,0-8.14,1.78q-3,1-6,2a125.07,125.07,0,0,0-12.42,5c-.34.16-.68.31-1,.48s-.84.43-1.25.64c-.63.31-1.25.62-1.86.95s-1.5.84-2.25,1.27l-.76.43-.07,0a9,9,0,0,0-4.57,8,53.21,53.21,0,0,0,.07,9.19,82.8,82.8,0,0,0,2.89,12.46c.72,2.3,3.18,3,5.4,3.49,4.79,1,9.58,1.95,14.4,2.69,2.86.45,5.79.45,8.69.65l0,.24c-9.49,1.93-19,3.89-28.48,5.8l-2.68.54c-8.6,1.72-17.25,3.41-26.27,5.17h0A32.45,32.45,0,0,1,.66,202.08Zm116.12-46.2c-.07-2.36-1.37-4.68-2.06-6.88l0,0,.35.29,4.13,3.54.5.43a7.14,7.14,0,0,1,2.67,4.77c.45,3.64,1,7.22.36,11a17.22,17.22,0,0,0,.57,9.62,8.52,8.52,0,0,1,.17.85,12.43,12.43,0,0,1,.17,2.65h0l-5.74,1.39h0a16,16,0,0,1-1.39-7.69C116.76,169.22,117,162.54,116.78,155.88Zm-12.2-3.48c-1.8-3.89-4.7-5.94-8.93-5.94-2.53,0-5.07-.16-7.58,0-5,.39-10,1-15,1.45-8,.7-15.32,3.58-22.75,6.16-4.8,1.67-9.5,3.63-14.2,5.56a4.71,4.71,0,0,0-2.57,2.14,4.58,4.58,0,0,0-.43,2.16c.19,4.06-.22,8.15.13,12.18.38,4.21,1.31,8.47,5.93,10.27a31.21,31.21,0,0,0,7.45,2.05c8.79,1.13,17.61,1.95,26.81,2.89-1.28.2-2.51.48-3.73.71a14.83,14.83,0,0,1-6.19.17,38,38,0,0,0-4-.21c-3.92-.43-7.83-.93-11.75-1.38-.89-.11-1.8-.09-2.68-.24-3.61-.65-7.22-1.29-10.8-2.05-1.8-.39-2.71-1.73-3.34-3.47-2.53-7-1.76-14.21-1.66-21.37,0-.17,0-.34,0-.5.32-2.63,2.77-3.68,4.79-4.76a104.1,104.1,0,0,1,21.68-8.8,111.61,111.61,0,0,1,15.65-3.19c5.21-.6,10.34-1.9,15.55-2.47,3.84-.41,7.77.05,11.63-.2,6-.4,10.1,3,14,6.75,1.54,1.47,1.86,3.61,1.85,5.76V178c0,1.82.33,3.63.53,5.73h0l-9.64,1.92c.09-4.27.13-8.19.25-12.11s.48-8.1.46-12.15A21.05,21.05,0,0,0,104.58,152.4Zm-.55,7.75c0,4.94-.53,9.88-.77,14.82-.14,2.79-.13,5.59-.22,8.38-.08,2.25-.69,2.87-2.8,3.24-5.82,1-11.6,2.27-17.44,3.08-2.35.32-4.83-.21-7.25-.39-2-.14-4-.3-5.91-.5-4.9-.48-9.8-1-14.71-1.48-2.41-.24-4.84-.31-7.22-.71a60.48,60.48,0,0,1-7-1.7,6.55,6.55,0,0,1-2.11-1,7.71,7.71,0,0,1-2.81-5.64c-.39-3.4-.61-6.82-.68-10.23-.1-5.63.54-6.51,5.9-8.36,6.77-2.34,13.59-4.55,20.38-6.88a58,58,0,0,1,17.24-3.28A112.86,112.86,0,0,0,90,148.07h0l0,.38a53.81,53.81,0,0,0,5.68,0,5.63,5.63,0,0,1,3.73.8,8.55,8.55,0,0,1,2.93,3.63A17.33,17.33,0,0,1,104,160.15Zm55.12,70.29c-5.15,0-10.3-.06-15.44,0s-10.46.2-15.67.58c-4.91.35-9.8,1-14.69,1.62-4,.49-8,1-12,1.63-4.48.75-8.93,1.72-13.4,2.56-1.32.25-2.66.37-4,.57-2.63.42-5.28.77-7.89,1.3-5.09,1-10.19,2-15.21,3.33-6.11,1.59-12.19,3.37-18.21,5.3-3.63,1.15-7.1,2.81-10.69,4.1-5.26,1.89-10.59,3.6-15.85,5.5-3.42,1.31-6.85,2.75-10.53,4.21-1-4.36-1.82-8.72-2.43-13.1C1.29,234.92,1,221.71.25,208.34v0c2.14-.52,3.93-1,5.74-1.38,3.76-.76,7.54-1.42,11.31-2.16,5.4-1.06,10.8-2.16,16.19-3.24s11-2.16,16.46-3.29c4.62-1,9.21-2,13.84-3,3.67-.72,7.39-1.15,11.06-1.89s7.41-1.73,11.12-2.55c1.13-.25,2.31-.3,3.46-.47,4-.6,8-1.12,11.89-1.84,4.1-.75,8.15-1.74,12.23-2.55,1.23-.24,2.51-.22,3.75-.37,5.23-.62,10.45-1.64,15.69-1.8a25.06,25.06,0,0,1,15.22,4.31c1.8,1.24,4,1.93,6.31,3v6.3a37.89,37.89,0,0,0,1.45,11.7c1.19,3.71,1.48,7.71,2.43,11.51.79,3.19,2,6.27,3,9.63A18.68,18.68,0,0,1,159.15,230.44Zm.08-16.06c-1-3.68-1.73-7.45-2.55-11.18a9,9,0,0,1-.17-1.88c0-2.61.09-5.23,0-7.84a43.34,43.34,0,0,1,3.3-17.77,17,17,0,0,1,3.44-5,59.36,59.36,0,0,1,20.95-14.54c1.56-.67,3.11-1.36,4.66-2,2.49-1.11,5-2.23,7.49-3.3l1.19-.51,0,0,1.46-.49.79-.27.28-.07c.67-.2,1.33-.39,2-.55h0l-13.76,17h0a19.08,19.08,0,0,0-7.24,1.21,19.44,19.44,0,0,0-6.24,3.78c-4.21,3.9-6.82,8.56-5.23,14.57a15.63,15.63,0,0,0,5.5,8c.74.61,1.39,1.35,2.09,2-.45,2.49-.9,4.94-1.35,7.43l0,0c-2,.51-4.14,1.13-6.29,1.54a12.45,12.45,0,0,0-1.46.38,7.06,7.06,0,0,0-5.22,6.78c-.38,5.26.15,10.34,3.31,14.79a6.26,6.26,0,0,0,5.77,2.78c2.21-.11,4.42,0,6.75,0l.32,3.39h-.05a73.94,73.94,0,0,1-8.68-.08c-3.49-.41-5.88-2.83-7.12-5.9A110.8,110.8,0,0,1,159.23,214.38Zm12.63-7.89c-.29,0-.58.1-.88.13a5.08,5.08,0,0,0-4.54,4.78c-.41,4.2.62,8.2,1.71,12.16.34,1.24,1.42,2.29,2.37,3.7l0,0c-2.38-1.13-3.82-2.63-4.31-4.94a60.31,60.31,0,0,1-1.51-8.13c-.12-1.7.61-3.49,1.11-5.19a3,3,0,0,1,1.28-1.31,18.16,18.16,0,0,1,8.34-2.43h0l.13.54C174.34,206.07,173.1,206.29,171.86,206.49Zm3.86,3.33c.24,2.64.38,5.25.59,8.06-3.19-.31-5.15-2.14-5.17-4.27a3,3,0,0,1,1.2-2.34A7.47,7.47,0,0,1,175.72,209.82Zm-6,12a93.92,93.92,0,0,1-.62-11.25,2.63,2.63,0,0,1,.14-.84,1.48,1.48,0,0,1,1.26-1.05,1.87,1.87,0,0,1,.35,0,4.23,4.23,0,0,1,1.25.18,7.54,7.54,0,0,0-2,1.78l-.05.06a2.77,2.77,0,0,0-.22.37c-.07.11-.16.23-.22.35a6.19,6.19,0,0,0-.23.6s0,.1-.05.15a5,5,0,0,0,0,2.63,8.5,8.5,0,0,0,.68,1.79,5.64,5.64,0,0,0,3.4,2.92,5.44,5.44,0,0,0,1,.21c2.78.36,3.32,2.28,2.57,5.8-.83,0-1.54.11-2.25.11h0c-.25,0-.49,0-.73,0h-.29c-.22,0-.42-.07-.62-.1l-.31-.05c-.18,0-.34-.11-.5-.16l-.3-.1a3.51,3.51,0,0,1-.66-.37h0A4,4,0,0,1,169.7,221.83Zm12.74-52.21c-4.5,1.09-7.59,4.24-9.44,8.7a10.64,10.64,0,0,0,.83,10.11c.24.37.48.75.71,1.13a2.4,2.4,0,0,1,.13.69,12.43,12.43,0,0,1-3.49-7.39c-.3-3,1.16-5.62,2.74-8a15.55,15.55,0,0,1,8.2-5.93c.87-.3,1.78-.54,2.69-.76l.66-.17h0a2.25,2.25,0,0,1,1.81.65,5.18,5.18,0,0,1-1.48.55h0A16,16,0,0,0,182.44,169.62Zm2.81,1.78c-2.42,6.19-4.84,12.41-7.29,18.76-3.31-3.16-4.71-7.79-3.24-10.87C177,174.55,181.05,171.22,185.25,171.4Zm.28,108.4c-.55-1.33-1.15-2.65-1.76-4-1.85-3.92-3.9-7.77-5.67-11.73-2.62-5.85-5-11.81-7.49-17.71-1.91-4.49-3.88-9-5.82-13.42l.17-.54c2.61,2,5.48,2.22,8.38,2.21l2.91-.05a23.06,23.06,0,0,1,3.82.24c4.76,15.22,13.83,26.94,26.59,36.28,12.58,9.2,26.34,14.68,41.88,15.92l-.13.66c-8.45-.41-16.9-1-25.36-1.19-4.6-.12-9.2-.24-13.8-.28-1.15,0-2.3,0-3.45,0-3.46,0-6.9.05-10.35.18C190.12,286.61,187.45,284.39,185.53,279.8Zm149.19,15.86a2.16,2.16,0,0,1-.81.31h0c-3.51-.14-7-.37-10.52-.44-4.42-.08-8.85.06-13.27-.07-10.44-.3-20.88-.8-31.32-1-12.17-.28-24.35-.37-36.52-.57-8.75-.14-17.49-.34-26.23-.44h0c-2.33,0-4.67.35-7,.32H209a42,42,0,0,1-5.25-.48l-.83-.1c-2.58-.27-5.16-.74-7.74-.8H195c-2.47-.12-3.43-1.68-4.53-4.07h3.69c8.75.17,17.49.38,26.24.51,15.33.22,30.66.35,46,.58,7.12.11,14.27,0,21.35.62,8.45.75,16.91.86,25.38,1.08,6.27.16,12.53,1,18.79,1.59a20,20,0,0,1,2.76.71Zm.21-4.55h0c-2.83-.34-5.36-.63-7.88-1-1.22-.26-2.45-.45-3.7-.59-7.93-.23-15.94.25-23.76-.74-9.84-1.25-19.64-.56-29.45-.94-3.18-.1-6.46-.44-9.37-.66,1.08-.07,2.14-.17,3.19-.28,32.54-3.45,54.53-22.26,69.33-51.39v4h0c.2,13.8.36,27.6.63,41.39,0,.06,0,.12,0,.18a49.17,49.17,0,0,0,.61,5.9q.09.58.15,1.17C334.78,289,334.83,289.85,334.93,291.11Zm-.25-66.56a88.68,88.68,0,0,1-8,18.4,90.39,90.39,0,0,1-17.85,22c-.75.69-1.52,1.37-2.3,2a75.88,75.88,0,0,1-17.7,11.17,82,82,0,0,1-15.1,5.07,61.8,61.8,0,0,1-10.85,1.45c-2.69.14-5.4,1.19-8,.92-5.85-.61-11.72-.95-17.51-2.38a79.79,79.79,0,0,1-15.87-5.45c-4.14-2-8-4.61-11.93-7-5.93-3.63-10.6-8.69-15.22-13.78a48.88,48.88,0,0,1-8.73-14,103.49,103.49,0,0,1-4.4-11.19,124.88,124.88,0,0,1-2.44-12.59,44.56,44.56,0,0,1-.63-5.89,76.79,76.79,0,0,1,0-8.31c.23-3.31.63-6.62,1.18-9.89a49.72,49.72,0,0,1,1.9-7.79,95.44,95.44,0,0,1,4.34-10.65,107,107,0,0,1,6.65-11.93c3.69-5.54,7.62-11,12.78-15.29l0,0a113.73,113.73,0,0,1,10.07-7.4,96.65,96.65,0,0,1,20.08-9.65c3.48-1.26,7.34-1.42,11-2.41,6.82-1.88,13.75-.88,20.64-1,4.84-.08,9.45,1.38,14.14,2.42,6.27,1.38,12,4.14,17.64,6.86a55.61,55.61,0,0,1,9.81,6.35,114.47,114.47,0,0,1,9.34,8.39,50.91,50.91,0,0,1,10.7,15.22,140.5,140.5,0,0,1,6.35,16.39c1.12,3.53,1.35,7.36,1.82,11.08.29,3,.43,6,.62,8.2,0,.8-.08,1.57-.11,2.33-.11,2.49-.2,4.81-.34,7.06-.08,1.26-.18,2.49-.32,3.72A39.13,39.13,0,0,1,334.68,224.55Zm43.9,17.25c-4.44-1.24-9-2.17-13.26-3.91-6-2.45-11.59-5.75-17.55-8.23-3.15-1.31-6.71-1.65-10.08-2.43l-1.21-.27,2.61-15,0,0a114.93,114.93,0,0,0,38.08,9.86l2.92,19.79v0A4,4,0,0,1,378.58,241.8Zm54.82-16c-.6,4.45-1.15,8.58-1.69,12.7-.31,2.31-.73,4.61-.85,6.93-.28,5.21-.46,10.42-.58,15.63-.23,9.09-.22,18.19-.63,27.27-.23,5.06-1.61,10-2.93,14.9a57.36,57.36,0,0,1-5.33,13.36c-2.42,4.36-5.8,7.81-10.47,9.51a13.32,13.32,0,0,1-12.79-1.79,27.31,27.31,0,0,1-9.8-13.67,120.14,120.14,0,0,1-4.09-12.73,68.4,68.4,0,0,1-1.75-13.53c-.23-12.72-.08-25.44-.08-38.16V246A48.13,48.13,0,0,0,381,234c-.62-2.45-.46-5.1-.7-8.1,2.06.25,4,.47,5.82.67l3,.33a33.72,33.72,0,0,0,4.23.63h.13c8.45.06,16.92.14,25.32,0,3.28-.06,6.56-.82,9.84-1.23,1.41-.18,2.83-.3,4.84-.5ZM431.07,224c-.8.09-1.59.26-2.39.34-4.29.44-8.56,1-12.85,1.24s-8.85-.11-13.27.09c-7.06.33-14-1-20.93-1.65-1.86-.18-2.53-1.16-2.43-2.86.41-6.74-3.58-10.49-9.14-12.81a72.69,72.69,0,0,1-15.72-8.46c-4.78-3.56-8.87-7.91-10.67-13.71a54.7,54.7,0,0,1-1.8-11.1,57.59,57.59,0,0,1,0-9.47,25.19,25.19,0,0,1,1.43-6.22,2.4,2.4,0,0,1,.11-.23,6.54,6.54,0,0,1,2-1.68,16.6,16.6,0,0,1,9.82-3.05c17.21.07,34.45,0,51.69,0h52.26a12.85,12.85,0,0,1,9.11,3.26,5.72,5.72,0,0,1,2,3.35c.28,4.29.28,8.6.21,12.9a57,57,0,0,1-.62,8.05,28.18,28.18,0,0,1-2.46,8.1c-2.58,5.28-6.9,9.2-13.13,11.61-4.32,1.67-8.68,3.28-12.91,5.17-2.64,1.19-3.82,3.63-4.73,6.18l-.36,1a62.57,62.57,0,0,0-2.05,7.19,4.08,4.08,0,0,1-.42,1.21A3.21,3.21,0,0,1,431.07,224Zm179.16,64.44a13.37,13.37,0,0,1-5.65,2.09c-11.53.36-23.07.37-34.6.66-9.81.25-19.61.7-29.42,1.09-3,.13-6.11.25-9.15.55-3.46.34-6.9.89-10.35,1.34-.71.1-1.43.16-2.14.24-3.9.45-7.8.87-11.7,1.35-4.86.61-9.74,1.14-14.57,1.95-3.49.59-6.91,1.59-10.37,2.4l-3.53.79v0c-.17-1.25-.33-2.39-.49-3.6a7.36,7.36,0,0,1,1.61-.81c4.95-.78,9.9-1.5,14.84-2.25,2.3-.35,4.59-.77,6.89-1.08,5.33-.72,10.65-1.48,16-2.05,6.42-.68,12.86-1.13,19.28-1.75,3.39-.34,6.76-.84,10.14-1.26,1.16-.14,2.32-.23,3.48-.35l13.91-1.41c.35,0,.7-.16,1.05-.19,5.74-.38,11.47-.86,17.21-1.1,6.66-.28,13.32-.37,20-.51,1.39,0,2.77,0,4.16,0h1.06l4.15,0a13.93,13.93,0,0,1,1.92.4C612.47,286.34,611.52,287.69,610.23,288.42Zm16.85-37.53c-2.07,5.32-4,10.68-6.16,16-1.84,4.61-3.86,9.15-5.74,13.74a3.45,3.45,0,0,1-.57,1,3.27,3.27,0,0,1-2.63.92c-7.56,0-15.12-.09-22.68,0-4.59.06-9.25-.08-13.74.67-6,1-12,.82-17.95,1.64-5.52.77-11.1.8-16.56,1.63-5.08.78-10.21.78-15.21,1.63-4.8.82-9.66.75-14.38,1.61-4.44.81-8.94.83-13.3,1.64-4,.73-8,1.1-12,1.56a46.19,46.19,0,0,0-4.9,1.23,23.08,23.08,0,0,1-3,.29c.13-2.82.17-5.31.36-7.79.18-2.32.63-4.63.76-7,.27-4.5-.06-9.07.69-13.48,1.19-7,1.15-13.95,1.58-20.94q0-.94.12-1.92c.34-5,1.11-10.18,1.74-15.79,4-.67,8-1.43,12-2.14,1.92-.34,3.83-.68,5.75-1,7.67-1.24,15.41-1.22,23.15-1.22,1.76,0,3.53-.26,5.26-.4.57,1.26,1.09,2.27,1.5,3.33,1.1,2.85,3.73,3.76,6.21,4.62a24.62,24.62,0,0,0,5.33.67q6.66.75,13.33,1.45a22.23,22.23,0,0,0,2.7.16c7.13,0,14.26.1,21.4,0a55.59,55.59,0,0,0,19-4.1,6.89,6.89,0,0,0,2.38-1.72c.58-.58,1.17-1.23,1.83-1.88l.71-.68c10,1.25,20.69,2.5,31.5,4.56C632.63,236.67,629.86,243.77,627.08,250.89Zm-94.5-28h.06c.78-.07,1.52-.2,2.27-.2,5.32,0,10.65-.07,16,0,10.54.14,21.08.22,31.62.59,5.9.19,11.8.92,18.05,1.45-.11.15-.21.32-.31.49a2.07,2.07,0,0,1-.77.89,31.79,31.79,0,0,1-6.13,2.6A75,75,0,0,1,581.18,231a37.05,37.05,0,0,1-4.22.1c-6.21-.22-12.45.13-18.67-.11-4.28-.17-8.54-.92-12.81-1.39-2.32-.26-4.65-.38-7-.74C535.11,228.3,533.33,226.5,532.58,222.92Zm103.32,4c-3.33-.46-6.23-.9-9.14-1.28-4.53-.59-9.13-.81-13.56-1.78-5.77-1.26-11.61-1-17.38-1.59-1-.1-1.91-.17-2.87-.25-12.62-1.1-25.27-.53-37.9-.74h-.3c-8.18-.14-16.36-.32-24.54-.32h0q-10.28,0-20.54.38a86.48,86.48,0,0,0-9.05,1.17c-4.41.66-8.87,1.15-13.22,2.11l-1.45.36c-3.52.86-7.07,2-10.58,3.07-.35.11-.7.23-1.05.33-4.33,1.36-8.63,2.88-12.94,4.32s-8.88,3.07-13.36,4.45c-4.09,1.25-8.24,2.29-12.36,3.41a12.82,12.82,0,0,1-1.65.2h0c-.28-6.46,2-12.44,2.14-18.94,2.54-.66,5.1-1.28,7.65-2,6-1.63,12-3.16,18-5,4.06-1.25,7.94-3.11,12-4.36a73.49,73.49,0,0,1,10.66-2.35,68.39,68.39,0,0,1,10.21-.65s0,0,0,0c15.6.12,31.19.47,46.79.55h0c19.45.1,38.93,0,58.36.06h.07q9.19,0,18.37.58c4.73.29,9.45.92,14.14,1.62,3,.45,5.86,1.3,8.77,2C640.77,216.51,637.43,225.45,635.9,226.89Zm172.83-9c-.17,1.52-.3,3-.5,4.55-.66,5.06-1.24,10.13-2,15.16-.7,4.4-1.68,8.76-2.48,13.15-.32,1.74-.48,3.52-.73,5.38-5.66-1.57-11.08-3-16.44-4.56-4.42-1.29-8.76-2.86-13.18-4.12-2.92-.83-6-1.26-8.92-2-3.69-.93-7.33-2.08-11-2.95s-7.35-1.44-11-2.27c-5.81-1.34-11.58-2.86-17.4-4.16-4.08-.9-8.23-1.5-12.33-2.34C709,233,705.3,232,701.56,231.2c-1.31-.28-2.67-.3-4-.51-3.88-.6-7.75-1.29-11.64-1.85-6.11-.88-12.24-1.7-18.36-2.52a24.16,24.16,0,0,0-2.7-.17c-2.88,0-5.78-.09-8.66,0-5.65.17-11.37-.74-17.39,1.31l0-.05c.89-2.74,1.62-5,2.4-7.32s1.82-4.62,2.48-7c1.22-4.36,2.45-8.73,3.26-13.18a45.45,45.45,0,0,0,.38-8.88,3.59,3.59,0,0,1,2.6-3.84c3.55-1.42,7-3,10.54-4.51,2.49-1.09,5-.43,7.44-.05s4.74.8,7.12,1.17c4.41.7,8.84,1.29,13.23,2.1,4,.73,8,1.71,12,2.52,1.4.28,2.84.33,4.26.54,4,.58,7.94,1.09,11.88,1.81s7.82,1.68,11.74,2.47c1.48.3,3,.39,4.52.62,3.88.57,7.77,1.08,11.62,1.79s7.64,1.68,11.47,2.46c1.32.27,2.68.24,4,.45,4,.62,7.93,1.21,11.87,1.95s7.81,1.7,11.74,2.48c1.31.27,2.68.23,4,.44l4,.64,4,.67c1.3.23,2.6.45,3.89.69,3.27.57,6.56,1.3,10.63,2.14C809.48,211,809.1,214.44,808.73,217.88Z" transform="translate(1.33 -0.4)"/><path class="cls-1" d="M761.12,258.05a60.76,60.76,0,0,0-17-7.52q-5.19-1.29-10.49-2.07a98,98,0,0,0-18.17-1.78c-5.22,0-10.43.4-15.65.48a53.61,53.61,0,0,0-15.21,2.69c-1.72.54-3.42,1.13-5.12,1.7l-.56-.36c.56-1.56.92-3.17,1.56-4.68.83-1.95,2.57-2.89,4.33-3.76l.69-.33a4.17,4.17,0,0,0,1.12-.73,4.73,4.73,0,0,0,1.36-3.47,4.14,4.14,0,0,0-2.3-3.91,9.29,9.29,0,0,0-2.66-1.26c-3.43-.85-7-2.62-10.36-.48-.58.43-1.15.87-1.7,1.33a35.9,35.9,0,0,0-4.48,4.41c-1.72,1.81-1.3,4.36-1.89,6.58a31.2,31.2,0,0,0,0,15,3.68,3.68,0,0,1-1.22,4,98.5,98.5,0,0,0-15.18,19.21,198.47,198.47,0,0,0-10.12,18.21,124.26,124.26,0,0,0-6.68,17.17c-1.66,5.43-2.51,11.11-3.72,16.68h1.63c.35-1.47.72-3,1.09-4.43.23-.94.47-1.87.7-2.8.38-1.47.75-2.95,1.13-4.43a83.43,83.43,0,0,1,2.46-8.78c1.27-3.25,2.64-6.47,4.07-9.66l.57-1.27,1.5-3.29a102,102,0,0,1,5.3-10.22c2.94-4.79,6-9.5,9.33-14,.09-.12.19-.23.28-.36,1.69-2.25,3.55-4.41,5.47-6.62,1.13-1.31,2.28-2.62,3.43-4,.24,1.56.4,2.53.55,3.5.43,2.91.82,5.82,1.29,8.72.77,4.68,1.31,9.41,2.45,14,1.08,4.3,2.49,8.42-.38,12.53a1.77,1.77,0,0,0-.23.48l-3,12.18c-1.06,4.5-2.14,9-3.09,13.52a47.08,47.08,0,0,0-.45,5l1.64,0,3-13.2c1.18-5.11,2.34-10.22,3.57-15.31a14.15,14.15,0,0,1,1.44-3.46h0s0,0,0,0A58.75,58.75,0,0,0,679,318.88a27.87,27.87,0,0,0,14.43,11c3.59,1.3,7.2,2.58,10.87,3.66a7.89,7.89,0,0,0,4.06-.31l3.8,1.9h3.25l-6.17-4s0-.08,0-.13c0-.33-.06-.65-.11-1,0-.08,0-.18,0-.27-.62-3.81-1.37-7.62-4-10.62a54.91,54.91,0,0,0-5.53-5.36c-2.62-2.25-5.61-4.12-8-6.58a25.11,25.11,0,0,1-5.08-7.39,16.17,16.17,0,0,1-.93-3.18c-.21-1.05-.36-2.12-.55-3.17-.14-.83-.3-1.66-.52-2.47a3.79,3.79,0,0,1-.15-1,2.15,2.15,0,0,1,1.43-2,84.91,84.91,0,0,1,14.46-5.38c6.76-1.81,13.61-1.62,20.42-2.06,4.24-.27,8.57.73,12.84,1.26,1.5.18,3,.7,4.45,1,3.93.85,7.91,1.51,11.78,2.56,4.21,1.14,8.36,2.53,12.47,4,4.43,1.59,8.77,3.42,13,5.1q.12,1.44.12,2.88c0,1,0,1.92-.12,2.87-.73,4.2-1.54,8.41-2.67,12.52-1.22,4.45-2.73,8.82-4.33,13.15-1.12,3.14-2.64,6.15-4,9.22h1.69c.19-.14.43-.28.61-.44a.6.6,0,0,0,.2-.25c2-4.58,4-9.14,5.8-13.78a57.13,57.13,0,0,0,2-7.16,74.69,74.69,0,0,0,2.28-10.14c.51-4.72.33-9.52.66-14.27.53-7.68-2.35-14.35-6.14-20.68A32.75,32.75,0,0,0,761.12,258.05Zm-76.75,40.74a20.55,20.55,0,0,0,1.67,4.66c2.06,3.64,5.14,6.33,8.46,8.86,3.81,2.89,7.8,5.79,10.17,10.08a20.37,20.37,0,0,1,2.48,9.5,21.67,21.67,0,0,1-4.3-.7,163.28,163.28,0,0,1-15.7-6.59c-2.31-1.19-4.14-3.65-5.68-5.89a76.63,76.63,0,0,1-5.79-10.17,41.87,41.87,0,0,1-2.33-7.35c-1.08-4.22-2-8.46-3-12.71-.24-1-.15-2.16-.37-3.21-1-4.64-1.5-9.36-2.25-14a135.4,135.4,0,0,1-1.44-21.48c0-3.32,0-6.66,1.65-9.68s3.17-4.7,5-5.56c2.41-1.1,5.32-.72,9.35.49a21.54,21.54,0,0,1,3.53,1.85v2.43a75.92,75.92,0,0,0-6.58,5.7,8.24,8.24,0,0,0-2.33,4.66A105.9,105.9,0,0,0,677.5,261c0,.9.3,1.78.34,2.67.2,4.39.24,8.77,1.49,13.07.54,1.86.26,4,.71,5.86.7,3,1.74,5.95,2.55,8.94C683.25,293.91,683.71,296.37,684.37,298.79Zm90.74-15.26a26.48,26.48,0,0,1,.14,6.8c0,.58,0,1.16,0,1.74-4.69-1.7-8.92-3.32-13.2-4.77-4.7-1.6-9.41-3.2-14.2-4.51-3.33-.91-6.87-1.08-10.19-2-4.64-1.33-9.36-1.34-14.09-1.54-2.41-.1-4.82-.6-7.21-.49-4.82.22-9.73.22-14.4,1.25-6.4,1.41-12.76,3.34-18.71,7.29v-.05a177,177,0,0,1-4-33,65.74,65.74,0,0,1,13.58-4.07c8.06-1.54,16.11-1.48,24.19-1.35,4.09.06,8.24.08,12.26,1.34,1.68.53,3.58.3,5.33.66a122.34,122.34,0,0,1,16,4.12,46.13,46.13,0,0,1,12.52,7c3.39,2.54,5.41,6.07,7.54,9.59a37.1,37.1,0,0,1,2.15,4.33A38.62,38.62,0,0,1,775.11,283.53Z" transform="translate(1.33 -0.4)"/><path class="cls-1" d="M138.93,266.68a65.23,65.23,0,0,0,.67-6.7c.05-1,.06-2,0-3.05a53.53,53.53,0,0,0-.89-9.09,16.21,16.21,0,0,0-6.21-10c-1.93-1.45-4.12-2.65-6.76-1.92-1.8.5-3.63,1-5.39,1.57a14.88,14.88,0,0,0-3.08,1.63,4.6,4.6,0,0,0-1.85,3.12h0a5.16,5.16,0,0,0,0,.79,4.56,4.56,0,0,0,3,4.17c3.81,1.47,5.65,4,5.57,7.41a10,10,0,0,1-.18,1.5c-1.9-.78-3.71-1.88-5.66-2.26a121.11,121.11,0,0,0-14.81-2.24c-5.82-.38-11.69-.1-17.54-.09a83.71,83.71,0,0,0-11.62.89q-1.92.27-3.84.63c-5.08,1-10.08,2.08-15.08,3.44a45.72,45.72,0,0,0-17,9.31C32,271,28.57,278.1,26.93,285.66c-1.26,5.77-1.06,12-.59,18a92.73,92.73,0,0,0,3.3,16.76c1.39,5,3.52,9.86,5.32,14.77v0H37.1c-.85-2.14-1.76-4.27-2.55-6.44a101.67,101.67,0,0,1-5.12-18.54c-.23-1.41-.35-2.85-.57-4.26-.33-2.1-.71-4.19-1.09-6.42,1.69-.81,3-1.53,4.39-2.1,3.39-1.39,6.77-2.8,10.22-4l3.12-1.06c3.11-1.05,6.24-2,9.4-2.87s6.76-1,10-2c6-1.78,12.23-1.91,18.35-2.37,7.35-.54,14.63.71,21.84,2.46a54.28,54.28,0,0,1,14.25,5.86c-.13.8-.23,1.58-.4,2.33-.54,2.26-1.42,4.48-1.59,6.75a10.77,10.77,0,0,1-3.6,7.18c-3.32,3.21-6.84,6.24-10.44,9.13-.84.68-1.62,1.38-2.36,2.11a19.79,19.79,0,0,0-6.39,14.25h1.65c.56-1.88,1-3.81,1.69-5.65a12.87,12.87,0,0,1,2.07-4.26c.58-.63,1.17-1.24,1.76-1.85q2.67-2.71,5.58-5.15a89.51,89.51,0,0,0,7.21-6.21,20.06,20.06,0,0,0,3.42-4.63,15.12,15.12,0,0,0,1.21-3.46c.65-2.6,1.14-5.24,1.82-7.83.78-2.9,1.93-5.72,2.5-8.66.78-4.11,1.28-8.29,1.7-12.46q.93-9.21,1.55-18.47c.35-5.18-2.32-8.7-6.77-10.91-1.9-.94-2.79-2.11-2.1-4.67,2.83-1,5.9-2.08,9-3.08a2.55,2.55,0,0,1,1.59.12c3.09,1.37,5.82,3.31,7.09,6.53a20.11,20.11,0,0,1,1.59,6.95c.09,5.3-.17,10.61-.47,15.9-.23,4.1-.73,8.19-1.13,12.28a45.27,45.27,0,0,1-.62,5.07c-.78,3.64-1.72,7.13-2.54,10.87S131,303.2,130,306.9a49.34,49.34,0,0,1-7.94,16.56,21.2,21.2,0,0,1-2.27,2.8,21.44,21.44,0,0,1-9.08,5.61,70.53,70.53,0,0,0-7.49,3.33h4.87c11.63-3.46,17.93-11.52,22-22q1.08-2.78,2-5.75v0a22.78,22.78,0,0,1,1.45,3.42c.79,3.48,1.36,7,2.16,10.47.85,3.69,1.89,7.34,2.81,11,.24.95.36,1.94.53,2.9h2.12c-.62-3.38-1.16-6.79-1.9-10.15-.64-2.93-1.47-5.82-2.27-8.72a72.52,72.52,0,0,0-2.72-9.21,9.17,9.17,0,0,1-.82-5.94c1-4.3,2.12-8.62,2.89-13,.92-5.28,1.53-10.62,2.28-15.94.09-.63.17-1.26.25-1.89l.57-.18h0c2.09,2.54,4.3,5,6.22,7.63,3.75,5.18,7.47,10.4,10.93,15.77a85.55,85.55,0,0,1,5.55,10.33c2.45,5.22,4.95,10.44,6.86,15.86,1.76,5,2.77,10.28,4.11,15.43v0h2.17c-5.5-26.35-18.31-48.86-36.31-68.48A.17.17,0,0,0,138.93,266.68ZM124.14,262c-.12,1.65-.24,3.34-.36,5a14.37,14.37,0,0,1-.14,1.61c-.49,4.35-.94,8.7-1.51,13-.4,3.16-1,6.29-1.55,10v0c-1.7-.87-2.87-1.6-4.14-2.09-4.3-1.64-8.62-3.24-13-4.75a24.36,24.36,0,0,0-3.2-.42,86.26,86.26,0,0,0-21.7-1.28,83.44,83.44,0,0,0-12.19,1.65c-6.51,1.41-13,2.93-19.36,4.92s-12.3,4.58-18.79,7c0-1.49-.1-3-.13-4.48a13.35,13.35,0,0,1,.6-4.6c.9-2.59,1.55-5.27,2.53-7.83a32.36,32.36,0,0,1,16.34-17.86,52.66,52.66,0,0,1,15.07-5.12c5.54-.9,11-2.4,16.54-3a114.23,114.23,0,0,1,14.33-.19c5.22.09,10.43.35,15.64.59,4,.17,11.37,2.59,15.22,5C124.27,260.08,124.2,261,124.14,262Z" transform="translate(1.33 -0.4)"/><path class="cls-1" d="M109.18,299.46a25.23,25.23,0,0,0-3-2c-4.76-2.19-10-2-15-2.36a12.57,12.57,0,0,0-6,1.23q-10.82,5.22-21.4,10.89a52.66,52.66,0,0,0-6.93,4.92,2.33,2.33,0,0,0-.9,1.24,2.21,2.21,0,0,0,.9,2.2,6.93,6.93,0,0,0,2,1.66A34.63,34.63,0,0,0,65,318.83a40.35,40.35,0,0,0,15.29-.57A50.51,50.51,0,0,0,97,310.35C101.3,307.36,105.58,304.27,109.18,299.46Zm-26.62,16a23.89,23.89,0,0,1-8,1.58,101.14,101.14,0,0,1-11-.53,25.2,25.2,0,0,1-4.73-1.33,2.63,2.63,0,0,1,0-2.3,2.93,2.93,0,0,1,1.15-1c5.87-3.13,11.64-6.46,17.51-9.61,2.65-1.43,5.43-2.63,8.17-3.9a7.89,7.89,0,0,1,2.53-.9c5.09-.19,10.23-.72,15.17,1.21a24.28,24.28,0,0,0,2.75.74l.3.86c-2.86,2.29-5.58,4.81-8.64,6.8a132.08,132.08,0,0,1-12.67,7.22A21.38,21.38,0,0,1,82.56,315.49Z" transform="translate(1.33 -0.4)"/><path class="cls-1" d="M453.07,140.29a103.64,103.64,0,0,0-12.39-5.09c-5.38-1.6-11-2.49-16.45-3.78-7.09-1.67-14.33-1.18-21.5-1.62a99.89,99.89,0,0,0-10.52.41,19.59,19.59,0,0,0-2.42.21l-14.76,3a55.86,55.86,0,0,0-17.79,6.6,27,27,0,0,0-3.72,3.2l0,1.05h0a13.66,13.66,0,0,1,1.41.81c1.7,1.19,3.67,1.18,5.64,1.35,5.26.44,10.51,1.32,15.78,1.42,11.64.22,23.29.19,34.94,0,6.54-.09,13.06.2,19.66-.8,6.14-.92,12.51-.61,18.66-1.91,2-.41,4.45,0,5.46-2.76h0v0C454.39,141.67,453.88,140.65,453.07,140.29ZM448.28,143c-6.08,1.59-11.79,1.41-17.42,2-11.52,1.19-23,.93-34.57.93-8.2,0-16.41-.31-24.61-.54-3.14-.09-6.28-.33-9.41-.57a16.72,16.72,0,0,1-2.67-.64,16.15,16.15,0,0,1,5.16-3.68c1.41-.66,2.85-1.16,4.25-1.66,3.21-1.12,7-1.34,10.4-2.39,3.74-1.16,7.64-.89,11.34-1.67,8.78-1.87,17.59-.77,26.37-.78,4.18,0,8.4,1.41,12.53,2.44s8,2.28,12,3.62c2.15.72,4.18,1.82,6.69,2.94Zm3.3-.41c-1.61.5-2-1.29-3.08-1.66a10.31,10.31,0,0,1-3.57-2.13l-.08-.07,7.49,3.49A3.09,3.09,0,0,1,451.58,142.62Z" transform="translate(1.33 -0.4)"/><path class="cls-1" d="M603,193.71c3.66,3,8,3.73,12.39,4.56a5.17,5.17,0,0,0,2.09-.42,16.47,16.47,0,0,1,2.06-.55c6.44-.61,12.92-6.82,13.56-13.63a10.4,10.4,0,0,0,0-1.37,30.63,30.63,0,0,0-1.67-5.53c-2.64-5.26-7.06-8.15-12.72-9.8-5.39-1.56-10.16-.4-14.68,2.21a14.15,14.15,0,0,0-7,11.72,13.82,13.82,0,0,0,.26,3.32A16.67,16.67,0,0,0,603,193.71Zm16.13-.48c-5.92,1.24-11.06-.24-14.93-5a8.63,8.63,0,0,1-1.8-5.67c.1-4.52,3.06-9.26,7.4-10.23a31.76,31.76,0,0,1,3.55-1c4.5-.39,11.56,3.15,13.85,8.16.5,1,.36,2.41.52,3.66h0C627.7,188.73,624.2,192.15,619.11,193.23Zm-15.77-21.16c2.07-1.53,4.24-3,7-3a3.88,3.88,0,0,0,1.08-.08c6-1.44,10.81.88,15.28,4.67a11.73,11.73,0,0,1,1.08,16.57,9.31,9.31,0,0,1-.82.84,13.07,13.07,0,0,0,2.6-7c.2-3.75-.62-6.82-3.39-9.4-3.45-3.21-7.37-5.45-12.15-5.35-5.4.13-10.83,3-12.94,8.34-.1.25-.18.51-.26.77,0,.11-.08.2-.11.31v0a12,12,0,0,0,1.2,9.88,5.38,5.38,0,0,1,.39.7h0l-.13.18a11,11,0,0,1-2.64-7.26C599.36,178.23,600.76,174,603.34,172.07Z" transform="translate(1.33 -0.4)"/><path class="cls-1" d="M312.77,216.34a7.55,7.55,0,0,0-1.31.31c-1.36.42-2.77.74-4.09,1.29-3.25,1.4-6.65,2.16-8.51,6s-4.23,7.44-6.43,11.1c-5.1,8.49-10.26,17-15.35,25.44-.68,1.17-1.29,2.34-1.85,3.41-.29.56-.57,1.11-.83,1.59.7,2.34,2,2.82,3.72,2.81a19.84,19.84,0,0,0,6.58-1,51.73,51.73,0,0,0,18.07-11.22A105.54,105.54,0,0,0,316.07,240a50.92,50.92,0,0,0,7-15.52,3.08,3.08,0,0,0,.06-.61,3.39,3.39,0,0,0-.29-1.53C321.43,219.13,316.28,216.11,312.77,216.34Zm-14.36,40.88A49.81,49.81,0,0,1,282.29,266c-1.58.44-3.5,0-5.45,0,0,0,0,0,0-.05a5.64,5.64,0,0,1,.24-1.63c1-1.71,2.1-3.32,3-5a6.78,6.78,0,0,1,5.11-3.46c4.38-.83,8.79-1.47,13.17-2.33a44.48,44.48,0,0,1,5-1.13l.12,0C301.8,254,300.2,255.74,298.41,257.22Zm22.16-31.81a46.44,46.44,0,0,1-8.61,16.8L309,246c-2.06,2.7-4.91,3.89-8.15,4.56s-6.32,1.75-9.52,2.43c-2.42.51-4.94.66-7.59,1h-.1l9.81-16.8c2.55-4.37,5-8.83,7.73-13.07a9.24,9.24,0,0,1,3.91-3c.95-.38,1.92-.72,2.88-1,1.66-.55,3.31-1.05,4.9-1.59,1.52.39,2.71.74,3.92,1a5.8,5.8,0,0,1,2.84,1.4A4.35,4.35,0,0,1,320.57,225.41Z" transform="translate(1.33 -0.4)"/><path class="cls-1" d="M319.07,202.52a9.65,9.65,0,0,0-1-.65c-5.49-2.32-11.09-4.32-16.68-6.32a3.32,3.32,0,0,0-.64-.15l-.15,0-.12,0a1.92,1.92,0,0,0-.24,0h-.41l-.34,0-.35.08-.34.13a1.83,1.83,0,0,0-.32.14,2.16,2.16,0,0,0-.3.18l-.3.2-.25.23a3.31,3.31,0,0,0-.26.27,3.06,3.06,0,0,0-.21.29,2.11,2.11,0,0,0-.2.29c-.06.11-.11.24-.17.36s-.07.14-.1.22l0,.12a.66.66,0,0,0,0,.15,3.46,3.46,0,0,0-.13.64,19.7,19.7,0,0,0-.39,3.74h0c.26,3.49-.52,7.22,2.32,10.61,1.47-.15,2.89-.25,4.3-.44h0c1.4-.18,2.78-.47,4.17-.72h0c2-.36,3.95-.7,5.92-1s3.93-.73,5.88-1.16a2.64,2.64,0,0,0,.71-.26c1.6-.83,2.77-3.12,2-4.26a8.83,8.83,0,0,0-1.45-1.87A8.24,8.24,0,0,0,319.07,202.52ZM299.39,211c-.07-.29-.15-.59-.23-.89a27,27,0,0,1-1.2-6.94,10.53,10.53,0,0,1,1.8-5.91l3.51,1.2.06,0-2.1.25a19.59,19.59,0,0,0-1,5.42c-.08,2.72.66,4.91,2.25,6.3l0,0Zm3.83-2.63a9.51,9.51,0,0,1-.9-6.19c.1-.72.23-1.45.36-2.21,4.67,1.21,8.95,2.53,12.73,5.09v0l-.09,1Zm15.59-1.59a8.07,8.07,0,0,1-3.5,1.7h-.08c1.13-.76,1.13-.76,2.76-4.55l.76,0C318.75,204.93,319.27,206.26,318.81,206.75Z" transform="translate(1.33 -0.4)"/><path class="cls-1" d="M140.42,202.37a11.55,11.55,0,0,0-3.06-2.21c-5.54-2.55-11.5-1.92-17.27-1.39a57.65,57.65,0,0,0-12.21,2.93,45.87,45.87,0,0,0-9.49,4.18,104.14,104.14,0,0,0-11.5,8.18,44.52,44.52,0,0,0-6.45,6.2,45,45,0,0,0-4.94,7.05,3.17,3.17,0,0,0-.19,2.9,3.36,3.36,0,0,0,.22.42h0a3.5,3.5,0,0,0,.33.43,3.85,3.85,0,0,0,.46.51l.15.18a4,4,0,0,0,.48.36l.2.16a4.81,4.81,0,0,0,.46.22l.27.13.44.13.34.1c.13,0,.27,0,.4.06l.4.07.34,0c.71.06,1.44.07,2.16.11h0l2.5-.32,1.5-.17,11.45-1.25,2.94-.33,10.39-1.3c4.87-.62,9.73-1.26,14.6-1.87a35.69,35.69,0,0,0,4-.43c4.15-1,8.28-2.09,12.41-3.16a7,7,0,0,0,5-6.28c.59-5.85-2.06-10.45-5.51-14.72A10.64,10.64,0,0,0,140.42,202.37Zm4,15.54a11.1,11.1,0,0,0,.32-3c0-.27,0-.54,0-.81v0c0,.26,0,.53,0,.81a.41.41,0,0,1,0,.11,12.12,12.12,0,0,1,0,1.35c0,3.52-1.24,5.28-4.61,6.25a89.45,89.45,0,0,1-18.34,3.63c-2,.15-4,.77-6,1-5.41.74-10.83,1.4-16.25,2.08a6.85,6.85,0,0,1-.91,0l-.38,0-.33,0-12.27,1.36a28.74,28.74,0,0,1-5.07.27,10.24,10.24,0,0,1-3.41-.76c-.91-2.57.86-4,1.94-5.27,5.68-6.68,11.86-12.77,19.69-17.09a57.09,57.09,0,0,1,15.87-6c5.44-1.16,11-2,16.55-1.31a27.62,27.62,0,0,1,7.25,2.42h0c-1.8.61-3.16,1.54-3.36,3.32a18.33,18.33,0,0,0,.41,7.15,11.86,11.86,0,0,0,2.78,4.91,23.67,23.67,0,0,0,3.25,2.59A4.66,4.66,0,0,0,144.38,217.91Zm-2.5.18a6.51,6.51,0,0,1-4-4.05,10.66,10.66,0,0,1-.1-8.38,11.64,11.64,0,0,1,1.45,1.31,8.32,8.32,0,0,1,.73.86,11,11,0,0,1,2.09,6.8A25.59,25.59,0,0,1,141.88,218.09Z" transform="translate(1.33 -0.4)"/><path class="cls-1" d="M713,207.91a45.78,45.78,0,0,0-13.09-7.7,57.15,57.15,0,0,0-13.68-3.6c-5.29-.6-10.57-1.08-15.84-.15a10.52,10.52,0,0,0-4.89,1.93c-4.74,4.22-8.11,9.2-8.25,15.7,0,.43,0,.88,0,1.32a5.88,5.88,0,0,0,3.83,5.61,79.32,79.32,0,0,0,11.28,3.24c4,.84,8.09,1.22,12.15,1.78,1.68.23,3.38.37,5.07.59,3.62.49,7.24,1.08,10.87,1.49,4.27.48,8.56.73,12.83,1.23,2.66.32,5.27,1,7.91,1.4,3.53.59,6.43-.83,8.35-4.23a25,25,0,0,0-6.09-9.09C720,214.28,716.63,210.91,713,207.91Zm-47-4.74a5.89,5.89,0,0,1,.95,2.33,8.92,8.92,0,0,1,.13,1.81c0,.31,0,.62-.07.94a12,12,0,0,1-.71,2.8,8.33,8.33,0,0,1-4.07,4.72C661.35,210.77,662.2,206.6,666,203.17Zm60.54,21.77c.36.74.74,1.52,1.21,2.38h0c-1.33.32-2.41.7-3.38.95a6.72,6.72,0,0,1-1.94.25h0c-3-.14-6-.78-9-1.11-4.28-.48-8.58-.8-12.85-1.31-3.28-.38-6.54-1-9.82-1.41-2.22-.3-4.47-.4-6.68-.7-3.81-.52-7.63-.95-11.38-1.74a99.15,99.15,0,0,1-10.25-2.84c-2.08-.67-3.45-3.86-3-6.36.14-.72.32-1.43.48-2.1,0-.06,0-.13,0-.2.45,2.19-.67,4.69,1,6.72a5.86,5.86,0,0,0,1.3.11c3.07-.08,5.39-2.69,6.67-7.83l0-.15a21.14,21.14,0,0,1,.83,3.29c.34,4,3,6.35,6.15,8.22,2.76,1.63,5.86,1.9,9,2.16s6.56.8,9.83,1.2c1.34.16,2.68.25,4,.4,4.54.45,9.07,1,13.62,1.36a40.67,40.67,0,0,0,4.27.31c1.43,0,2.86,0,4.28-.12,3-.35,3.5-2,1.62-4.41-5.85-7.56-12.9-13.64-21.79-17.38q-5.52-2.4-11.26-4.24c-2.1-.64-4.44-.57-6.67-.77-2-.21-3.95-.3-5.91-.54a6.81,6.81,0,0,0-.78-.05c-3.41-.11-5.92,2-6.32,6.22v1.6c0-.33,0-.62-.08-.92-.33-3.32-1.55-4.75-4.29-5,1.86-1.54,3.73-2.6,5.86-2.59h0a121.53,121.53,0,0,1,15.87.54,47.26,47.26,0,0,1,21.68,8.43,78.78,78.78,0,0,1,15.93,14.46A20,20,0,0,1,726.51,224.94Zm-35.66-2.51c-4.73-1-9-1.75-13.23-2.74a7,7,0,0,1-2.57-1.18,7.44,7.44,0,0,1-1.32-1.25c-.2-.23-.38-.48-.56-.73a10.92,10.92,0,0,1-.88-1.61,12.57,12.57,0,0,1-.62-1.75,13.93,13.93,0,0,1-.49-3.56,14.27,14.27,0,0,1,.1-1.63c.22-1.08.47-2.15.75-3.22s.59-2.13.93-3.18c5.91-.07,11.43-.25,16.95,1.21l1.18.34c.4.12.79.25,1.18.39v0c-.46,3-1.13,6.09-1.37,9.2-.12,1.56-.13,3.12-.11,4.72S690.85,220.71,690.85,222.43Zm3.52-16.87c.13-.36.28-.72.44-1.08.71.2,1.4.42,2.08.66,10.22,3.51,17.75,10.76,24.92,19.19-1.24.11-2.48.16-3.71.18-8.6.1-16.75-1.77-25.18-2.09C692.76,216.53,692.3,211,694.37,205.56Z" transform="translate(1.33 -0.4)"/><path class="cls-1" d="M451.48,198.43a7,7,0,0,0,.26-1.92V185.05c0-3.86,0-7.71,0-11.57V161.85a6.46,6.46,0,0,0-.62-2.55c-1.33-3-4-3.58-6.93-3.58H368.6a14.59,14.59,0,0,0-1.62,0c-4.42.56-5.64,3-5.61,6.44v.07h0c.12,11.62-.12,23.25-.12,34.87a1.85,1.85,0,0,0,0,.23h0v.07a5.06,5.06,0,0,0,.76,2.52c1.41,2.33,3.77,2.9,6.26,2.9h38.18V203H413l32.17-.15C448.52,202.81,450.78,201,451.48,198.43Zm-82.59,2.25c-2.46,0-4.75-.25-5.62-3.06a8.7,8.7,0,0,1-.3-2.39V163c0-2.25.66-3.78,2-4.6a6.06,6.06,0,0,1,3.23-.76H444.8c3.6,0,4.47.91,4.47,4.5v34.1a23.09,23.09,0,0,1-.68,3.8,44,44,0,0,1-5,.61Z" transform="translate(1.33 -0.4)"/><path class="cls-1" d="M452.12,198.39l.64,0a18.24,18.24,0,0,0,2.61-.14,2.1,2.1,0,0,0,.8-.32,39.59,39.59,0,0,0,7.38-5.63c4.21-4.4,5-10.35,5.94-16,.64-3.88.28-7.88.06-11.88-.17-3.17-1.46-5.71-4.73-7.12-2.72-1.16-5.45-1-8.22-1a10.53,10.53,0,0,0-1.8.14c-2.2.37-2.91,1.64-2.91,4.55V195c0,.47.07.93.11,1.44S452.08,197.64,452.12,198.39Zm1.68-2.27v-7.41c1.67-.11,3.35-.14,5-.35.51-.06,1-.14,1.48-.23,1.1-.21,2.2-.47,3.52-.73C462.8,191.58,458,195.58,453.8,196.12ZM465.72,182c0,1.26-.49,1.78-1.67,1.83l-4.22.31-5.7.41a4.24,4.24,0,0,1-.44-.78,6.24,6.24,0,0,1-.08-1v0l12.12-.81Zm1.12-5.69v2h-.08l-13.05.82h0v-1.63h0l13.13-1.19Zm.85-4.7-.29.71-13.5,1.23a5.23,5.23,0,0,1-.14-.94c0-.83.3-1.31,1.33-1.36,3.75-.18,7.49-.37,11.24-.47.45,0,.91.54,1.36.83ZM453.88,162c.1-3.45.36-3.67,3.5-3.74,2.34,0,4.68-.12,6.79,1.12.27.16.52.33.77.5s.52.34.77.53l.74.54h0l-.31.66c-3.58.21-7.16.44-10.74.62a7.15,7.15,0,0,1-1.52-.22Zm-.39,4.65a7.24,7.24,0,0,1,2.12-.75c3.75-.07,7.49,0,11.91,0h.09c-.76.65-1.12,1.23-1.52,1.26-4.09.3-8.19.51-12.28.74v-.05c-.05-.15-.09-.29-.13-.43s-.13-.49-.19-.77Z" transform="translate(1.33 -0.4)"/><path class="cls-1" d="M133.06,204a4.27,4.27,0,0,0-4.2-2.3c-3.62,0-7.14.72-10.69,1-6.62.56-12.45,3.15-18.13,6.13a60.42,60.42,0,0,0-9.72,6.93,49.88,49.88,0,0,0-9.66,10.59,2.52,2.52,0,0,0-.19.8L82,229.28c1.45,0,2.89.08,4.32,0,.25,0,.5,0,.75,0,3.29-.29,6.56-.83,9.85-1.08,3.94-.29,7.9-.39,11.84-.59.31,0,.61-.05.92-.09h0l.93-.15c3.28-.46,6.57-.83,9.82-1.4,2.62-.45,5.41-.72,7.74-1.85a12,12,0,0,0,5.9-6.32c1.13-2.7.85-5.37.71-8A15.68,15.68,0,0,0,133.06,204Zm-22,20.69a15.63,15.63,0,0,1-2.94.82c-3.4.26-6.82.31-10.22.62-3.82.36-7.63,1-11.46,1.35a17.68,17.68,0,0,1-3.48-.32h0l-.18-.77c.44-.54.87-1.08,1.32-1.62a56,56,0,0,1,25-17.65h0a3.9,3.9,0,0,1,.29.28l.09.08.18.21.18.21s0,0,0,0a4.73,4.73,0,0,1,.91,3c.08,3.68.35,7.36.5,11C111.17,222.76,111.08,223.64,111,224.69ZM129,221l-.18.15-.48.38c-.1.08-.21.14-.31.21l-.37.25-.17.08a4.73,4.73,0,0,1-1.22.51l-.45.11c-2.89.73-5.87,1.14-8.82,1.6l-1,.15c-.31,0-.62,0-.93,0a7.84,7.84,0,0,1-1-.11c-.34-3.31-.68-6.54-1-9.76-.31-3-.62-5.91-.94-8.9,1.27-.24,2.38-.53,3.51-.65,4.25-.47,8.51-.9,12.76-1.33a5.37,5.37,0,0,1,.69,0c1.5.08,2.37,1,2.75,2.61.44,1.83,1.09,3.61,1.37,5.46C133.71,214.56,131.64,218.71,129,221Z" transform="translate(1.33 -0.4)"/><path class="cls-1" d="M446.89,161.32a2,2,0,0,0,0-.25,1.1,1.1,0,0,0,0-.18,1.39,1.39,0,0,0,0-.3,1.86,1.86,0,0,0-.07-.34c0-.08,0-.16-.07-.23a3.92,3.92,0,0,0-.16-.36l-.09-.17-.24-.34-.11-.13a3.14,3.14,0,0,0-.32-.31l-.1-.09c-.13-.09-.26-.18-.4-.26l-.1-.05a2.72,2.72,0,0,0-.47-.19l-.1,0a2.18,2.18,0,0,0-.51-.09l-.07,0H444l-.17,0a24.47,24.47,0,0,0-2.71-.05H370.4a12.41,12.41,0,0,0-1.75.13c-2.17.34-2.84,1.52-2.85,4.32v33.85a22.39,22.39,0,0,0,.68,3.74h77c2.59,0,3.24-.24,3.38-1.93,0-.27,0-.56,0-.89v-.06q.06-17.87,0-35.74ZM444.13,198c-2.93.87-74.17.62-76.35-.42V162.87a5.72,5.72,0,0,1,.24-2.07c.33-.78,1.08-.93,2.76-.93h71.75c.45,0,.89.09,1.6.17Z" transform="translate(1.33 -0.4)"/></svg>