<?xml version="1.0" encoding="utf-8"?>
<!-- Generator: Adobe Illustrator 22.1.0, SVG Export Plug-In . SVG Version: 6.00 Build 0)  -->
<svg version="1.1" id="Capa_1" xmlns="http://www.w3.org/2000/svg" xmlns:xlink="http://www.w3.org/1999/xlink" x="0px" y="0px"
	 viewBox="0 0 512 512" style="enable-background:new 0 0 512 512;" xml:space="preserve">
<style type="text/css">
	.st0{fill:#1DE8F1;}
	.st1{fill:#00246B;}
	.st2{fill:#0050B2;}
	.st3{fill:#003A92;}
	.st4{fill:#1BD9DE;}
	.st5{fill:#1689FC;}
</style>
<path class="st0" d="M503.6,151.5c-30.3-15-56.7-27.6-96.6-39.3c-7.5-2.1-15.3,1.8-18.3,9c-6.6,17.4-23.1,28.8-41.7,28.8
	c-24.3,0-44.7-19.8-45-44.1c0-7.8-6.3-14.1-14.1-14.7c-10.5-0.6-21-0.9-30.9-0.9c-84.9-0.6-164,18.9-248.6,61.2
	c-7.5,3.9-10.5,12.9-6.9,20.1l101.1,202.2c3.3,6.6,11.1,9.9,18.3,7.8c24.9-8.4,51.6-14.4,78.9-17.7c18.3-2.4,38.6-3.6,57.2-3.6
	c45.3,0,90.6,7.2,134.4,21.3c6.9,2.1,14.7-1.2,18-7.8l101.1-202.2C514.1,164.4,511.1,155.4,503.6,151.5z"/>
<path class="st1" d="M229.4,446.4L102.9,193.9c-3.8-7.4-0.8-16.4,6.6-20.2c7.3-3.7,16.4-0.8,22.1,6.6l126.6,252.4
	C265.2,450.5,238.3,464,229.4,446.4z"/>
<path class="st2" d="M255,422c-24.9,0-45,20.1-45,45c0,24.9,20.1,45,45,45s45-20.1,45-45C300,442.1,279.9,422,255,422z"/>
<path class="st3" d="M300,467c0,24.9-20.1,45-45,45v-90C279.9,422,300,442.1,300,467z"/>
<path class="st4" d="M510.5,171.6L409.4,373.8c-3.3,6.6-11.1,9.9-18,7.8c-43.8-14.1-89.1-21.3-134.4-21.3v-270
	c9.9,0,20.4,0.3,30.9,0.9c7.8,0.6,14.1,6.9,14.1,14.7c0.3,24.3,20.7,44.1,45,44.1c18.6,0,35.1-11.4,41.7-28.8
	c3-7.2,10.8-11.1,18.3-9c39.9,11.7,66.3,24.3,96.6,39.3C511.1,155.4,514.1,164.4,510.5,171.6z"/>
<path class="st5" d="M347,180c-40.6,0-74.3-33-75-73.5c0-39,53.9-92.1,64.7-102.3c5.8-5.5,14.9-5.5,20.7,0
	C368.1,14.4,422,67.5,422,105c0,9.3-1.8,18.8-5.3,27.3C405.5,161.2,378.1,180,347,180z"/>
</svg>
