<svg id="Capa_1" data-name="Capa 1" xmlns="http://www.w3.org/2000/svg" viewBox="0 0 511.97 627.29"><title>limpia01auto</title><path d="M567.2,288.6c-26.3-13.2-49.7-24.4-82.6-35.1a72.37,72.37,0,0,0,.9-11.5c0-17.5-10.9-39.4-33.4-66.9a404.45,404.45,0,0,0-31.3-34,14.92,14.92,0,0,0-20.6,0,404.45,404.45,0,0,0-31.3,34c-16.6,20.4-27,37.7-31.2,52.4-91.6-3.2-176.4,16.4-265.9,61.1a15,15,0,0,0-6.7,20.1L166.2,510.9a15.12,15.12,0,0,0,18,7.6,448,448,0,0,1,68-16.2l34.9,69.5a45,45,0,1,0,27.3-12.6L284,498.6c11.5-.9,23-1.4,34.5-1.4a447.57,447.57,0,0,1,136.3,21.3,14.86,14.86,0,0,0,18-7.6L573.9,308.7A15,15,0,0,0,567.2,288.6ZM318.5,589a15,15,0,1,1-15,15A15,15,0,0,1,318.5,589Zm92-415.8c21.2,22.2,45,53,45,68.8a45,45,0,0,1-90,0C365.5,226.3,389.3,195.4,410.5,173.2Zm41.2,312.9a479.58,479.58,0,0,0-133.2-18.9,471.62,471.62,0,0,0-49,2.6L193.1,317.5a15,15,0,1,0-26.8,13.4l71.9,143.3a475.13,475.13,0,0,0-50.9,11.9L98.7,308.9c80-37.8,156.4-54.3,238.4-51.4a74.95,74.95,0,0,0,137,24.1c26,8.4,45.8,17.2,66.2,27.1Z" transform="translate(-63.52 -21.71)"/><path d="M186.7,98.08H155.25l-4.37,14.8H122.6l33.69-89.64H186.5l33.69,89.64h-29ZM181,78.7l-9.89-32.23L161.27,78.7Z" transform="translate(-63.52 -21.71)"/><path d="M283.05,23.24h27.63v53.4a45,45,0,0,1-2.47,15A32.39,32.39,0,0,1,300.44,104a30.83,30.83,0,0,1-11.1,7.42,55.75,55.75,0,0,1-19.38,3,122.2,122.2,0,0,1-14.28-.91,37.18,37.18,0,0,1-12.93-3.64,32.49,32.49,0,0,1-9.51-7.73,28.45,28.45,0,0,1-5.9-10.32,53.68,53.68,0,0,1-2.57-15.16V23.24h27.64V77.91q0,7.34,4.07,11.46t11.28,4.12q7.15,0,11.22-4.06t4.07-11.52Z" transform="translate(-63.52 -21.71)"/><path d="M322.73,23.24h84.2V45.37H378.68v67.51H351V45.37H322.73Z" transform="translate(-63.52 -21.71)"/><path d="M411.7,68.12q0-22,12.23-34.18T458,21.71q22.38,0,34.48,12t12.11,33.66q0,15.72-5.29,25.78A37.73,37.73,0,0,1,484,108.81q-10,5.59-24.91,5.59-15.16,0-25.1-4.83a37.78,37.78,0,0,1-16.12-15.28Q411.71,83.83,411.7,68.12Zm27.7.12q0,13.58,5,19.51t13.73,5.93q8.93,0,13.82-5.81T476.88,67q0-12.66-5.11-18.5t-13.85-5.84a16.85,16.85,0,0,0-13.45,5.93Q439.4,54.55,439.4,68.24Z" transform="translate(-63.52 -21.71)"/></svg>