<svg id="Layer_1" data-name="Layer 1" xmlns="http://www.w3.org/2000/svg" viewBox="0 0 512.01 347.17"><title>luces-cortas02</title><path d="M251.7,429.59C111.83,429.18,0,351.72,0,256.17S111.8,82,251.66,82.42h0a591.73,591.73,0,0,1,.24,346.48Z" transform="translate(0 -82.42)" style="fill:#74b73e"/><path d="M503.32,342.41a8.69,8.69,0,0,1-3.29-.65L309.12,263.65a8.68,8.68,0,1,1,6.58-16.06l190.91,78.1a8.68,8.68,0,0,1-3.29,16.72" transform="translate(0 -82.42)" style="fill:#74b73e"/><path d="M503.32,255.63A8.69,8.69,0,0,1,500,255L309.12,176.87a8.68,8.68,0,1,1,6.58-16.06l190.91,78.1a8.68,8.68,0,0,1-3.29,16.72" transform="translate(0 -82.42)" style="fill:#74b73e"/><path d="M503.32,429.19a8.69,8.69,0,0,1-3.29-.65L309.12,350.43a8.68,8.68,0,1,1,6.58-16.06l190.91,78.1a8.68,8.68,0,0,1-3.29,16.72" transform="translate(0 -82.42)" style="fill:#74b73e"/></svg>