<svg id="Layer_1" data-name="Layer 1" xmlns="http://www.w3.org/2000/svg" viewBox="0 0 504.45 352.52"><title>luces-largas01</title><path d="M252.64,76h-.84c-82.25,0-159.47,28.54-206.48,74.7C16,180.88,0,215.29,0,252.22c0,96.53,113.31,176.27,252.64,176.27,3.36,0,7.56-2.52,8.4-5.88a589.12,589.12,0,0,0,0-340.77C259.36,78.48,256,76,252.64,76Zm-5.87,336.58c-127.58-2.52-230-73-230-159.48,0-31.89,14.27-62.95,41.13-89.81,42.8-43.64,113.31-69.66,188.85-70.5A575.52,575.52,0,0,1,246.77,412.54Z" transform="translate(0 -75.96)"/><path d="M496.05,201.86H311.4c-5,0-8.4,3.36-8.4,8.4s3.36,8.39,8.4,8.39H496.05c5,0,8.4-3.36,8.4-8.39S501.09,201.86,496.05,201.86Z" transform="translate(0 -75.96)"/><path d="M496.05,285.8H311.4c-5,0-8.4,3.35-8.4,8.39s3.36,8.39,8.4,8.39H496.05c5,0,8.4-3.35,8.4-8.39S501.09,285.8,496.05,285.8Z" transform="translate(0 -75.96)"/><path d="M496.05,369.73H311.4c-5,0-8.4,3.36-8.4,8.39s3.36,8.4,8.4,8.4H496.05c5,0,8.4-3.36,8.4-8.4S501.09,369.73,496.05,369.73Z" transform="translate(0 -75.96)"/><path d="M311.4,134.72H496.05c5,0,8.4-3.36,8.4-8.4s-3.36-8.39-8.4-8.39H311.4c-5,0-8.4,3.36-8.4,8.39S306.36,134.72,311.4,134.72Z" transform="translate(0 -75.96)"/></svg>