<svg id="Capa_1" data-name="Capa 1" xmlns="http://www.w3.org/2000/svg" viewBox="0 0 512.17 519.69"><title>luces-cortas01auto</title><path d="M186.7,101.08H155.25l-4.37,14.8H122.6l33.69-89.64H186.5l33.69,89.64h-29ZM181,81.7l-9.89-32.23L161.27,81.7Z" transform="translate(-66.64 -24.71)"/><path d="M283.05,26.24h27.63v53.4a45,45,0,0,1-2.47,15A32.39,32.39,0,0,1,300.44,107a30.83,30.83,0,0,1-11.1,7.42,55.75,55.75,0,0,1-19.38,3,122.2,122.2,0,0,1-14.28-.91,37.18,37.18,0,0,1-12.93-3.64,32.49,32.49,0,0,1-9.51-7.73,28.45,28.45,0,0,1-5.9-10.32,53.68,53.68,0,0,1-2.57-15.16V26.24h27.64V80.91q0,7.34,4.07,11.46t11.28,4.12q7.15,0,11.22-4.06t4.07-11.52Z" transform="translate(-66.64 -24.71)"/><path d="M322.73,26.24h84.2V48.37H378.68v67.51H351V48.37H322.73Z" transform="translate(-66.64 -24.71)"/><path d="M411.7,71.12q0-22,12.23-34.18T458,24.71q22.38,0,34.48,12t12.11,33.66q0,15.72-5.29,25.78A37.73,37.73,0,0,1,484,111.81q-10,5.59-24.91,5.59-15.16,0-25.1-4.83a37.78,37.78,0,0,1-16.12-15.28Q411.71,86.83,411.7,71.12Zm27.7.12q0,13.58,5,19.51t13.73,5.93q8.93,0,13.82-5.81T476.88,70q0-12.66-5.11-18.5t-13.85-5.84a16.85,16.85,0,0,0-13.45,5.93Q439.4,57.55,439.4,71.24Z" transform="translate(-66.64 -24.71)"/><path d="M322.64,186c-83.63,0-161.28,28.16-209.07,76-30.72,29.82-46.93,65.66-46.93,103.2,0,98.14,115.2,179.2,256,179.2,3.41,0,7.68-2.56,8.53-6a598.76,598.76,0,0,0,0-346.45C329.47,188.56,326.05,186,322.64,186Zm-6,342.19c-128.86-2.56-233-74.24-233-162.13,0-33.28,14.5-64.85,41.81-92.16,43.59-42.67,114.42-69.12,191.19-70.78A585,585,0,0,1,316.64,528.19Z" transform="translate(-66.64 -24.71)"/><path d="M573.52,434.32l-187.73-76.8c-4.27-2.56-9.39,0-11.1,4.27-2.56,4.27,0,9.39,4.27,11.09l187.73,76.8c.86.86,2.56.86,3.42.86,3.41,0,6.82-1.71,7.68-5.12C580.35,441.12,577.79,436,573.52,434.32Z" transform="translate(-66.64 -24.71)"/><path d="M379,287.55l187.73,76.8c.86.85,2.56.85,3.42.85,3.41,0,6.82-1.7,7.68-5.12,2.56-4.26,0-9.38-4.27-11.09l-187.73-76.8c-4.27-2.56-9.39,0-11.1,4.27C372.13,280.72,374.69,285.84,379,287.55Z" transform="translate(-66.64 -24.71)"/><path d="M573.52,519.66l-187.73-76.8c-4.27-2.56-8.54,0-11.1,4.26s0,9.39,4.27,11.1L566.69,535c.86.85,2.56.85,3.42.85,3.41,0,6.82-1.71,7.68-5.12C580.35,526.48,577.79,521.36,573.52,519.66Z" transform="translate(-66.64 -24.71)"/></svg>