<svg id="Layer_1" data-name="Layer 1" xmlns="http://www.w3.org/2000/svg" viewBox="0 0 512.17 358.4"><title>luces-cortas01</title><path d="M256,76.88c-83.63,0-161.28,28.16-209.07,76C16.21,182.7,0,218.54,0,256.08c0,98.14,115.2,179.2,256,179.2,3.41,0,7.68-2.56,8.53-6a598.76,598.76,0,0,0,0-346.45C262.83,79.44,259.41,76.88,256,76.88Zm-6,342.19c-128.86-2.56-233-74.24-233-162.13,0-33.28,14.5-64.85,41.81-92.16C102.4,122.11,173.23,95.66,250,94A585,585,0,0,1,250,419.07Z" transform="translate(0 -76.88)"/><path d="M506.88,325.2,319.15,248.4c-4.27-2.56-9.39,0-11.1,4.27-2.56,4.27,0,9.39,4.27,11.09l187.73,76.8c.86.86,2.56.86,3.42.86,3.41,0,6.82-1.71,7.68-5.12C513.71,332,511.15,326.91,506.88,325.2Z" transform="translate(0 -76.88)"/><path d="M312.32,178.43l187.73,76.8c.86.85,2.56.85,3.42.85,3.41,0,6.82-1.7,7.68-5.12,2.56-4.26,0-9.38-4.27-11.09l-187.73-76.8c-4.27-2.56-9.39,0-11.1,4.27C305.49,171.6,308.05,176.72,312.32,178.43Z" transform="translate(0 -76.88)"/><path d="M506.88,410.54l-187.73-76.8c-4.27-2.56-8.54,0-11.1,4.26s0,9.39,4.27,11.1l187.73,76.8c.86.85,2.56.85,3.42.85,3.41,0,6.82-1.71,7.68-5.12C513.71,417.36,511.15,412.24,506.88,410.54Z" transform="translate(0 -76.88)"/></svg>