<?xml version="1.0" encoding="utf-8"?>
<!-- Generator: Adobe Illustrator 22.1.0, SVG Export Plug-In . SVG Version: 6.00 Build 0)  -->
<svg version="1.1" id="Layer_1" xmlns="http://www.w3.org/2000/svg" xmlns:xlink="http://www.w3.org/1999/xlink" x="0px" y="0px"
	 viewBox="0 0 504.5 504.5" style="enable-background:new 0 0 504.5 504.5;" xml:space="preserve">
<style type="text/css">
	.st0{fill:#4897F7;}
</style>
<g>
	<path class="st0" d="M248.6,423C111,422.6,0,346.4,0,252.4c0-94,111-171.3,248.5-170.9l0,0c34.1,111,34.2,229.5,0.2,340.7
		L248.6,423z"/>
	<path class="st0" d="M496,217.8H308.3c-4.7,0-8.5-3.8-8.5-8.5s3.8-8.5,8.5-8.5H496c4.7,0,8.5,3.8,8.5,8.5S500.7,217.8,496,217.8"/>
	<path class="st0" d="M496,303.1H308.3c-4.7,0-8.5-3.8-8.5-8.5s3.8-8.5,8.5-8.5H496c4.7,0,8.5,3.8,8.5,8.5S500.7,303.1,496,303.1"/>
	<path class="st0" d="M496,388.4H308.3c-4.7,0-8.5-3.8-8.5-8.5s3.8-8.5,8.5-8.5H496c4.7,0,8.5,3.8,8.5,8.5S500.7,388.4,496,388.4"/>
	<path class="st0" d="M496,132.4H308.3c-4.7,0-8.5-3.8-8.5-8.5s3.8-8.5,8.5-8.5H496c4.7,0,8.5,3.8,8.5,8.5S500.7,132.4,496,132.4"/>
</g>
</svg>
