<svg id="Capa_1" data-name="Capa 1" xmlns="http://www.w3.org/2000/svg" viewBox="0 0 336.02 480.12"><path d="M272.61,147.44l16.08-41.8a64,64,0,1,0-97.2,0l16.08,41.81a168,168,0,1,0,65,0ZM192.09,64.12a48,48,0,1,1,48,48A48,48,0,0,1,192.09,64.12Zm88,264a24,24,0,0,0-24,24v24a16,16,0,1,1-32,0v-24a24,24,0,0,0-48,0v24a16,16,0,0,1-32,0v-120a16,16,0,0,1,32,0v24a24,24,0,0,0,48,0v-6.24a23.63,23.63,0,0,0,32,0v6.24a24,24,0,0,0,48,0v-24a16,16,0,0,1,32,0v120a16,16,0,0,1-32,0v-24A24,24,0,0,0,280.09,328.12Zm-32-161.49v89.49a8,8,0,0,1-16,0V166.63l-16.73-43.49a64,64,0,0,0,49.46,0Zm-34.7,295.24a152,152,0,0,1,0-299.27v0l2.7,7v65.6a32,32,0,0,0-8,20.92v24a8,8,0,0,1-16,0v-24a32,32,0,0,0-64,0v120a32,32,0,0,0,64,0v-24a8,8,0,0,1,16,0v24a32,32,0,1,0,64,0v-24a8,8,0,0,1,16,0v24a32,32,0,0,0,64,0v-120a32,32,0,0,0-64,0v24a8,8,0,0,1-16,0v-24a32,32,0,0,0-8-20.91v-65.6l2.7-7a152,152,0,0,1-53.4,299.27Z" transform="translate(-72.05 0)"/></svg>
