<?xml version="1.0" encoding="utf-8"?>
<!-- Generator: Adobe Illustrator 22.1.0, SVG Export Plug-In . SVG Version: 6.00 Build 0)  -->
<svg version="1.1" id="Capa_1" xmlns="http://www.w3.org/2000/svg" xmlns:xlink="http://www.w3.org/1999/xlink" x="0px" y="0px"
	 viewBox="0 0 841.9 595.3" style="enable-background:new 0 0 841.9 595.3;" xml:space="preserve">
<g>
	<path d="M294.7,319.5c0,22.5,0,41.1,0,64.6c-48.2-29.4-92-56.1-139-84.7c47.3-27.4,91.1-52.8,139-80.5c0,21.4,0,38.5,0,61
		c37.6-21.4,70.9-40.2,106.3-60.3c0,55,0,107.2,0,163.7C365.5,362,332.1,341.9,294.7,319.5z"/>
	<path d="M703.5,303.5c-47.1,27.3-91.1,52.8-138.2,80.2c0-20.6,0-38.4,0-61.5c-37.2,21.3-70.3,40.2-105.7,60.5
		c0-55.1,0-106.9,0-162.2c34.2,20.5,67.1,40.2,103.8,62.2c0-22,0-41.1,0-64.6C612.3,247.9,656.7,275,703.5,303.5z"/>
	<path d="M522.9,163.6c-56.5,0-108.9,0-165.4,0c28.3-46.7,55.2-91.2,84.4-139.3C469.3,71.5,495,115.7,522.9,163.6z"/>
	<path d="M358.2,433.1c55.6,0,107.7,0,163.5,0c-28.4,46.7-55.4,91.2-83.7,137.9C410.9,524.2,385.2,479.8,358.2,433.1z"/>
</g>
</svg>
