<svg xmlns="http://www.w3.org/2000/svg" viewBox="0 0 725.78 792"><title>telefono-negro</title><g id="Icon"><path d="M361.5,666.08a54.7,54.7,0,0,0-77.17,5.17L188.35,781a54.69,54.69,0,0,0,5.17,77.16l66.32,58c36,27.47,68.36,23.66,68.9,23.6,13.71-2.54,41.08,2.43,61.1-3.91,78.05-24.73,190.34-74.64,318.26-220.94s169.68-272.7,189.83-360.25c6.26-27.25-.66-58.71,1.07-75.27,0-.55,1.12-32.61-26.67-56.92a40.17,40.17,0,0,1-4.73-4.77l-46-41.08-19-15.14a54.71,54.71,0,0,0-77.17,5.18l-96,109.78a54.7,54.7,0,0,0,5.17,77.17l82.7,72.3c-31.68,62.75-65.87,120.82-124.64,188C541.42,672.58,498.21,707.59,449,742.59Z" transform="translate(-174.83 -148)"/><path d="M249.45,907.1l10.39,9.09c36,27.47,68.36,23.66,68.9,23.6,13.71-2.54,41.08,2.43,61.1-3.91,78.05-24.73,190.34-74.64,318.26-220.94s169.68-272.7,189.83-360.25c6.26-27.25-.66-58.71,1.08-75.27A64,64,0,0,0,897.16,264C860.23,626.61,530.83,828.83,249.45,907.1Z" transform="translate(-174.83 -148)" style="fill:#494949"/><path d="M744.83,177.09l-57.09,65.18c26-26.17,92-74.73,175.35-1.77l-75.63-66.24A30.3,30.3,0,0,0,744.83,177.09Z" transform="translate(-174.83 -148)" style="fill:#494949"/><path d="M304.75,686.72,247.67,751.9c26-26.17,92-74.73,175.35-1.76L347.38,683.9A30.3,30.3,0,0,0,304.75,686.72Z" transform="translate(-174.83 -148)" style="fill:#494949"/></g></svg>